<?xml version="1.0" encoding="utf-8"?>
<!-- Generator: Adobe Illustrator 25.4.1, SVG Export Plug-In . SVG Version: 6.00 Build 0)  -->
<svg version="1.1" id="图层_1" xmlns="http://www.w3.org/2000/svg" xmlns:xlink="http://www.w3.org/1999/xlink" x="0px" y="0px"
	 viewBox="0 0 1024 1020" style="enable-background:new 0 0 1024 1020;" xml:space="preserve">
<style type="text/css">
	.st0{opacity:0.713;}
	.st1{fill:#FFFFFF;}
</style>
<g id="组_77" transform="matrix(0.94, -0.342, 0.342, 0.94, -111.287, 423.478)" class="st0">
	<g id="路径_2009">
		<path class="st1" d="M499,680.2c-75.8-27.6-160.7-91.2-220-231.1l-35.2-83c-4-9.7-3.2-20.9,2.1-30c5.1-9,13.2-16.2,22.7-20.3
			l2.8-1.2l0.1,0c0.8,0,7.8-3,16.5-6.7c26.3-11,51.7-24.7,75.4-40.6c24.4-16.8,48.7-48.2,70.3-90.7c0.9-1.7,1.2-2.3,1.3-2.5
			c10.5-13.4,27-20.4,44-18.7c3.9,0.4,10.2,1.8,18.2,3.6c25.7,5.6,68.7,14.9,100.8,8.6c27.7-5.9,55-14.6,81-25.8
			c8-3.4,13.5-6,15.6-7c0.5-0.2,0.8-0.4,0.9-0.4l2.6-1.1c9.7-4.2,20.6-5,30.8-2.3c10.4,2.5,18.9,9.4,23.3,19.1l35.2,83
			c15.3,35.4,26.8,72.7,34.1,110.6l0.1,0.5c36.8,198.1-83,305.3-121.7,334.1l0.1,0.1l-0.6,0.4c-3.8,2.8-10.3,7.6-12.1,8.4
			c-2.1,1.3-4.4,2.5-6.7,3.5c-2.3,1-4.8,1.8-7.2,2.5C667.7,694.6,589.8,713.2,499,680.2z M271.5,315.7l-2.5,1.1
			c-9.3,4-17.2,11-22.2,19.8c-5.1,8.8-5.8,19.7-2,29.1l35.2,83c130.1,306.5,382.6,246.1,393.3,243.4c2.4-0.6,4.8-1.5,7.1-2.4
			c2.3-1,4.5-2.1,6.7-3.4c1.2-0.5,5.5-3.4,11.4-7.8l-0.1-0.1l0.6-0.4c37.9-28,158.7-135,121.8-333.4l-0.1-0.5
			c-7.3-37.9-18.7-75-34-110.4l-35.2-83c-4.3-9.4-12.6-16.1-22.6-18.5c-10-2.6-20.7-1.8-30.1,2.3l-2.6,1.1c-0.1,0-0.4,0.2-0.8,0.4
			c-2.1,1-7.6,3.6-15.6,7c-26.1,11.2-53.4,19.9-81.2,25.8c-32.4,6.4-75.5-3-101.2-8.6c-8-1.7-14.3-3.1-18.1-3.5
			c-16.6-1.7-32.7,5.1-43,18.3c-0.1,0.1-0.6,1.1-1.2,2.4c-21.7,42.6-46.1,74.1-70.7,91c-23.8,15.9-49.2,29.6-75.6,40.7
			C277.1,313.8,272.7,315.6,271.5,315.7z"/>
	</g>
	<g id="路径_2007">
		<path class="st1" d="M490.4,664.7c-70.1-25.5-148.4-84.3-203.3-213.5l-32.5-76.6c-3.7-9.1-3-19.5,1.9-28
			c4.7-8.4,12.2-15.1,21.1-18.9l2.6-1.1l0.2,0c0.8-0.1,7.4-2.9,15.1-6.2c24.3-10.2,47.7-22.8,69.5-37.5
			c22.5-15.5,44.9-44.4,64.8-83.6c0.8-1.6,1.1-2.2,1.3-2.4c9.8-12.5,25.1-19,40.9-17.4c3.6,0.4,9.5,1.7,16.9,3.3
			c23.7,5.1,63.3,13.7,92.9,7.9c25.6-5.5,50.7-13.5,74.7-23.8c7.4-3.1,12.4-5.5,14.4-6.5c0.4-0.2,0.7-0.3,0.8-0.4l2.4-1
			c9-3.9,19.1-4.7,28.6-2.2c9.7,2.3,17.6,8.8,21.7,17.8l32.5,76.6c14.2,32.7,24.7,67.1,31.5,102.1l0.1,0.4
			c33.9,182.5-76,281.5-112.1,308.4l0.1,0.1l-0.9,0.6c-3.4,2.6-9.4,6.9-11.2,7.7c-2,1.2-4.1,2.3-6.3,3.2c-2.2,0.9-4.4,1.7-6.7,2.3
			C646.4,678,574.4,695.2,490.4,664.7z M280.7,328.3l-2.3,1c-8.6,3.6-15.8,10.1-20.4,18.2c-4.7,8-5.3,18-1.8,26.5l32.5,76.6
			c120,282.6,352.8,227,362.7,224.5c2.2-0.6,4.4-1.3,6.5-2.2c2.1-0.9,4.2-1.9,6.1-3.1l0.1-0.1c0.4-0.2,2.3-1.2,10.1-6.9l-0.1-0.1
			l0.9-0.6c34.9-25.9,146.3-124.5,112.3-307.5l-0.1-0.4c-6.7-34.9-17.3-69.2-31.4-101.8l-32.5-76.6c-3.9-8.5-11.5-14.7-20.7-16.9
			c-9.1-2.4-18.9-1.7-27.6,2.1l-2.4,1c-0.1,0-0.3,0.2-0.8,0.4c-1.9,0.9-7,3.4-14.4,6.5c-24.1,10.3-49.4,18.4-75,23.9
			c-30,5.9-69.8-2.8-93.6-7.9c-7.4-1.6-13.2-2.9-16.7-3.3c-15.2-1.6-30,4.7-39.4,16.7c-0.1,0.1-0.6,1-1.1,2.1
			c-20,39.4-42.6,68.5-65.3,84.2c-22,14.7-45.5,27.4-69.8,37.6C285.1,326.8,281.8,328.1,280.7,328.3z"/>
	</g>
	<g id="路径_2005">
		<path class="st1" d="M496.6,701.4c-85.4-31-180.8-102.7-247.6-260.1l-39.6-93.4c-4.4-10.9-3.6-23.5,2.3-33.7
			c5.7-10.2,14.8-18.2,25.5-22.8l3.1-1.3l0.1,0c0.9,0,8.7-3.3,18.6-7.5c29.7-12.4,58.2-27.8,84.9-45.7
			c27.5-18.9,54.9-54.2,79.2-102.1c1-1.9,1.3-2.6,1.5-2.8c11.9-15.1,30.3-23,49.5-21c4.4,0.5,11.5,2,20.5,4
			c28.9,6.3,77.3,16.8,113.5,9.7c31.2-6.7,61.9-16.4,91.2-29c9-3.8,15.2-6.8,17.5-7.9c0.5-0.3,0.9-0.4,1-0.5l3-1.3
			c10.9-4.7,23.1-5.6,34.6-2.6c11.6,2.8,21.2,10.6,26.2,21.5l39.7,93.4c17.3,39.9,30.1,81.8,38.3,124.4l0.1,0.5
			c41.4,223-93.6,343.7-137,376l0.1,0.1l-0.6,0.4c-7.3,5.4-12.1,8.8-13.6,9.4c-2.4,1.5-4.9,2.8-7.6,3.9c-2.6,1.1-5.4,2-8.1,2.8
			C686.4,717.6,598.8,738.6,496.6,701.4z M240.5,291.2l-2.9,1.2c-10.5,4.5-19.4,12.4-25,22.4c-5.7,9.9-6.6,22.2-2.3,32.8l39.6,93.4
			c146.5,345,430.8,277,442.8,273.9c2.7-0.7,5.4-1.6,8-2.7c2.6-1.1,5.1-2.4,7.5-3.9c1.4-0.6,6.2-3.9,12.9-8.9l-0.1-0.1l0.6-0.4
			c42.7-31.6,178.6-151.9,137.1-375.4l-0.1-0.5c-8.2-42.6-21.1-84.4-38.3-124.2l-39.7-93.4c-4.9-10.6-14.2-18.2-25.5-20.8
			c-11.2-3-23.3-2.1-33.9,2.6l-3,1.3c-0.1,0-0.4,0.2-0.9,0.4c-2.3,1.1-8.6,4.1-17.6,7.9c-29.4,12.6-60.1,22.4-91.4,29.1
			c-36.4,7.1-84.9-3.4-113.9-9.7c-9-2-16.1-3.5-20.4-4c-18.7-1.9-36.9,5.8-48.5,20.6c-0.1,0.1-0.7,1.3-1.4,2.6
			c-24.4,48-51.9,83.4-79.5,102.5c-26.7,17.9-55.4,33.4-85.1,45.8C246.7,289,241.8,291.1,240.5,291.2z"/>
	</g>
	<g id="路径_2001">
		<path class="st1" d="M502.6,694.8c-80.6-29.3-170.8-97-234-245.7l-37.5-88.2c-4.2-10.3-3.4-22.2,2.2-31.9
			c5.4-9.6,14-17.3,24.2-21.6l2.9-1.2l0.1,0c0.9,0,8.3-3.1,17.6-7.1c28-11.8,55-26.3,80.2-43.2c26-17.9,51.8-51.2,74.8-96.4
			c0.9-1.8,1.3-2.5,1.4-2.7c11.2-14.3,28.7-21.7,46.7-19.8c4.1,0.5,10.9,1.9,19.4,3.8c27.3,5.9,73,15.8,107.2,9.1
			c29.5-6.3,58.5-15.5,86.2-27.4c8.5-3.6,14.3-6.4,16.6-7.4c0.5-0.2,0.8-0.4,0.9-0.4l2.8-1.2c10.3-4.5,21.9-5.3,32.7-2.5
			c11,2.6,20,10,24.8,20.3l37.5,88.3c16.3,37.7,28.5,77.3,36.2,117.6l0.1,0.5c39.1,210.7-88.4,324.7-129.4,355.3l0.1,0.1l-0.6,0.4
			c-6.9,5.1-11.5,8.3-12.9,8.9c-2.2,1.4-4.7,2.6-7.2,3.7c-2.5,1-5.1,1.9-7.7,2.6C682,710.1,599.2,729.9,502.6,694.8z M260.7,307.2
			l-2.7,1.1c-9.9,4.2-18.3,11.7-23.6,21.1c-5.4,9.4-6.2,20.9-2.1,30.9l37.5,88.2C408,774.6,676.6,710.4,688,707.5
			c2.6-0.7,5.1-1.6,7.5-2.6c2.4-1,4.8-2.2,7.1-3.6c1.3-0.6,5.8-3.7,12.2-8.4l-0.1-0.1l0.6-0.4c40.3-29.8,168.7-143.6,129.6-354.6
			l-0.1-0.5c-7.7-40.3-19.9-79.8-36.2-117.4L771,131.6c-4.6-10-13.4-17.1-24.1-19.7c-10.6-2.8-22-1.9-32,2.4l-2.8,1.2
			c-0.1,0-0.4,0.2-0.9,0.4c-2.2,1.1-8.1,3.9-16.6,7.5c-27.8,11.9-56.8,21.2-86.4,27.5c-34.4,6.8-80.3-3.2-107.7-9.1
			c-8.5-1.8-15.2-3.3-19.3-3.8c-17.7-1.8-34.8,5.4-45.8,19.4c-0.1,0.1-0.6,1.2-1.3,2.5c-23,45.3-49,78.8-75.2,96.8
			c-25.3,16.9-52.3,31.5-80.4,43.3C266.6,305.2,261.9,307.1,260.7,307.2z"/>
	</g>
	<g id="路径_2009-2">
		<path class="st1" d="M492.2,668.6c-72.9-26.5-154.4-87.7-211.4-222.1l-33.8-79.7c-3.8-9.3-3.1-20.1,2-28.8
			c4.9-8.7,12.7-15.6,21.8-19.5l2.7-1.1l0.1,0c0.8,0,7.5-2.8,15.9-6.4c25.3-10.6,49.7-23.7,72.5-39c23.5-16.2,46.8-46.3,67.6-87.1
			c0.8-1.6,1.1-2.2,1.3-2.4c10.2-12.9,26-19.6,42.3-18c3.7,0.4,9.8,1.7,17.5,3.4c24.7,5.4,66,14.3,96.9,8.2
			c26.6-5.7,52.8-14,77.8-24.8c7.6-3.2,12.9-5.8,14.9-6.7c0.5-0.2,0.8-0.4,0.9-0.4l2.5-1.1c9.3-4,19.8-4.8,29.6-2.2
			c10,2.4,18.1,9,22.4,18.3l33.9,79.8c14.7,34.1,25.7,69.8,32.7,106.3l0.1,0.5c35.3,190.3-79.7,293.3-116.9,321l0.1,0.1l-0.6,0.4
			c-3.6,2.7-9.9,7.3-11.6,8c-2,1.3-4.2,2.4-6.5,3.3c-2.3,0.9-4.6,1.7-6.9,2.4C654.3,682.4,579.4,700.3,492.2,668.6z M273.6,318.3
			l-2.4,1c-9,3.8-16.6,10.6-21.3,19.1c-4.9,8.4-5.6,18.9-1.9,27.9l33.8,79.7c125,294.5,367.7,236.5,377.9,233.8
			c2.3-0.6,4.6-1.4,6.8-2.3c2.2-0.9,4.4-2,6.4-3.3c1.2-0.5,5.2-3.3,10.9-7.5l-0.1-0.1l0.6-0.4c36.4-27,152.4-129.7,117.1-320.4
			l-0.1-0.5c-7-36.4-18-72.1-32.7-106.1l-33.9-79.7c-4.1-9-12.1-15.5-21.7-17.8c-9.6-2.5-19.8-1.8-28.9,2.2l-2.5,1.1
			c-0.1,0-0.4,0.2-0.8,0.4c-2,1-7.3,3.5-15,6.7c-25.1,10.8-51.3,19.1-78.1,24.8c-31.1,6.1-72.5-2.9-97.3-8.2
			c-7.7-1.7-13.8-3-17.4-3.4c-16-1.6-31.4,4.9-41.3,17.6c-0.1,0.1-0.6,1.1-1.2,2.3c-20.8,41-44.3,71.2-67.9,87.5
			c-22.8,15.3-47.3,28.5-72.6,39.1C279,316.5,274.8,318.2,273.6,318.3z"/>
	</g>
	<g id="路径_2007-2">
		<path class="st1" d="M489.7,652.4c-66.9-24.4-141.8-80.6-194.2-204l-31.1-73.2c-3.5-8.6-2.8-18.5,1.8-26.5
			c4.5-8,11.6-14.3,20.1-17.9l2.5-1l0.1,0c0.7,0,6.8-2.6,14.6-5.9C326.6,314.1,349,302,370,288c21.6-14.8,43-42.5,62.1-80
			c0.8-1.5,1-2.1,1.2-2.2c9.3-11.9,23.9-18.1,38.9-16.5c3.4,0.4,9,1.6,16.1,3.1c22.7,4.9,60.6,13.1,89,7.6
			c24.5-5.2,48.5-12.9,71.5-22.7c7-3,11.9-5.3,13.7-6.2c0.4-0.2,0.7-0.3,0.8-0.4l2.3-1c8.5-3.7,18.2-4.4,27.2-2.1
			c9.2,2.2,16.7,8.3,20.6,16.9l31.1,73.3c13.5,31.3,23.7,64.1,30.1,97.6l0.1,0.4c32.4,174.8-73.2,269.4-107.3,294.9l0.1,0.1
			l-0.6,0.4c-3.3,2.5-9.1,6.7-10.7,7.4c-1.8,1.1-3.9,2.2-5.9,3.1c-2.1,0.9-4.2,1.6-6.4,2.2C638.6,665.1,569.8,681.6,489.7,652.4z
			 M288.9,330.7l-2.2,0.9c-8.2,3.5-15.2,9.7-19.6,17.5c-4.5,7.7-5.1,17.3-1.8,25.6l31.1,73.2c114.8,270.5,337.7,217.2,347.1,214.8
			c2.1-0.6,4.2-1.3,6.3-2.1c2-0.9,4-1.9,5.9-3c1.1-0.5,4.8-3,10-6.9l-0.1-0.1l0.6-0.4c33.4-24.7,140-119.1,107.5-294.2l-0.1-0.4
			c-6.4-33.4-16.5-66.2-30-97.4l-31.1-73.2c-3.8-8.3-11.1-14.2-19.9-16.3c-8.8-2.3-18.2-1.6-26.5,2l-2.3,1c-0.1,0-0.3,0.2-0.7,0.4
			c-1.8,0.9-6.7,3.2-13.8,6.2c-23.1,9.9-47.2,17.6-71.7,22.8c-28.6,5.6-66.6-2.6-89.4-7.6c-7.1-1.5-12.6-2.7-16-3.1
			c-14.7-1.5-28.8,4.5-37.9,16.1c-0.1,0.1-0.5,1-1.1,2.1c-19.1,37.7-40.7,65.4-62.4,80.4c-21,14.1-43.4,26.2-66.7,35.9
			C293.2,329.3,289.9,330.6,288.9,330.7z"/>
	</g>
	<g id="路径_2005-2">
		<path class="st1" d="M501.2,691.6c-82.7-30.1-175.1-99.5-239.9-251.9l-38.4-90.5c-4.3-10.6-3.5-22.8,2.3-32.7
			c5.6-9.8,14.3-17.7,24.8-22.1l3-1.3l0.1,0c0.9,0,8.5-3.2,18.1-7.3c28.7-12,56.4-27,82.2-44.3c26.6-18.3,53.2-52.5,76.7-98.9
			c0.9-1.9,1.3-2.5,1.4-2.7c11.5-14.7,29.4-22.2,47.9-20.3c4.2,0.5,11.1,2,19.9,3.9c28,6.1,74.8,16.2,109.9,9.4
			c30.2-6.5,59.9-15.9,88.3-28.1c8.7-3.7,14.7-6.5,17-7.6c0.5-0.3,0.9-0.4,1-0.5l2.9-1.2c10.5-4.6,22.4-5.5,33.5-2.5
			c11.3,2.7,20.5,10.2,25.4,20.8l38.4,90.5c16.7,38.7,29.2,79.2,37.2,120.6l0.1,0.5c40.1,216-90.6,332.9-132.7,364.2l0.1,0.1
			l-0.6,0.4c-7.1,5.3-11.8,8.5-13.2,9.1c-2.3,1.4-4.8,2.7-7.3,3.8c-2.6,1.1-5.2,2-7.9,2.7C685.1,707.3,600.1,727.7,501.2,691.6z
			 M253.1,294.3l-2.8,1.2c-10.2,4.3-18.8,12-24.2,21.7c-5.6,9.6-6.4,21.5-2.2,31.7l38.4,90.5c141.9,334.2,417.3,268.3,428.9,265.4
			c2.6-0.7,5.2-1.6,7.7-2.6s5-2.3,7.3-3.7c1.4-0.6,6-3.8,12.5-8.6l-0.1-0.1l0.6-0.4c41.3-30.6,173-147.2,132.8-363.6l-0.1-0.5
			c-7.9-41.3-20.4-81.8-37.1-120.4l-38.4-90.5c-4.7-10.2-13.7-17.6-24.7-20.2c-10.9-2.9-22.5-2-32.9,2.5l-2.9,1.2
			c-0.1,0-0.4,0.2-0.9,0.4c-2.3,1.1-8.3,4-17,7.7c-28.5,12.2-58.3,21.7-88.5,28.2c-35.3,6.9-82.3-3.3-110.3-9.4
			c-8.7-1.9-15.6-3.4-19.8-3.9c-18.1-1.9-35.7,5.6-47,19.9c-0.1,0.1-0.6,1.2-1.3,2.6c-23.6,46.5-50.3,80.8-77.1,99.3
			c-25.9,17.4-53.6,32.3-82.4,44.4C259.1,292.2,254.4,294.2,253.1,294.3z"/>
	</g>
	<g id="路径_2001-2">
		<path class="st1" d="M503,687.4c-78.1-28.4-165.5-94-226.7-238.1L240,363.8c-4.1-10-3.3-21.5,2.1-30.9
			c5.3-9.3,13.6-16.7,23.4-20.9l2.8-1.2l0.1,0c0.8,0,8-3,17.1-6.9c27.1-11.4,53.3-25.5,77.7-41.8c25.2-17.3,50.2-49.6,72.5-93.4
			c0.9-1.8,1.2-2.4,1.4-2.6c10.9-13.8,27.8-21,45.3-19.2c4,0.5,10.5,1.9,18.8,3.7c26.5,5.7,70.7,15.3,103.9,8.8
			c28.5-6.1,56.6-15,83.5-26.5c8.2-3.5,13.9-6.2,16-7.2c0.5-0.2,0.8-0.4,0.9-0.4l2.7-1.1c9.9-4.3,21.2-5.2,31.7-2.4
			c10.7,2.5,19.4,9.7,24,19.7l36.3,85.5c15.8,36.5,27.6,74.8,35.1,113.9l0.1,0.5c37.9,204.1-85.6,314.5-125.3,344.2l0.1,0.1
			l-0.6,0.4c-3.9,2.9-10.6,7.8-12.5,8.6c-2.2,1.3-4.5,2.6-6.9,3.6c-2.4,1-4.9,1.9-7.4,2.5C676.8,702.2,596.5,721.4,503,687.4z
			 M268.6,311.9L266,313c-9.6,4.1-17.8,11.3-22.9,20.4c-5.3,9.1-6,20.3-2.1,30l36.3,85.5c134,315.8,394.2,253.5,405.2,250.7
			c2.5-0.7,4.9-1.5,7.3-2.5c2.4-1,4.7-2.2,6.9-3.5c1.3-0.5,5.6-3.5,11.8-8.1l-0.1-0.1l0.6-0.4c39-28.9,163.4-139.1,125.5-343.5
			l-0.1-0.5c-7.5-39-19.3-77.3-35-113.7l-36.3-85.5c-4.5-9.7-12.9-16.6-23.3-19.1c-10.3-2.7-21.3-1.9-31,2.4l-2.7,1.1
			c-0.1,0-0.4,0.2-0.9,0.4c-2.1,1-7.9,3.7-16.1,7.2c-26.9,11.5-55,20.5-83.7,26.6c-33.4,6.5-77.8-3.1-104.3-8.8
			c-8.2-1.8-14.7-3.2-18.7-3.6c-17.1-1.8-33.7,5.3-44.3,18.8c-0.1,0.1-0.6,1.1-1.3,2.4c-22.3,43.9-47.5,76.4-72.8,93.8
			c-24.5,16.4-50.7,30.5-77.9,41.9C274.4,309.9,269.8,311.8,268.6,311.9z"/>
	</g>
	<g id="路径_2011">
		<path class="st1" d="M504.3,615.1c-58.2-21.2-123.4-70.1-169-177.5l-27-63.7c-3.1-7.5-2.5-16.1,1.6-23.1
			c3.9-7,10.2-12.5,17.5-15.6l2.2-0.9l0.1,0c0.7,0,5.9-2.3,12.6-5.1c20.2-8.5,39.7-19,57.9-31.2c18.7-12.9,37.4-37,54-69.6
			c0.7-1.4,0.9-1.8,1-2c8.1-10.4,20.8-15.7,33.9-14.4c3,0.3,7.8,1.4,14,2.7c19.7,4.3,52.7,11.4,77.4,6.6
			c21.3-4.5,42.2-11.2,62.2-19.8c6.1-2.6,10.3-4.6,11.9-5.4c0.4-0.2,0.6-0.3,0.7-0.3l2-0.9c7.4-3.2,15.9-3.9,23.7-1.8
			c8,1.9,14.6,7.3,18,14.7l27.1,63.7c11.8,27.2,20.6,55.8,26.2,84.9l0.1,0.4c28.2,152-63.5,234.3-93.3,256.5l0.1,0.1l-0.5,0.4
			c-2.9,2.3-6.1,4.5-9.3,6.4c-1.7,1-3.4,1.9-5.2,2.7c-1.8,0.8-3.7,1.4-5.6,1.9C633.9,626.1,574.1,640.5,504.3,615.1z M329.7,335.2
			l-1.9,0.8c-7.2,3-13.2,8.4-17,15.2c-3.9,6.7-4.5,15-1.5,22.2l27,63.7C436.1,672.4,629.9,626,638.1,624c1.8-0.5,3.7-1.1,5.4-1.9
			c1.8-0.7,3.5-1.6,5.1-2.6c3-1.8,5.9-3.8,8.6-5.9l-0.1-0.1l0.6-0.4c29.1-21.5,121.8-103.6,93.5-255.9l-0.1-0.4
			c-5.6-29.1-14.4-57.6-26.1-84.7l-27-63.7c-3.3-7.2-9.6-12.3-17.3-14.1c-7.6-2-15.8-1.4-23,1.7l-2,0.9c-0.1,0-0.3,0.1-0.6,0.3
			c-1.6,0.8-5.9,2.8-12,5.4c-20.1,8.6-41,15.3-62.4,19.8c-24.9,4.9-58-2.3-77.8-6.6c-6.1-1.3-11-2.4-13.9-2.7
			c-12.7-1.3-25,3.9-32.9,14c-0.1,0.1-0.5,0.9-0.9,1.8c-16.6,32.8-35.4,57-54.3,69.9C382.5,311,363,321.5,342.7,330
			C333.4,334,330.6,335.2,329.7,335.2z"/>
	</g>
	<g id="路径_1994">
		<path class="st1" d="M502.2,578c-46.2-16.8-97.9-55.6-134.1-140.9l-21.5-50.5c-2.4-6-2-12.9,1.3-18.5c3.1-5.5,8.1-10,13.9-12.4
			l1.7-0.7l0.1,0c0.5,0,4.7-1.8,10-4c16-6.7,31.5-15.1,45.9-24.7c14.8-10.2,29.6-29.3,42.8-55.1c0.5-1.1,0.7-1.4,0.8-1.6
			c6.5-8.3,16.6-12.5,27-11.5c2.4,0.3,6.2,1.1,11.1,2.2c15.6,3.4,41.8,9.1,61.3,5.2c16.9-3.6,33.5-8.9,49.3-15.7
			c4.9-2.1,8.2-3.7,9.5-4.3c0.3-0.1,0.5-0.2,0.5-0.3l1.6-0.7c5.9-2.6,12.6-3.1,18.9-1.4c6.4,1.5,11.6,5.8,14.3,11.7l21.5,50.6
			c9.3,21.6,16.3,44.3,20.8,67.4l0.1,0.3C721.4,493.7,648.7,559,625,576.7l-0.4,0.4c-2.3,1.8-4.8,3.6-7.4,5.1
			c-1.3,0.8-2.7,1.5-4.2,2.1c-1.4,0.6-2.9,1.1-4.4,1.5C605.1,586.7,557.6,598.1,502.2,578z M363.8,356l-1.5,0.6
			c-5.6,2.4-10.4,6.7-13.4,12c-3.1,5.3-3.5,11.9-1.2,17.5l21.5,50.5c79.2,186.5,232.8,149.8,239.3,148.1c1.5-0.4,2.9-0.9,4.3-1.5
			c1.4-0.6,2.7-1.3,4-2.1c2.3-1.4,4.6-2.9,6.7-4.6l0,0l0.5-0.5c23.1-17.1,96.5-82.1,74.1-202.9l-0.1-0.3
			c-4.4-23-11.4-45.7-20.7-67.2l-21.4-50.5c-2.6-5.6-7.6-9.7-13.6-11.1c-6-1.6-12.5-1.1-18.2,1.4l-1.6,0.7c-0.1,0-0.2,0.1-0.5,0.2
			c-1.3,0.6-4.6,2.2-9.5,4.3c-15.9,6.8-32.6,12.1-49.5,15.7c-19.8,3.9-46.1-1.8-61.8-5.2c-4.9-1.1-8.7-1.9-11-2.1
			c-10-1-19.8,3.1-26,11c-0.1,0.1-0.4,0.7-0.7,1.4c-13.2,26-28.1,45.2-43.1,55.5c-14.5,9.7-30,18.1-46.1,24.8
			C366.7,355,364.5,355.9,363.8,356z"/>
	</g>
	<g id="路径_2003">
		<path class="st1" d="M493.7,628.3c-62.5-22.7-132.3-75.1-181.2-190.3l-29-68.3c-3.3-8-2.6-17.3,1.7-24.8
			c4.2-7.5,10.9-13.4,18.8-16.7l2.3-1l0.1,0c0.7,0,6.4-2.4,13.6-5.5c21.7-9.1,42.6-20.4,62.1-33.4c20.1-13.8,40.1-39.6,57.9-74.6
			c0.7-1.4,1-1.9,1.1-2.1c8.7-11.1,22.3-16.9,36.3-15.4c3.2,0.4,8.4,1.5,15,2.9c21.1,4.6,56.5,12.3,83,7.1
			c22.8-4.9,45.3-12,66.7-21.2c6.6-2.8,11.1-4.9,12.8-5.8c0.4-0.2,0.6-0.3,0.7-0.3l2.2-0.9c8-3.5,17-4.1,25.4-1.9
			c8.6,2,15.6,7.8,19.3,15.8l29,68.3c12.6,29.2,22.1,59.8,28.1,91.1l0.1,0.4c30.3,163-68.2,251.3-100.1,275.1l0.1,0.1l-0.6,0.4
			c-3.1,2.3-8.5,6.3-10,6.9c-1.7,1.1-3.6,2-5.5,2.9c-1.9,0.8-3.9,1.5-6,2C632.7,640.2,568.5,655.5,493.7,628.3z M306.5,328.2
			l-2.1,0.9c-7.7,3.3-14.2,9-18.3,16.3c-4.2,7.2-4.8,16.1-1.6,23.8l29,68.3c107.1,252.3,315,202.6,323.8,200.3c2-0.5,3.9-1.2,5.8-2
			c1.9-0.8,3.7-1.7,5.5-2.8c1-0.4,4.4-2.8,9.3-6.4l-0.1-0.1l0.6-0.4c31.2-23.1,130.6-111.1,100.3-274.5l-0.1-0.4
			c-6-31.2-15.4-61.7-28-90.9l-29-68.3c-3.5-7.7-10.3-13.2-18.6-15.2c-8.2-2.2-17-1.5-24.7,1.9l-2.2,0.9c-0.1,0-0.3,0.1-0.7,0.3
			c-1.7,0.8-6.3,3-12.8,5.8c-21.5,9.2-44,16.4-66.9,21.3c-26.7,5.2-62.2-2.5-83.4-7.1c-6.6-1.4-11.8-2.6-14.9-2.9
			c-13.7-1.4-26.9,4.2-35.4,15c-0.1,0.1-0.5,0.9-1,1.9c-17.8,35.1-38,61.1-58.2,75c-19.6,13.1-40.5,24.4-62.3,33.5
			C310.4,326.9,307.4,328.2,306.5,328.2z"/>
	</g>
	<g id="路径_1998">
		<path class="st1" d="M509.8,596.2c-50.5-18.3-106.9-60.7-146.4-153.7L340,387.3c-2.6-6.5-2.1-13.9,1.4-20
			c3.4-6,8.8-10.8,15.1-13.5l1.9-0.8l0.1,0c0.6,0,5.1-2,11-4.4c17.5-7.4,34.4-16.4,50.1-27c16.2-11.2,32.4-32,46.8-60.3
			c0.6-1.1,0.8-1.5,0.9-1.7c7-9,18-13.6,29.3-12.4c2.6,0.3,6.8,1.2,12.1,2.4c17.1,3.7,45.6,9.9,67,5.7c18.4-3.9,36.5-9.7,53.9-17.1
			c5.3-2.3,9-4,10.3-4.6c0.3-0.2,0.5-0.3,0.6-0.3l1.8-0.7c6.4-2.8,13.7-3.3,20.5-1.6c6.9,1.6,12.6,6.3,15.6,12.7l23.4,55.2
			c10.2,23.6,17.8,48.3,22.7,73.6l0.1,0.3c24.5,131.7-55.1,203-80.9,222.2l0.1,0.1l-0.4,0.3c-2.5,2-5.3,3.9-8,5.5
			c-1.4,0.9-3,1.7-4.5,2.3c-1.6,0.6-3.2,1.2-4.8,1.6C622,605.7,570.2,618.2,509.8,596.2z M358.5,353.8l-1.7,0.7
			c-6.2,2.6-11.4,7.3-14.8,13.2c-3.4,5.8-3.9,13-1.3,19.3l23.4,55.2C450.6,645.9,618.6,605.8,625.7,604c1.6-0.4,3.2-1,4.7-1.6
			c1.5-0.6,3-1.4,4.4-2.3c2.6-1.6,5.1-3.3,7.5-5.2l-0.1-0.1l0.4-0.3c25.2-18.7,105.5-89.7,81-221.7l-0.1-0.3
			c-4.8-25.2-12.4-49.9-22.6-73.4l-23.4-55.2c-2.9-6.2-8.3-10.7-15-12.3c-6.6-1.8-13.7-1.2-20,1.5l-1.8,0.7c-0.1,0-0.3,0.1-0.6,0.3
			c-1.4,0.7-5.1,2.4-10.4,4.7c-17.4,7.5-35.5,13.2-54,17.2c-21.6,4.2-50.2-2-67.4-5.7c-5.3-1.1-9.5-2.1-12-2.4
			c-11-1.1-21.7,3.4-28.6,12.1c-0.1,0.1-0.4,0.7-0.8,1.6c-14.4,28.4-30.7,49.3-47,60.6c-15.8,10.6-32.7,19.7-50.3,27.1
			C361.8,352.7,359.3,353.7,358.5,353.8z"/>
	</g>
	<g id="路径_1996">
		<path class="st1" d="M509.2,597.7c-54.7-19.9-115.8-65.8-158.6-166.6l-25.4-59.8c-2.9-7-2.3-15.2,1.5-21.7
			c3.7-6.5,9.5-11.7,16.4-14.7l2-0.9l0.1,0c0.6,0,5.5-2.1,11.8-4.8c19-8,37.3-17.8,54.4-29.3c12.3-8.4,31-26.6,50.6-65.3
			c0.6-1.3,0.9-1.7,1-1.8c7.6-9.7,19.5-14.8,31.8-13.5c2.8,0.3,7.4,1.3,13.2,2.6c18.5,4,49.4,10.7,72.6,6.2
			c20-4.3,39.6-10.5,58.3-18.6c5.7-2.4,9.7-4.3,11.2-5c0.4-0.2,0.6-0.3,0.6-0.3l1.9-0.8c7-3,14.9-3.6,22.3-1.7
			c7.5,1.8,13.7,6.8,16.9,13.8l25.4,59.8c11,25.5,19.3,52.4,24.6,79.7l0.1,0.3c26.5,142.6-59.5,219.8-87.6,240.7l0.1,0.1l-0.5,0.4
			c-2.8,2.2-5.7,4.2-8.7,6c-1.6,1-3.2,1.8-4.9,2.5c-1.7,0.7-3.4,1.3-5.2,1.8C630.8,608,574.7,621.5,509.2,597.7z M345.4,335.1
			l-1.8,0.8c-6.7,2.8-12.4,7.9-15.9,14.2c-3.6,6.3-4.2,14.1-1.4,20.8l25.4,59.8c93.7,220.7,275.5,177.2,283.2,175.3
			c1.7-0.5,3.4-1.1,5.1-1.7c1.6-0.7,3.3-1.5,4.8-2.5c2.8-1.7,5.5-3.5,8.1-5.5l-0.1-0.1l0.6-0.4c27.3-20.2,114.2-97.2,87.7-240.1
			l-0.1-0.3c-5.2-27.3-13.5-54-24.5-79.5L690.9,216c-3.1-6.7-9-11.5-16.2-13.2c-7.2-1.9-14.8-1.3-21.6,1.6l-1.9,0.8
			c-0.1,0-0.3,0.1-0.6,0.3c-1.5,0.7-5.5,2.6-11.2,5c-18.8,8.1-38.5,14.3-58.5,18.6c-23.4,4.6-54.5-2.2-73-6.2
			c-5.8-1.3-10.3-2.2-13-2.5c-11.9-1.2-23.5,3.7-30.9,13.1c-0.1,0.1-0.4,0.8-0.9,1.7c-15.6,30.8-33.3,53.5-51,65.6
			c-17.1,11.5-35.5,21.4-54.5,29.4C348.9,333.9,346.2,335,345.4,335.1z"/>
	</g>
	<g id="路径_1998-2">
		<path class="st1" d="M509,591.3c-51.8-18.9-109.8-62.4-150.4-158l-24.1-56.7c-2.7-6.7-2.2-14.3,1.4-20.5c3.5-6.2,9-11.1,15.6-13.9
			l1.9-0.8l0.1,0c0.6,0,5.3-2,11.2-4.5c18-7.6,35.4-16.9,51.6-27.8c16.7-11.5,33.3-32.9,48.1-61.9c0.6-1.2,0.8-1.6,0.9-1.7
			c7.2-9.2,18.5-14,30.1-12.8c2.6,0.3,7,1.2,12.5,2.4c17.5,3.8,46.9,10.2,68.9,5.9c18.9-4,37.6-10,55.4-17.6
			c5.4-2.3,9.2-4.1,10.6-4.8c0.3-0.2,0.5-0.3,0.6-0.3l1.8-0.8c6.6-2.9,14.1-3.4,21.1-1.6c7.1,1.7,12.9,6.4,16,13.1l24.1,56.7
			c10.5,24.2,18.3,49.7,23.3,75.6l0.1,0.3C754.8,497,673,570.3,646.5,590l0.1,0.1l-0.4,0.3c-2.6,2.1-5.4,4-8.3,5.7
			c-1.5,0.9-3,1.7-4.6,2.4c-1.6,0.7-3.3,1.2-5,1.7C624.4,601.1,571.1,613.9,509,591.3z M353.6,342.3l-1.7,0.7
			c-6.4,2.7-11.8,7.5-15.2,13.5c-3.5,6-4,13.4-1.4,19.8l24.1,56.7c88.9,209.4,261.5,168.2,268.8,166.3c1.6-0.4,3.3-1,4.8-1.6
			c1.6-0.7,3.1-1.4,4.5-2.3c2.7-1.6,5.3-3.4,7.8-5.3l-0.1-0.1l0.4-0.3c25.9-19.2,108.4-92.2,83.2-227.8l-0.1-0.3
			c-5-25.9-12.8-51.2-23.2-75.4l-24.1-56.7c-2.9-6.4-8.6-11-15.4-12.6c-6.8-1.8-14.1-1.3-20.5,1.5l-1.8,0.8c-0.1,0-0.3,0.1-0.6,0.3
			c-1.4,0.7-5.2,2.5-10.7,4.8c-17.8,7.7-36.5,13.6-55.5,17.7c-22.1,4.3-51.6-2-69.2-5.9c-5.5-1.2-9.8-2.1-12.4-2.4
			C484,232.3,473,237,466,246c-0.1,0.1-0.4,0.8-0.8,1.6c-14.8,29.1-31.5,50.7-48.3,62.2c-16.2,10.9-33.6,20.3-51.7,27.8
			C356.9,341.1,354.4,342.2,353.6,342.3z"/>
	</g>
	<g id="路径_2010">
		<path class="st1" d="M494.3,699.4c-86-31.3-182.3-103.5-249.6-262.2l-40-94.2c-4.5-11-3.6-23.7,2.4-34c5.8-10.2,14.9-18.4,25.8-23
			l3.1-1.3l0.1,0c0.9,0,8.8-3.3,18.8-7.6c29.9-12.6,58.7-28.1,85.6-46.1c19.3-13.3,48.9-42,79.8-102.9c1-2,1.4-2.6,1.5-2.9
			c12-15.2,30.6-23.1,49.8-21.2c4.4,0.5,11.6,2.1,20.7,4c29.1,6.3,77.9,16.9,114.4,9.7c31.5-6.7,62.4-16.6,92-29.2
			c9-3.8,15.3-6.8,17.6-7.9c0.6-0.3,0.9-0.4,1-0.5l3-1.3c10.9-4.8,23.3-5.7,34.9-2.6C767,79.1,776.6,87,781.7,98l40,94.2
			c17.4,40.2,30.4,82.4,38.7,125.5l0.1,0.5c41.7,224.9-94.4,346.5-138.1,379.1l0.1,0.1l-0.6,0.4c-7.4,5.5-12.2,8.8-13.7,9.5
			c-2.4,1.5-5,2.8-7.6,3.9c-2.7,1.1-5.4,2-8.2,2.8C685.7,715.7,597.3,736.8,494.3,699.4z M236.1,285.8l-2.9,1.2
			c-10.6,4.5-19.6,12.5-25.2,22.5c-5.8,10-6.7,22.3-2.3,33l40,94.1C393.3,784.6,680,716,692.1,713c2.7-0.7,5.4-1.7,8.1-2.7
			c2.6-1.1,5.1-2.4,7.6-3.9c1.4-0.6,6.1-3.9,13-9l-0.1-0.1l0.6-0.4c43-31.8,180.1-153.2,138.3-378.4l-0.1-0.5
			c-8.2-43-21.2-85.1-38.6-125.3l-40-94.2c-4.9-10.7-14.3-18.3-25.7-21c-11.3-3-23.5-2.1-34.2,2.6l-3,1.3c-0.1,0-0.4,0.2-1,0.5
			c-2.4,1.1-8.7,4.1-17.7,8c-29.6,12.7-60.6,22.6-92.2,29.3c-36.7,7.2-85.6-3.4-114.9-9.7c-9.1-2-16.2-3.5-20.6-4
			c-18.9-1.9-37.2,5.8-48.9,20.8c-0.1,0.2-0.7,1.3-1.4,2.7c-24.6,48.4-52.3,84.1-80.2,103.3c-27,18.1-55.8,33.6-85.8,46.2
			C242.4,283.6,237.4,285.7,236.1,285.8z"/>
	</g>
	<g id="路径_2008">
		<path class="st1" d="M486.2,747.2C379.6,708.4,260.4,619.1,177,423.1l-49.6-116.4c-5.6-13.7-4.5-29.4,2.9-42.1
			c7.2-12.7,18.6-22.8,32-28.5l3.9-1.7l0.2,0c1.2,0,10.9-4.1,23.2-9.4c37.1-15.5,72.8-34.7,106.1-57c34.4-23.6,68.6-67.6,98.9-127.1
			c1.2-2.4,1.7-3.3,1.9-3.5c14.9-18.9,38-28.7,61.9-26.2c5.5,0.6,14.4,2.5,25.7,5c36.1,7.8,96.6,20.9,141.8,12
			C665,19.9,703.4,7.7,740-8c11.2-4.8,19-8.4,21.9-9.8c0.7-0.3,1.1-0.5,1.2-0.6l3.7-1.6c13.6-5.9,29-7,43.3-3.3
			c14.6,3.4,26.6,13.2,32.9,26.8l49.6,116.4c21.6,49.7,37.7,101.9,47.9,155.1l0.2,0.7c22.1,118.8,6.9,227.3-45.3,322.8
			c-41.9,76.6-96.4,124.1-125.8,145.9l0.2,0.1l-0.9,0.6c-5.3,3.9-14.4,10.6-17,11.7c-3,1.9-6.2,3.5-9.5,4.9
			c-3.3,1.4-6.7,2.5-10.2,3.5C724,767.5,614.1,793.7,486.2,747.2z M166.5,236l-3.6,1.5c-13.1,5.5-24.2,15.4-31.2,27.8
			c-7.2,12.3-8.2,27.5-2.8,40.7l49.6,116.4c183,429.9,538.3,345.2,553.4,341.4c3.4-0.9,6.7-2,10-3.4c3.2-1.4,6.4-3,9.4-4.8l0.1-0.1
			c1.6-0.7,7.5-4.8,15.9-10.9l-0.2-0.1l0.9-0.6c29.1-21.5,84.1-69,126.2-146c52-95.1,67.2-203.3,45.1-321.7l-0.2-0.7
			c-10.2-53.1-26.3-105.2-47.8-154.8L841.6,4.3c-6.1-13.1-17.7-22.6-31.8-25.9c-14-3.7-29-2.6-42.3,3.2l-3.7,1.6
			c-0.1,0.1-0.5,0.2-1.2,0.5c-2.9,1.4-10.7,5.1-22,9.8c-36.7,15.7-75.2,27.9-114.3,36.2c-45.6,8.9-106.2-4.2-142.5-12
			c-11.3-2.4-20.1-4.4-25.5-5c-23.3-2.4-46,7.2-60.5,25.6c-0.1,0.2-0.8,1.6-1.7,3.3c-30.5,59.8-64.9,104-99.5,127.8
			c-33.5,22.4-69.3,41.6-106.4,57.1C174.5,233.2,168.3,235.8,166.5,236z"/>
	</g>
	<g id="路径_2006">
		<path class="st1" d="M483.6,732.9c-101-36.7-213.8-121.3-292.8-306.9l-47-110.3c-5.3-12.9-4.2-27.7,2.8-39.7
			c6.8-12,17.5-21.5,30.2-26.9l3.6-1.5l0.1,0c1,0,10.4-3.9,22.1-8.9c35.1-14.7,68.9-32.9,100.6-54c32.6-22.4,65-64.1,93.8-120.6
			c1.1-2.2,1.6-3.1,1.8-3.3c14.1-17.8,35.9-27.1,58.5-24.8c5.1,0.6,13.6,2.4,24.3,4.7c34.2,7.4,91.5,19.8,134.5,11.4
			c36.9-7.9,73.3-19.4,108-34.3c10.6-4.5,18-8,20.8-9.3c0.6-0.3,1-0.5,1.1-0.5l3.5-1.5c12.8-5.6,27.4-6.7,40.9-3.1
			c13.8,3.2,25,12.4,31,25.3l47,110.3c20.4,47.1,35.7,96.5,45.4,146.9l0.1,0.6c49.1,263.5-111,405.9-162.3,444l0.2,0.1l-0.6,0.4
			c-8.5,6.3-14.4,10.3-16.1,11.1c-2.8,1.7-5.9,3.3-9,4.6c-3.1,1.3-6.4,2.4-9.6,3.3C708.8,752.1,604.8,777,483.6,732.9z M180.6,248.6
			l-3.4,1.4c-12.5,5.3-23,14.7-29.7,26.4c-6.8,11.7-7.8,26.2-2.7,38.8l47,110.3c173.5,407.5,510.3,327.1,524.6,323.5
			c3.2-0.9,6.4-1.9,9.5-3.2c3.1-1.3,6.1-2.8,8.9-4.6c1.7-0.7,7.3-4.5,15.4-10.6l-0.2-0.1l0.6-0.4C801,692.9,962.1,550.8,913,286.9
			l-0.1-0.6c-9.7-50.3-25-99.7-45.4-146.7l-47-110.3c-5.8-12.5-16.8-21.5-30.3-24.7c-13.3-3.5-27.6-2.4-40.2,3l-3.5,1.5
			c-0.1,0.1-0.5,0.2-1.1,0.5c-2.8,1.3-10.2,4.8-20.8,9.3c-34.8,14.9-71.2,26.4-108.3,34.3c-43.1,8.4-100.6-4-134.9-11.4
			c-10.7-2.3-19.1-4.1-24.2-4.7c-22.2-2.3-43.7,6.8-57.5,24.4c-0.1,0.2-0.8,1.5-1.6,3.1c-28.9,56.6-61.4,98.5-94.2,120.9
			c-31.7,21.2-65.6,39.4-100.7,54.1C188.5,245.9,182.1,248.5,180.6,248.6z"/>
	</g>
	<g id="路径_2004">
		<path class="st1" d="M474.5,807C344.3,759.7,198.9,650.6,97,411.2L36.5,269c-6.8-16.5-5.4-35.6,3.5-51.1
			c8.7-15.4,22.5-27.7,38.9-34.6l4.6-2l0.1,0c1.3,0.1,13.3-5,28.6-11.5c45.2-19,88.9-42.4,129.6-69.7c42-28.9,83.9-82.6,121-155.5
			c1.4-2.8,2-3.9,2.2-4.3c18.1-23,46.2-34.9,75.2-31.9c6.6,0.8,17.5,3.1,31.3,6.1c44.1,9.5,118,25.5,173.4,14.7
			c47.6-10.2,94.5-25,139.3-44.2c13.7-5.8,23.2-10.3,26.8-12c0.8-0.4,1.3-0.6,1.5-0.7l4.5-1.9c16.5-7.2,35.2-8.6,52.6-4
			c17.7,4.2,32.2,16,39.8,32.5l60.5,142.2c26.3,60.7,46,124.5,58.5,189.5l0.2,0.8c14.6,78.3,15.8,154,3.5,225
			c-10.3,59.5-30,116.4-58.8,169.1c-51.3,93.9-118.3,152-154,178.5l0.2,0.2l-0.6,0.4c-11,8.1-18.5,13.3-20.7,14.3
			c-3.6,2.3-7.6,4.3-11.6,5.9c-4,1.7-8.2,3.1-12.4,4.2C764.5,831.7,630.5,863.7,474.5,807z M83.7,182.4l-4.4,1.9
			c-16.1,6.8-29.7,19-38.4,34.2c-8.8,15.2-10.1,33.9-3.5,50.1L98,410.8c223.7,525.6,657.9,422,676.3,417.3c4.1-1.1,8.3-2.5,12.2-4.2
			c4-1.6,7.8-3.6,11.5-5.9c2.2-0.9,9.4-5.9,20-13.8l-0.2-0.2l0.6-0.4c35.5-26.2,102.8-84.3,154.3-178.6
			c63.5-116.3,82.1-248.6,55.2-393.3l-0.2-0.8c-12.5-64.9-32.2-128.6-58.5-189.3l-60.5-142.2c-7.5-16.2-21.8-27.8-39.1-31.9
			c-17.2-4.5-35.6-3.1-52,3.9l-4.5,1.9c-0.2,0.1-0.6,0.3-1.4,0.7c-3.6,1.7-13.1,6.2-26.8,12C739.9-94.6,693-79.8,645.3-69.6
			c-55.6,10.9-129.6-5.1-173.8-14.7c-13.7-3-24.6-5.3-31.2-6.1c-28.7-3-56.4,8.8-74.3,31.5c-0.2,0.3-1,1.9-2.1,4.1
			c-37.2,73.1-79.2,127-121.3,155.9c-40.8,27.3-84.5,50.8-129.8,69.8C94.2,178.7,85.6,182.3,83.7,182.4z"/>
	</g>
	<g id="路径_2002">
		<path class="st1" d="M489.1,717.4c-94.8-34.5-200.7-114-274.9-288.7l-44-103.7c-5-12.2-4-26.2,2.6-37.6
			c6.4-11.3,16.5-20.3,28.5-25.4l3.5-1.5l0.2,0c1.1,0,9.7-3.7,20.5-8.3c32.9-13.8,64.6-30.9,94.2-50.7c30.5-21,60.9-60.1,87.8-113.2
			c1.1-2.1,1.5-2.9,1.7-3.2c13.2-16.8,33.8-25.6,55.1-23.4c4.9,0.5,12.8,2.3,22.8,4.4c32.1,6.9,85.7,18.6,125.9,10.7
			c34.6-7.4,68.6-18.2,101.2-32.2c9.9-4.2,16.8-7.5,19.4-8.7c0.6-0.3,1-0.5,1.1-0.5l3.3-1.4c12.1-5.3,25.8-6.3,38.5-2.9
			c13,3.1,23.6,11.8,29.2,23.9l44,103.7c19.2,44.3,33.5,90.8,42.6,138.2l0.1,0.6C938.3,544.8,789,678.8,740.6,714.9l0.2,0.1
			l-0.9,0.6c-4.7,3.5-12.8,9.4-15.1,10.4c-2.7,1.7-5.5,3.1-8.5,4.4c-2.9,1.2-6,2.3-9,3.1C699.9,735.4,602.5,758.7,489.1,717.4z
			 M205,262.2l-3.1,1.3c-11.6,4.9-21.5,13.7-27.7,24.7c-6.3,10.9-7.3,24.5-2.5,36.2l44,103.6c162.4,382.7,477.8,307.3,491.2,303.9
			c3-0.8,6-1.8,8.8-3c2.9-1.2,5.6-2.6,8.3-4.3l0.1-0.1c1.4-0.6,6.6-4.2,14-9.6l-0.2-0.1l0.9-0.6c47.3-35,198.1-168.5,152.1-416.3
			l-0.1-0.6c-9.1-47.3-23.4-93.6-42.5-137.8l-44-103.7c-5.4-11.7-15.6-20-28.2-23c-12.4-3.3-25.7-2.3-37.5,2.8l-3.3,1.4
			c-0.1,0-0.5,0.2-1.1,0.5c-2.6,1.2-9.5,4.5-19.5,8.8c-32.6,14-66.8,24.9-101.5,32.3c-40.5,7.9-94.3-3.7-126.5-10.7
			c-10-2.2-17.9-3.9-22.6-4.4c-20.7-2.1-40.8,6.4-53.6,22.8c-0.1,0.2-0.7,1.4-1.5,2.9c-27.1,53.3-57.6,92.6-88.3,113.8
			c-29.7,19.9-61.5,37-94.4,50.9C210.9,260.2,206.4,262.1,205,262.2z"/>
	</g>
	<g id="路径_2000">
		<path class="st1" d="M482.4,759.4c-113.4-41.3-240.2-136.3-329-344.9l-52.8-123.9c-5.9-14.4-4.7-31.1,3.1-44.6
			c7.6-13.4,19.7-24.2,33.9-30.2l4.1-1.7l0.1,0c1.1,0.1,11.6-4.4,24.9-10c39.4-16.5,77.4-36.9,113-60.7
			c36.6-25.1,73.1-72,105.4-135.5c1.2-2.4,1.8-3.4,2-3.7c15.8-20,40.3-30.4,65.6-27.8c5.8,0.6,15.3,2.7,27.3,5.3
			C518.6-10,583,4,631.2-5.5c41.5-8.8,82.4-21.8,121.4-38.5c12-5.1,20.2-9,23.3-10.5c0.7-0.3,1.1-0.5,1.3-0.6l3.9-1.7
			c14.4-6.2,30.7-7.5,45.9-3.5c15.4,3.6,28.1,14,34.8,28.4l52.8,124c23,52.9,40.1,108.5,51,165.1l0.2,0.7
			c23.5,126.3,7.3,241.9-48.2,343.4c-44.7,81.8-103,132.4-134.2,155.5l0.2,0.1l-0.6,0.4c-9.6,7.1-16.2,11.6-18.1,12.4
			c-3.2,2-6.6,3.7-10.1,5.2c-3.5,1.4-7.1,2.7-10.8,3.7C735.3,781,618.5,808.9,482.4,759.4z M141.9,215.2l-3.8,1.6
			c-14,5.9-25.9,16.5-33.4,29.7c-7.7,13.2-8.8,29.5-3,43.6l52.7,123.9C349.3,872,727.8,781.8,743.8,777.7c3.6-1,7.2-2.2,10.7-3.6
			c3.5-1.4,6.8-3.2,10-5.1c1.9-0.8,8.3-5.2,17.4-11.9l-0.2-0.1l0.6-0.4c31-22.9,89.6-73.5,134.5-155.6
			c55.4-101.3,71.5-216.6,48.1-342.7l-0.2-0.7c-10.9-56.6-28-112.1-51-164.9L860.9-31.4c-6.5-14.1-19-24.2-34.1-27.8
			c-15-3.9-31-2.7-45.2,3.4l-3.9,1.7c-0.1,0.1-0.6,0.3-1.3,0.6C773.3-52,765-48,753-43c-39.1,16.7-80,29.7-121.6,38.6
			c-48.5,9.5-113-4.5-151.5-12.8c-12-2.6-21.5-4.6-27.2-5.3c-25-2.6-49.2,7.7-64.7,27.4c-0.2,0.2-0.9,1.6-1.9,3.6
			c-32.4,63.6-69,110.6-105.8,135.9c-35.6,23.8-73.7,44.3-113.2,60.8C150.7,212.1,143.5,215.1,141.9,215.2z"/>
	</g>
	<g id="路径_2010-2">
		<path class="st1" d="M494.1,700.9c-90-32.7-190.6-108.2-261-274.2l-41.8-98.5c-4.7-11.5-3.8-24.8,2.5-35.5
			c6-10.7,15.6-19.2,26.9-24l3.3-1.4l0.1,0c0.9,0,9.2-3.5,19.6-7.9c31.3-13.1,61.4-29.4,89.5-48.2c29-20,57.9-57.2,83.5-107.6
			c1-2,1.4-2.7,1.6-3c12.5-15.9,32-24.2,52.1-22.1c4.6,0.5,12.1,2.1,21.7,4.2c30.5,6.6,81.5,17.7,119.6,10.2
			c32.9-7,65.2-17.3,96.1-30.6c9.4-4,16-7.1,18.5-8.3c0.6-0.3,0.9-0.4,1-0.5l3.1-1.3c11.4-5,24.4-5.9,36.4-2.8
			c12.3,2.9,22.3,11.1,27.6,22.6l41.8,98.5c18.2,42.1,31.8,86.2,40.4,131.2l0.1,0.6c43.7,235.2-98.7,362.4-144.4,396.4l0.2,0.1
			l-0.6,0.4c-7.7,5.7-12.8,9.2-14.4,9.9c-2.5,1.5-5.2,2.9-8,4.1c-2.8,1.1-5.7,2.1-8.6,2.9C694.2,717.9,601.8,740.1,494.1,700.9z
			 M224.1,268.4l-3,1.3c-11.1,4.7-20.5,13.1-26.4,23.6c-6.1,10.5-7,23.4-2.4,34.6l41.8,98.5c154.4,363.8,454.2,292.1,466.8,288.8
			c2.9-0.8,5.7-1.7,8.4-2.9c2.7-1.1,5.4-2.5,7.9-4.1c1.5-0.6,6.4-4,13.7-9.4l-0.2-0.1l0.6-0.4c45-33.3,188.3-160.2,144.6-395.7
			l-0.1-0.6c-8.6-44.9-22.2-89-40.4-131l-41.8-98.5c-5.1-11.1-14.9-19.2-26.9-22c-11.8-3.1-24.6-2.2-35.8,2.7l-3.1,1.3
			c-0.1,0-0.5,0.2-1,0.5c-2.5,1.2-9,4.3-18.5,8.3c-31,13.3-63.4,23.6-96.4,30.6c-38.4,7.5-89.5-3.6-120.1-10.2
			c-9.5-2.1-17-3.7-21.5-4.2c-19.8-2-38.9,6.1-51.2,21.7c-0.1,0.2-0.7,1.3-1.5,2.8c-25.7,50.6-54.7,87.9-83.8,108
			c-28.2,18.9-58.4,35.2-89.7,48.3C230.4,266.3,225.4,268.3,224.1,268.4z"/>
	</g>
	<g id="路径_2008-2">
		<path class="st1" d="M486.9,736.8c-104.2-37.9-220.6-125.2-302.1-316.6l-48.4-113.8c-5.4-13.2-4.3-28.5,2.8-40.8
			c7-12.3,18-22.2,31.1-27.7l3.7-1.6l0.1,0c1,0.1,10.7-4,22.9-9.2c36.2-15.2,71.1-33.9,103.8-55.7c33.6-23.1,67.2-66.1,96.9-124.5
			c1.1-2.2,1.6-3.1,1.8-3.4c14.5-18.4,37-27.9,60.2-25.5c5.3,0.6,14,2.5,25.1,4.9c35.3,7.6,94.5,20.4,138.8,11.8
			c38.1-8.1,75.7-20,111.5-35.4c11-4.6,18.6-8.3,21.4-9.6c0.7-0.3,1.1-0.5,1.2-0.6l3.6-1.5c13.2-5.7,28.2-6.9,42.1-3.2
			c14.1,3.3,25.8,12.8,31.9,26l48.5,113.8c21.1,48.6,36.8,99.6,46.9,151.6l0.2,0.7c21.6,116,6.7,222.1-44.2,315.3
			c-41.1,75.2-94.7,121.6-123.3,142.8l0.2,0.1l-0.4,0.3c-8.8,6.5-14.8,10.7-16.6,11.4c-2.9,1.8-6,3.4-9.3,4.8
			c-3.2,1.3-6.5,2.5-9.9,3.4C719.2,756.7,611.9,782.3,486.9,736.8z M174.2,237.1l-3.5,1.5c-12.9,5.4-23.8,15.2-30.7,27.3
			c-7.1,12.1-8.1,27.1-2.8,40.1l48.4,113.8c179,420.5,526.8,337.7,541.5,334c3.3-0.9,6.6-2,9.8-3.3c3.2-1.3,6.3-2.9,9.2-4.7
			c1.7-0.7,7.5-4.7,16.1-11l-0.2-0.1l0.4-0.3c28.4-21,82.3-67.5,123.5-142.9c50.9-93.1,65.7-199,44.2-314.7l-0.2-0.7
			c-10-52-25.7-102.9-46.8-151.4L834.6,10.7c-6-13-17.4-22.3-31.3-25.5c-13.8-3.6-28.5-2.5-41.6,3.1l-3.6,1.5
			c-0.1,0.1-0.5,0.2-1.2,0.5c-2.9,1.4-10.5,5-21.5,9.6c-35.9,15.4-73.5,27.3-111.7,35.4c-44.5,8.7-103.7-4.1-139.1-11.8
			c-11-2.4-19.7-4.3-25-4.9c-23-2.4-45.2,7-59.5,25.2c-0.1,0.2-0.8,1.5-1.7,3.3c-29.8,58.4-63.4,101.6-97.1,124.8
			c-32.7,21.8-67.7,40.6-103.9,55.8C182.5,234.1,175.6,237,174.2,237.1z"/>
	</g>
	<g id="路径_2006-2">
		<path class="st1" d="M491.3,730.9c-97.9-35.6-207.3-117.6-284-297.6l-45.5-106.9c-5.1-12.5-4.1-26.9,2.7-38.5
			c6.6-11.6,17-20.9,29.3-26.1l3.5-1.5l0.1,0c1,0,10-3.8,21.5-8.6c34-14.2,66.8-31.9,97.5-52.4c31.6-21.7,63.1-62.1,91-116.9
			c1.1-2.1,1.5-3,1.7-3.2c13.6-17.3,34.8-26.3,56.7-24c5,0.6,13.2,2.3,23.6,4.6c33.2,7.2,88.8,19.2,130.4,11.1
			c35.8-7.6,71.1-18.8,104.8-33.2c10.3-4.4,17.4-7.8,20.1-9c0.6-0.3,1-0.5,1.1-0.5l3.4-1.4c12.5-5.4,26.6-6.5,39.7-3
			c13.3,3.1,24.3,12.1,30.1,24.5l45.6,107c19.8,45.7,34.6,93.6,44,142.5l0.1,0.6c47.6,255.5-107.6,393.6-157.4,430.5l0.2,0.1
			l-0.6,0.4c-8.3,6.1-14,10-15.6,10.7c-2.7,1.7-5.7,3.2-8.7,4.5c-3,1.3-6.2,2.3-9.3,3.2C709.7,749.5,608.8,773.7,491.3,730.9z
			 M197.5,261.3l-3.3,1.4c-12.1,5.1-22.3,14.2-28.8,25.6c-6.6,11.4-7.6,25.4-2.6,37.6l45.5,106.9C376.6,828.1,703.2,750.1,717,746.6
			c3.1-0.8,6.2-1.9,9.2-3.1c3-1.2,5.9-2.7,8.6-4.4c1.6-0.7,7.1-4.5,14.9-10.2l-0.2-0.1l0.6-0.4c49-36.1,205.2-174,157.5-429.9
			l-0.1-0.6c-9.4-48.8-24.2-96.7-44-142.3L818,48.5c-5.6-12.1-16.3-20.8-29.4-23.9c-12.9-3.4-26.8-2.4-39,2.9l-3.4,1.4
			c-0.1,0.1-0.5,0.2-1.1,0.5c-2.7,1.3-9.8,4.7-20.2,9C691.2,53,655.9,64.2,620,71.8C578.2,80,522.5,68,489.2,60.8
			c-10.3-2.2-18.5-4-23.5-4.6c-21.5-2.2-42.4,6.6-55.8,23.6c-0.1,0.2-0.8,1.4-1.6,3.1c-28,54.9-59.6,95.5-91.3,117.3
			c-30.7,20.5-63.6,38.2-97.7,52.5C204.3,259,198.8,261.2,197.5,261.3z"/>
	</g>
	<g id="路径_2004-2">
		<path class="st1" d="M480.3,783.8c-122-44.4-258.4-146.6-353.9-371L69.7,279.3c-6.3-15.5-5.1-33.4,3.3-47.8
			c8.2-14.4,21.1-26,36.4-32.4l4.3-1.8l0.1,0c1.1,0.1,12.5-4.7,26.9-10.8c42.5-17.8,83.4-39.8,121.6-65.3
			C301.8,94.1,341,43.7,375.8-24.7c1.3-2.6,1.9-3.7,2.1-4c16.9-21.5,43.3-32.6,70.5-29.8c6.2,0.7,16.4,2.9,29.3,5.7
			c41.4,9,110.7,23.9,162.6,13.8C685-48.5,729-62.5,771-80.4c12.9-5.4,21.8-9.7,25.1-11.3c0.8-0.4,1.2-0.6,1.4-0.6l4.2-1.8
			c15.5-6.7,33-8,49.3-3.7c16.6,3.9,30.2,15,37.3,30.4l56.8,133.4c24.7,56.9,43.2,116.7,54.9,177.6l0.2,0.8
			c13.7,73.4,14.8,144.4,3.3,210.9c-9.6,55.8-28.2,109.1-55.1,158.5c-48.1,88.1-111,142.6-144.5,167.4l0.2,0.2l-0.4,0.3
			c-10.3,7.6-17.4,12.5-19.4,13.4c-3.4,2.1-7.1,4-10.8,5.6c-3.8,1.6-7.7,2.9-11.6,3.9C752.3,807,626.7,837,480.3,783.8z
			 M113.9,198.1l-4.1,1.8c-15.1,6.4-27.9,17.8-36,32.1c-8.3,14.2-9.5,31.8-3.3,47.1l56.8,133.4c209.8,493,617.1,395.8,634.3,391.4
			c3.9-1,7.8-2.4,11.5-3.9c3.7-1.5,7.4-3.4,10.8-5.5c2-0.9,8.9-5.6,18.9-13l-0.2-0.2l0.4-0.3c33.3-24.6,96.4-79.1,144.7-167.5
			c26.9-49.3,45.4-102.5,55-158.3c11.4-66.4,10.3-137.3-3.3-210.6l-0.2-0.8c-11.7-60.9-30.2-120.6-54.8-177.5L887.6-67.1
			c-7-15.2-20.4-26.1-36.8-30c-16.2-4.3-33.5-2.9-48.8,3.7l-4.2,1.8c-0.1,0.1-0.6,0.3-1.3,0.6c-3.4,1.6-12.3,5.8-25.1,11.3
			c-42,18-86.1,32-130.8,41.5C588.4-28,519-43,477.6-52c-12.9-2.8-23.1-5-29.2-5.7c-26.9-2.8-53,8.3-69.7,29.5
			c-0.2,0.2-0.9,1.8-2,3.9c-34.9,68.5-74.2,119-113.7,146.2c-38.3,25.6-79.2,47.6-121.7,65.4C123.6,194.7,115.5,198.1,113.9,198.1z"
			/>
	</g>
	<g id="路径_2002-2">
		<path class="st1" d="M487.2,712.3c-93.3-34-197.7-112.3-270.8-284.4l-43.3-102.1c-4.9-12-3.9-25.8,2.6-37c6.3-11.1,16.2-20,28-25
			l3.4-1.5l0.2,0c1,0,9.5-3.6,20.3-8.2c32.4-13.6,63.6-30.4,92.7-50c30-20.7,59.9-59.2,86.5-111.5c1.1-2.1,1.5-2.9,1.6-3.1
			c13-16.6,33.3-25.2,54.3-23c4.8,0.5,12.6,2.2,22.5,4.4c31.6,6.8,84.4,18.3,124,10.5c34.1-7.3,67.6-17.9,99.6-31.7
			c9.8-4.2,16.6-7.4,19.1-8.6c0.6-0.3,1-0.5,1.1-0.5l3.2-1.4c11.9-5.2,25.4-6.2,38-2.9c12.8,3,23.3,11.6,28.8,23.6l43.3,102.1
			c18.9,43.6,33,89.4,41.9,136.1l0.1,0.6c45.2,243.5-101.8,375.4-149.5,411l0.2,0.1l-0.9,0.6c-4.6,3.4-12.6,9.3-14.9,10.3
			c-2.7,1.6-5.5,3.1-8.3,4.3c-2.9,1.2-5.9,2.2-8.9,3C694.8,730,599,753,487.2,712.3z M207.4,264l-3.1,1.3
			c-11.5,4.9-21.1,13.5-27.3,24.3c-6.2,10.8-7.2,24.1-2.5,35.6l43.3,102.1c160,376.9,470.6,302.6,483.7,299.3c3-0.8,5.9-1.8,8.7-3
			c2.8-1.2,5.6-2.6,8.2-4.2l0.1-0.1c1.4-0.6,6.5-4.1,13.7-9.5l-0.2-0.1l0.9-0.6c46.6-34.5,195.1-166,149.8-410l-0.1-0.6
			c-8.9-46.6-23-92.2-41.8-135.8L797.5,60.7C792.2,49.2,782.1,41,769.8,38c-12.2-3.2-25.3-2.2-36.9,2.8l-3.2,1.4
			c-0.1,0-0.5,0.2-1,0.5c-2.6,1.2-9.4,4.5-19.2,8.6c-32.1,13.8-65.8,24.5-99.9,31.8c-39.9,7.8-92.9-3.7-124.6-10.6
			c-9.8-2.1-17.6-3.8-22.3-4.3c-20.4-2.1-40.1,6.3-52.8,22.4c-0.1,0.2-0.7,1.4-1.5,2.9c-26.7,52.5-56.7,91.2-87,112.1
			c-29.2,19.6-60.5,36.5-93,50.1C213.3,262,208.8,263.9,207.4,264z"/>
	</g>
	<g id="路径_2000-2">
		<path class="st1" d="M483.8,753.4C373.9,713.4,251,621.3,165,419.2l-51.1-120.1c-5.7-14-4.6-30.1,3-43.2
			c7.4-13,19.1-23.4,32.9-29.3l3.9-1.7l0.1,0c1.1,0.1,11.3-4.2,24.1-9.7c38.2-16,75.1-35.8,109.5-58.8
			c35.5-24.4,70.8-69.8,102.2-131.3c1.2-2.4,1.7-3.3,1.9-3.6c15.3-19.4,39.1-29.5,63.6-26.9c5.6,0.6,14.8,2.6,26.5,5.1
			c37.3,8.1,99.7,21.5,146.4,12.4c40.2-8.6,79.8-21.1,117.6-37.3c11.6-4.9,19.6-8.7,22.6-10.1c0.7-0.3,1.1-0.5,1.2-0.6l3.8-1.6
			c14-6,29.8-7.2,44.5-3.4c14.9,3.5,27.2,13.5,33.7,27.5l51.1,120.1c22.2,51.3,38.9,105.1,49.4,160l0.2,0.7
			c22.8,122.4,7.1,234.4-46.7,332.8c-43.3,79.2-99.8,128.3-130,150.7l0.2,0.1l-0.6,0.4c-9.3,6.9-15.7,11.3-17.5,12.1
			c-3.1,1.9-6.4,3.6-9.8,5c-3.4,1.4-6.9,2.6-10.5,3.6C728.9,774.3,615.7,801.3,483.8,753.4z M153.9,226l-3.7,1.6
			c-13.6,5.7-25.1,16-32.4,28.8c-7.4,12.8-8.5,28.6-2.9,42.3L166,418.8c188.9,443.8,555.6,356.3,571.2,352.3c3.5-0.9,7-2.1,10.3-3.5
			c3.3-1.4,6.6-3.1,9.7-5c1.8-0.8,8-5.1,16.8-11.6l-0.2-0.1l0.6-0.4c30-22.1,86.8-71.2,130.3-150.7c53.7-98.2,69.3-209.9,46.6-332.1
			l-0.2-0.7c-10.5-54.8-27.2-108.6-49.4-159.8L850.6-12.9c-6.3-13.6-18.3-23.4-33-26.9c-14.5-3.8-30.1-2.6-43.8,3.3l-3.8,1.6
			c-0.1,0.1-0.5,0.3-1.2,0.6c-3,1.4-11,5.2-22.7,10.2C708.2-7.9,668.5,4.7,628.2,13.2c-46.9,9.2-109.5-4.3-146.8-12.4
			c-11.6-2.5-20.8-4.5-26.4-5.1c-24.2-2.5-47.6,7.4-62.7,26.5c-0.1,0.2-0.9,1.6-1.8,3.5C359.1,87.4,323.7,132.9,288,157.4
			c-34.5,23.1-71.4,42.9-109.7,58.9C162.4,223,155.5,225.9,153.9,226z"/>
	</g>
</g>
</svg>
