<?xml version="1.0" encoding="utf-8"?>
<!-- Generator: Adobe Illustrator 25.4.1, SVG Export Plug-In . SVG Version: 6.00 Build 0)  -->
<svg version="1.1" id="图层_1" xmlns="http://www.w3.org/2000/svg" xmlns:xlink="http://www.w3.org/1999/xlink" x="0px" y="0px"
	 viewBox="0 0 500 500" style="enable-background:new 0 0 500 500;" xml:space="preserve">
<style type="text/css">
	.st0{fill:#FFFFFF;}
	.st1{fill:#01428F;}
</style>
<ellipse transform="matrix(0.7071 -0.7071 0.7071 0.7071 -103.5534 250)" class="st0" cx="250" cy="250" rx="353.6" ry="353.6"/>
<g>
	<path d="M231.3,193.8C231.3,193.8,231.3,193.8,231.3,193.8C231.2,193.8,231.2,193.8,231.3,193.8
		C231.3,193.9,231.3,193.9,231.3,193.8C231.3,193.8,231.3,193.8,231.3,193.8z"/>
	<path d="M318.7,94C318.7,94,318.7,94,318.7,94L318.7,94C318.6,94,318.6,94,318.7,94z"/>
	<path d="M381,306.2C381,306.2,381,306.2,381,306.2C381.1,306.2,381.1,306.1,381,306.2C381,306.1,381,306.1,381,306.2
		C381,306.1,381,306.2,381,306.2z"/>
	<path d="M443.6,430.8C443.5,430.8,443.5,430.8,443.6,430.8C443.5,430.8,443.5,430.9,443.6,430.8
		C443.5,430.9,443.6,430.8,443.6,430.8z"/>
	<path d="M381,318.5c0-4.1,0-8.2,0-12.3c-4,0-8.1,0-12.4,0c0,4.1,0,8.1,0,12.3c-4.3,0-8.3,0-12.5,0c0-4.1,0-8,0-12.2
		c-4.2,0-8.2,0-12.5,0c0-16.7,0-33.2,0-50.1c-4.3,0-8.4,0-12.5,0c0-8.3,0-16.5,0-25c4.3,0,8.4,0,12.4,0c0-4.1,0-8.2,0-12.5
		c4.4,0,8.4,0,12.4,0c0-8.4,0-16.5,0-24.7c-4.1,0-8.2,0-12.4,0c0,4.2,0,8.2,0,12.3c-4.3,0-8.3,0-12.4,0c0-8.2,0-16.4,0-24.8
		c4.1,0,8.1,0,12.4,0c0-4.3,0-8.3,0-12.6c8.5,0,16.7,0,25,0c0-4.1,0-8.2,0-12.6c-4.3,0-8.3,0-12.5,0c0-4.2,0-8.2,0-12.4
		c-4.2,0-8.2,0-12.4,0c0-12.6,0-25,0-37.3c-4.1,0-8.2,0-12.5,0c0-4.4,0-8.4,0-12.5c-4.3,0-8.3,0-12.4,0c0,4,0,8.1,0,12.3
		c-4.2,0-8.2,0-12.5,0c0-4.1,0-8.2,0-12.3c-4.1,0-8.3,0-12.4,0c0,4,0,8.1,0,12.3c-4.2,0-8.2,0-12.5,0c0-4.1,0-8.2,0-12.3
		c-4.1,0-8.3,0-12.4-0.1c0-8.3,0-16.6-0.1-24.9c-4,0-8.1,0-12.5,0c0-4.3,0-8.4,0-12.5c-8.3,0-16.5,0-24.9,0c0,8.5,0,16.7,0,24.9
		c4,0,8.1,0,12.3,0c0,12.5,0,24.8,0,37.4c-4,0-8,0-12.4,0c0,8.5,0,16.8,0,25c-4.1,0-8.2,0-12.3,0c0,4.4,0,8.4,0,12.5
		c4.2,0,8.2,0,12.3,0c0,4,0,8.1,0,12.4c-8.4,0-16.6,0-24.9,0c0-8.3,0-16.5,0-24.7c-8.5,0-16.7,0-25.1,0c0,4.1,0,8.1,0,12.3
		c-8.4,0-16.5,0-24.7,0c0,4.3,0,8.3,0,12.5c4.1,0,8.1,0,12.2,0c0,8.4,0,16.5,0,24.7c-4.2,0-8.2,0-12.5,0c0-4.2,0-8.2,0-12.4
		c-4.2,0-8.2,0-12.4,0c0-8.4,0-16.5,0-24.9c-4.3,0-8.3,0-12.4,0c0-4,0-8.1,0-12.4c4.1,0,8.1,0,12.3,0c0-4.3,0-8.3,0-12.5
		c-8.3,0-16.5,0-24.8,0c0,4,0,8.1,0,12.3c-8.3,0-16.5,0-25,0c0-4.1,0-8.2,0-12.3c-4.1,0-8.2,0-12.6,0c0-4.4,0-8.4,0-12.4
		c-4.2,0-8.2,0-12.4,0c0,12.5,0,24.8,0,37.1c-4.3,0-8.3,0-12.5,0c0-12.5,0-24.8,0-37.1c-8.4,0-16.5,0-25,0c0,4.2,0,8.2,0,12.4
		c-4.2,0-8.2,0-12.2,0c0,8.4,0,16.5,0,24.7c4.2,0,8.2,0,12.4,0c0-4.2,0-8.1,0-12.1c4.2,0,8.2,0,12.4,0c0,8.4,0,16.6,0,24.8
		c8.2,0,16.4,0,24.8,0c0,4.2,0,8.2,0,12.6c12.7,0,25.1,0,37.5,0c0,4.1,0,8.3,0,12.4c-8.2,0-16.4,0-24.9,0c0,4.2,0,8.2,0,12.4
		c-8.4,0-16.5,0-24.9,0c0-4,0-8,0-12.3c-4.4,0-8.5,0-12.6,0c0,8.3,0,16.5,0,25c8.4,0,16.6,0,25,0c0,8.4,0,16.6,0,24.8
		c4,0,8.1,0,12.5,0c0,8.4,0,16.7,0,25c4.1,0,8.3,0,12.4,0c0-4,0-8.1,0-12.4c4.2,0,8.2,0,12.6,0c0-4.3,0-8.4,0-12.5
		c4.1,0,8.2,0,12.5,0c0-8.6,0-16.8,0-25c4.1,0,8.3,0,12.4,0c0,12.3,0,24.7,0,37.3c-4.1,0-8.1,0-12.4,0c0,4.3,0,8.3,0,12.6
		c-8.5,0-16.7,0-25,0c0,4.1,0,8.2,0,12.4c12.6,0,25,0,37.4,0c0-4,0-8.1,0-12.4c4.2,0,8.2,0,12.4,0c0-4.2,0-8.2,0-12.3
		c4.2,0,8.2,0,12.6,0c0,8.2,0,16.5,0,24.7c8.2,0,16.4,0,24.9,0c0-4.1,0-8.2,0-12.4c4.2,0,8.2,0,12.4,0c0-4.2,0-8.2,0-12.5
		c-8.1,0-16.3,0-24.6,0c0-4.3,0-8.3,0-12.5c16.5,0,33,0,49.7,0c0-8.3,0-16.5,0-25.1c4.3,0,8.5,0,12.6,0c0-8.3,0-16.6,0-24.9
		c-4,0-8.1,0-12.4,0c0,4.1,0,8.1,0,12.4c-4.3,0-8.4,0-12.5,0c0-8.3,0-16.6,0-24.9c8.2,0,16.4,0,25,0c0,4.2,0,8.3,0,12.4
		c12.4,0,24.7,0,37.2,0c0,4.2,0,8.2,0,12.5c-4,0-8.1,0-12.2,0c0,4.2,0,8.2,0,12.4c4,0,8.1,0,12.3,0c0,4.3,0,8.3,0,12.4
		c8.4,0,16.5,0,24.9,0c0-4,0-8,0-12.3c4.3,0,8.3,0,12.5,0c0-4.2,0-8.2,0-12.4c-4,0-8,0-12.3,0c0-4.4,0-8.5,0-12.6
		c4.1,0,8.2,0,12.5,0c0-4.4,0-8.4,0-12.5c4,0,8.1,0,12.4,0c0,8.3,0,16.4,0,25c4.3,0,8.4,0,12.5,0c0,4.1,0,8.2,0,12.5
		c-4.3,0-8.3,0-12.3,0c0,12.6,0,24.9,0,37.4c4.2,0,8.2,0,12.3,0c0,4,0,8.1,0,12.4c-8.3,0-16.5,0-24.8,0c0,4.2,0,8.2,0,12.4
		c4,0,8,0,12.3,0c0,4.3,0,8.3,0,12.5c4.2,0,8.2,0,12.3,0c0,8.4,0,16.5,0,25.1c-4,0-8.1,0-12.2,0c0,8.2,0,16.4,0,24.8
		c4.1,0,8.2,0,12.4,0c0-4,0-8,0-12.1c4.2,0,8.2,0,12.6,0c0,8.2,0,16.5,0,24.7c4.1,0,8.3,0.1,12.4,0.1c0,8.2,0,16.4,0,24.8
		c4.2,0,8.2,0,12.4,0c0,4.3,0,8.3,0,12.5c-4,0-8,0-12.1,0c0,4.2,0,8.2,0,12.5c4,0,8,0,12.3,0c0,12.7,0,25.1,0,37.5
		c8.2,0,16.4,0,24.9,0c0-4.1,0-8.1,0-12.3c4.3,0,8.3,0,12.5,0c0,4.1,0,8,0,12.2c4.2,0,8.2,0,12.6,0c0,8.5,0,16.8,0,25
		c4.1,0,8.2,0,12.6,0c0-12.6,0-25,0-37.5c4.3,0,8.4,0,12.4,0c0-4.1,0-8.2,0-12.4c-4.4,0-8.4,0-12.6,0c0-25,0-49.8,0-74.7
		c-8.4,0-16.6,0-24.8,0c0-0.8-0.1-1.7-0.1-2.6c0-10.8,0-21.5,0-32.3c0-0.8,0-1.7,0-2.6c-4.4,0-8.4,0-12.4,0c0,4,0,8.1,0,12.3
		C389.4,318.5,385.4,318.5,381,318.5z M181.5,168.9c8.4,0,16.6,0,24.8,0c0,4.1,0,8.3,0,12.4c-4.1,0-8.2,0-12.6,0c0,4.4,0,8.4,0,12.4
		c-4.2,0-8.2,0-12.2,0C181.5,185.4,181.5,177.2,181.5,168.9z M131.4,156.4c0,4.1,0,8.2,0,12.4c-4.3,0-8.4,0-12.4,0c0-4,0-8.1,0-12.4
		C123.2,156.4,127.3,156.4,131.4,156.4z M81.6,156.6c8.1,0,16.3,0,24.9,0c0,4,0,8.1,0,12.2c-8.3,0-16.5,0-24.9,0
		C81.6,164.7,81.6,160.7,81.6,156.6z M81.7,231.2c0-4.1,0-8.1,0-12.4c4.1,0,8.2,0,12.3,0c0,4.1,0,8.3,0,12.4
		C89.9,231.2,85.9,231.2,81.7,231.2z M94,231.3c4.1,0,8.2,0,12.4,0c0,4.3,0,8.4,0,12.4c-4,0-8.1,0-12.4,0
		C94,239.5,94,235.4,94,231.3z M131.3,193.9c-4.1,0-8.2,0-12.3,0c0,8.3,0,16.6-0.1,24.9c-8.3,0-16.6,0-24.9,0c0-4,0-8.1,0-12.4
		c4.1,0,8.1,0,12.5,0c0-4.3,0-8.4,0-12.5c4.1,0,8.3,0,12.4-0.1c0-4.1,0-8.3,0-12.4c-4.1,0-8.3,0-12.4-0.1c0-4.2,0-8.3,0.1-12.5
		c4.1,0,8.2,0.1,12.3,0.1c0,4.1,0,8.3,0.1,12.4c4,0,8.1,0,12.3,0C131.3,185.5,131.3,189.5,131.3,193.9z M131.5,218.8
		c0-4.1,0-8.2,0-12.3c8.4,0,16.6,0,24.9,0c0,4.2,0,8.2,0,12.3C148.1,218.8,139.8,218.8,131.5,218.8z M193.9,218.7
		c0,4.2,0,8.2,0,12.3c-12.5,0-24.9,0-37.5,0c0-4.1,0-8.2,0-12.3c8.3,0,16.5,0,25,0c0-4.3,0-8.4,0-12.5c8.5,0,16.6,0,24.8,0
		c0,4,0,8.1,0,12.4C202.2,218.7,198.1,218.7,193.9,218.7z M243.6,156.4c-4.1,0-8.2,0-12.3,0c0-4.1,0-8.3,0-12.4c4,0,8.1,0,12.3,0
		C243.6,148.1,243.6,152.1,243.6,156.4z M306.1,181.3c-4.1,0-8.3,0-12.4,0c0-4,0-8.1,0-12.3c4.1,0,8.1,0,12.4,0
		C306.1,173.1,306.1,177.2,306.1,181.3z M256.4,94c4.1,0,8.2,0,12.3,0c0,4,0,8.1,0,12.3c-4.1,0-8.1,0-12.3,0
		C256.4,102.3,256.4,98.3,256.4,94z M256.4,131.6c8.2,0,16.3,0,24.8,0c0,4,0,8,0,12.4c4.4,0,8.5,0,12.6,0c0,4,0,8.1,0,12.3
		c-8.5,0-16.7,0-25,0c0-4,0-8.1,0-12.4c-4.2,0-8.2,0-12.4,0C256.4,139.7,256.4,135.8,256.4,131.6z M256.4,168.7c0-4,0-8,0-12.3
		c4.1,0,8.2,0,12.3,0c0,4.1,0.1,8.2,0.1,12.3C264.7,168.7,260.7,168.7,256.4,168.7z M268.8,168.8c4,0,8.1,0,12.3,0
		c0,4.3,0,8.4,0,12.5c-4,0-8.1,0-12.3,0C268.8,177.1,268.8,173,268.8,168.8z M281.2,193.8c0-4.2,0-8.3,0-12.4c4.1,0,8.3,0,12.4,0
		c0,4.1,0,8.3,0,12.4C289.6,193.8,285.6,193.8,281.2,193.8z M306.3,156.4c0-4.1,0-8.1,0-12.4c-4.3,0-8.4,0-12.5,0
		c0-8.2,0-16.4,0-24.8c8.1,0,16.3,0,24.8,0c0,12.4,0,24.8,0,37.2C314.6,156.4,310.5,156.4,306.3,156.4z M330.9,168.7
		c-4,0-8,0-12.3,0c0-4.1,0-8.2,0-12.3c4,0,8.1,0,12.3,0C330.9,160.5,330.9,164.5,330.9,168.7z M368.4,356c-4.1,0-8.2,0-12.3,0
		c0-8.2,0-16.4,0-24.8c4.1,0,8.1,0,12.3,0C368.4,339.4,368.4,347.6,368.4,356z M418.3,418.3c-12.3,0-24.6,0-37.1,0
		c0-12.3,0-24.6,0-37.1c12.4,0,24.7,0,37.1,0C418.3,393.5,418.3,405.8,418.3,418.3z M418.3,368.4c-4,0-8,0-12.3,0
		c0-4.1,0-8.2,0-12.3c4,0,8.1,0,12.3,0C418.3,360.2,418.3,364.2,418.3,368.4z M406.1,343.7c0,4.1-0.1,8.2-0.1,12.3
		c-8.2,0-16.4,0-24.8,0c0-4.1,0-8.2,0-12.3C389.5,343.7,397.8,343.7,406.1,343.7z"/>
	<path d="M393.6,306.2C393.6,306.2,393.6,306.1,393.6,306.2C393.5,306.1,393.5,306.1,393.6,306.2
		C393.5,306.1,393.5,306.2,393.6,306.2C393.5,306.2,393.5,306.2,393.6,306.2z"/>
	<path d="M343.6,356.1C343.6,356.1,343.6,356.1,343.6,356.1C343.6,356,343.6,356,343.6,356.1L343.6,356.1z"/>
	<ellipse cx="119" cy="119" rx="0" ry="0"/>
	<path d="M181.3,44C181.3,44.1,181.3,44.1,181.3,44C181.3,44.1,181.4,44.1,181.3,44L181.3,44z"/>
	<path d="M168.9,131.5C168.9,131.4,168.9,131.4,168.9,131.5C168.9,131.4,168.9,131.4,168.9,131.5L168.9,131.5z"/>
	<path d="M168.9,131.4c8.2,0,16.4,0,25,0c0-8.4,0-16.6,0-24.9c4.1,0,8.2,0,12.5,0c0-4.4,0-8.4,0-12.5c4,0,8.1,0,12.4,0
		c0,4.1,0,8.1,0,12.3c4.3,0,8.3,0,12.5,0c0-8.3,0-16.5,0-24.8c-8.3,0-16.6,0-24.9,0c0,4.1,0,8.3-0.1,12.4c-4.1,0-8.3,0-12.4,0
		c0-4.1,0-8.3-0.1-12.4c-4.1,0-8.2,0-12.4,0c0,4.3,0,8.4,0,12.4c4.1,0,8.3,0,12.4,0.1c0,4.1,0,8.3,0,12.4c-4,0-8.1,0-12.5,0
		c0-4.2,0-8.3,0-12.4c-4.1,0-8.2,0-12.5,0c0,4.3,0,8.3,0,12.3c-4.3,0-8.3,0-12.4,0c0-8.4,0-16.6,0-24.7c4.1,0,8.2,0,12.5,0
		c0-8.5,0-16.7,0-25.1c4.3,0,8.3,0,12.4,0c0-4.3,0-8.3,0-12.4c-8.3,0-16.5,0-25,0c0-8.5,0-16.7,0-24.9c-12.5,0-24.8,0-37.2,0
		c0,20.8,0,41.4,0,62.3c4.2,0,8.2,0,12.3,0c0,4.3,0,8.3,0,12.4c-4.1,0-8.2,0-12.4,0c0,8.6,0,16.8,0,25c16.5,0,33,0,49.9,0
		C168.9,123.2,168.9,127.3,168.9,131.4z M143.7,106.3c-4,0-8,0-12.3,0c0-4.1,0-8.2,0-12.3c4,0,8.1,0,12.3,0
		C143.7,98.1,143.7,102.1,143.7,106.3z M131.6,69.1c0-12.5,0-24.9,0-37.4c4,0,8,0,12.2,0c0,8.2,0,16.3,0,24.7c4.2,0,8.2,0,12.5,0
		c0,8.5,0,16.8,0,25c-4,0-8.1,0-12.4,0c0-4.1,0-8.2,0-12.4C139.7,69.1,135.8,69.1,131.6,69.1z"/>
	<path d="M131.4,281.2C131.4,281.2,131.4,281.2,131.4,281.2C131.4,281.2,131.4,281.2,131.4,281.2
		C131.5,281.2,131.5,281.2,131.4,281.2C131.4,281.2,131.4,281.2,131.4,281.2z"/>
	<path d="M430.8,144c-4.1,0-8.2,0-12.3,0c0,12.4,0,24.8,0,37.5c4.3,0,8.3,0,12.5,0c0,4.2,0,8.2,0,12.4c4.2,0,8.2,0,12.4,0
		c0,4.2,0,8.2,0,12.3c12.5,0,24.9,0,37.2,0c0-8.3,0-16.5,0-24.9c-4.1,0-8.1,0-12.2,0c0-4.2,0-8.2,0-12.5c4.2,0,8.2,0,12.2,0
		c0-16.7,0-33.2,0-49.7c-20.8,0-41.5,0-62.2,0c0,4.2,0,8.2,0,12.3c4,0,8.1,0,12.3,0C430.9,135.7,430.9,139.8,430.8,144z
		 M455.8,156.3c0,8.4,0,16.5,0,24.8c-4,0-8,0-12.3,0c0-4,0-8,0-12.2c-4.2,0-8.2,0-12.6,0c0-8.4,0-16.7,0-24.9c4,0,8.1,0,12.4,0
		c0,4,0,8,0,12.3C447.6,156.3,451.6,156.3,455.8,156.3z"/>
	<ellipse cx="418.5" cy="131.4" rx="0" ry="0"/>
	<path d="M430.9,256.2C430.9,256.2,430.9,256.2,430.9,256.2C430.9,256.3,431,256.3,430.9,256.2C431,256.2,431,256.2,430.9,256.2
		C431,256.2,430.9,256.2,430.9,256.2z"/>
	<path d="M418.4,218.8C418.5,218.8,418.5,218.8,418.4,218.8C418.5,218.8,418.5,218.8,418.4,218.8
		C418.5,218.8,418.5,218.8,418.4,218.8C418.4,218.8,418.4,218.8,418.4,218.8z"/>
	<path d="M406.1,243.8c0-4.2,0-8.2,0-12.4c4,0,8,0,12.3,0c0-4.4,0-8.5,0-12.6c-8.2,0-16.4,0-25,0c0-4.3,0-8.4,0-12.5
		c-8.2,0-16.4,0-24.8,0c0,20.8,0,41.4,0,62.3c-4.3,0-8.3,0-12.4,0c0,4.2,0,8.2,0,12.4c8.2,0,16.3,0,24.9,0c0,8.5,0,16.8,0,25
		c4.1,0,8.3,0,12.4,0c0-4.1,0-8.2,0-12.5c4.4,0,8.4,0,12.6,0c0-4.2,0-8.2,0-12.4c4.2,0,8.2,0,12.5,0c0-8.4,0-16.6,0-25
		c4.3,0,8.3,0,12.4,0c0-4,0-8.1,0-12.4C422.6,243.8,414.4,243.8,406.1,243.8z M405.9,268.5c-4,0-8,0-12.2,0c0-4,0-8,0-12.2
		c4.1,0,8.1,0,12.2,0C405.9,260.4,405.9,264.4,405.9,268.5z"/>
	<path d="M44.1,168.8C44.1,168.8,44.1,168.8,44.1,168.8C44,168.9,44,168.9,44.1,168.8C44.1,168.9,44.1,168.9,44.1,168.8
		C44.1,168.9,44.1,168.9,44.1,168.8z"/>
	<path d="M331,443.6C331,443.6,331.1,443.6,331,443.6C331.1,443.5,331.1,443.5,331,443.6C331.1,443.5,331,443.6,331,443.6z"/>
	<circle cx="368.6" cy="443.4" r="0"/>
	<ellipse cx="418.5" cy="468.4" rx="0" ry="0"/>
	<path d="M406.1,456c-12.6,0-24.9,0-37.6,0c0-4.3,0-8.4,0-12.5c-4,0-8.1,0-12.4,0c0,4.1,0,8.1,0,12.3c-4.3,0-8.3,0-12.6,0
		c0-4.1,0-8.1,0-12.2c-4.3,0-8.4,0-12.5,0c0,4,0,8.1,0,12.3c-8.4,0-16.6,0-24.9,0c0-4.1,0-8.2,0-12.5c-4.4,0-8.4,0-12.5,0
		c0-8.2,0-16.4,0-24.8c8.3,0,16.4,0,24.8,0c0-4.3,0-8.3,0-12.5c-4,0-8,0-12.2,0c0-8.3,0-16.5,0-25c-4.3,0-8.3,0-12.6,0
		c0-8.5,0-16.8,0-25c-4.1,0-8.2,0-12.5,0c0,8.5,0,16.6,0,25.1c-12.6,0-24.9,0-37.2,0c0,4.2,0,8.2,0,12.4c4.2,0,8.2,0,12.4,0
		c0,4.3,0,8.3,0,12.4c4.1,0,8.3,0,12.4,0.1c0,8.3,0,16.6,0.1,24.9c4,0,8.1,0,12.5,0c0,4.3,0,8.4,0,12.5c4.1,0,8.3,0,12.4,0.1
		c0,4.1,0,8.3,0,12.4c-4,0-8.1,0-12.5,0c0-4.2,0-8.3,0-12.4c-4.1,0-8.3,0-12.4,0c0,8.3,0,16.5,0,25c-4.4,0-8.4,0-12.4,0
		c0,4.2,0,8.2,0,12.2c29.1,0,58.1,0,87.3,0c0-4.2,0-8.2,0-12.1c8.4,0,16.6,0,25,0c0,4.2,0,8.1,0,12.1c16.7,0,33.2,0,49.8,0
		c0-4.2,0-8.2,0-12.3c-4,0-8.1,0-12.4,0C406.1,464.2,406.1,460.2,406.1,456z M281,406c-4.1,0-8.2,0-12.3,0c0-4,0-8.1,0-12.3
		c4.1,0,8.1,0,12.3,0C281,397.7,281,401.7,281,406z M293.7,468.2c0-4.1,0-8.2,0-12.3c4.1,0,8.3,0,12.4,0c0,4,0,8.1,0,12.3
		C302,468.2,298,468.2,293.7,468.2z"/>
	<path d="M281.2,443.5C281.2,443.5,281.2,443.5,281.2,443.5C281.2,443.4,281.2,443.4,281.2,443.5
		C281.2,443.4,281.2,443.4,281.2,443.5C281.2,443.4,281.2,443.4,281.2,443.5z"/>
	<path d="M105.4,19.3c-28.8,0-57.5,0-86.1,0c0,29.1,0,58,0,87.1c28.7,0,57.3,0,86.1,0C105.4,77.2,105.4,48.2,105.4,19.3z M92.8,92.7
		c-20.6,0-41.2,0-61.9,0c0-20.5,0-41.1,0-61.9c20.6,0,41.2,0,61.9,0C92.8,51.4,92.8,71.9,92.8,92.7z"/>
	<path d="M479.8,19.3c-28.8,0-57.5,0-86.1,0c0,29.1,0,58.1,0,87.1c28.8,0,57.4,0,86.1,0C479.8,77.3,479.8,48.4,479.8,19.3z
		 M465,92.9c-19.3-0.1-38.7,0-58-0.1c-0.5,0-1.1-0.1-1.8-0.1c0-20.7,0-41.3,0-62.1c20.7,0,41.2,0,62,0c0.1,0.8,0.1,1.5,0.1,2.1
		c0,19.2,0,38.4,0,57.6C467.3,92.2,467.1,93,465,92.9z"/>
	<path d="M19.2,480.8c28.7,0,57.3,0,86.1,0c0-29.2,0-58.2,0-87.1c-28.8,0-57.5,0-86.1,0C19.2,422.8,19.2,451.7,19.2,480.8z
		 M30.8,405.1c20.7,0,41.3,0,62,0c0.1,0.8,0.1,1.5,0.1,2.1c0,19.2,0,38.4,0,57.6c0,1.7-0.3,2.5-2.3,2.5c-19.3-0.1-38.7,0-58-0.1
		c-0.5,0-1.1-0.1-1.8-0.1C30.8,446.5,30.8,425.9,30.8,405.1z"/>
	<path d="M443.5,231.3C443.5,231.3,443.5,231.3,443.5,231.3C443.4,231.2,443.4,231.2,443.5,231.3
		C443.4,231.3,443.4,231.3,443.5,231.3C443.4,231.3,443.4,231.3,443.5,231.3z"/>
	<path d="M480.8,318.5c0-12.6,0-24.8,0-37.4c-4.1,0-8.2,0-12.2,0c0-8.5,0-16.6,0-25c4.2,0,8.1,0,12.1,0c0-8.4,0-16.5,0-24.8
		c-12.5,0-24.9,0-37.2,0c0,8.3,0,16.6,0,24.9c4.1,0,8.2,0,12.3,0c0,8.5,0,16.7,0,25.1c-8.3,0-16.4,0-24.8,0c0,4.2,0,8.2,0,12.5
		c-4.3,0-8.3,0-12.3,0c0,4.2,0,8.2,0,12.4c12.5,0,24.8,0,37.3,0c0,12.6,0,25,0,37.3c4.1,0,8.2,0,12.6,0c0,4.4,0,8.4,0,12.4
		c4.2,0,8.2,0,12.2,0c0-8.3,0-16.5,0-24.9c-4.1,0-8.1,0-12.2,0c0-4.2,0-8.2,0-12.5C472.7,318.5,476.7,318.5,480.8,318.5z"/>
	<path d="M343.6,106.4C343.6,106.4,343.6,106.4,343.6,106.4C343.6,106.4,343.6,106.5,343.6,106.4L343.6,106.4
		C343.6,106.5,343.6,106.5,343.6,106.4C343.6,106.5,343.6,106.5,343.6,106.4C343.6,106.5,343.6,106.5,343.6,106.4z"/>
	<path d="M356.2,94.1c4.2,0,8.2,0,12.2,0c0,8.3,0,16.5,0,24.9c-4.1,0-8.1,0-12.2,0c0,4.2,0,8.2,0,12.5c4.2,0,8.2,0,12.4,0
		c0,4.2,0,8.2,0,12.2c4.2,0,8.2,0,12.2,0c0-20.8,0-41.5,0-62.3c-4.2,0-8.1,0-12.1,0c0-4.2,0-8.2,0-12.5c4.2,0,8.2,0,12.2,0
		c0-8.4,0-16.5,0-24.9c-4.2,0-8.2,0-12.4,0c0-8.4,0-16.5,0-24.7c-12.5,0-24.9,0-37.2,0c0,4.2,0,8.2,0,12.4c4.1,0,8.1,0,12.2,0
		c0,12.5,0,24.9,0,37.5c-4.2,0-8.2,0-12.2,0c0,4.2,0,8.2,0,12.4c4.2,0,8.2,0,12.4,0c0,8.5,0,16.7,0,24.9c4.1,0,8.2,0,12.6,0
		C356.2,102.1,356.2,98.1,356.2,94.1z"/>
	<path d="M231.4,430.9c8.3,0,16.5,0,24.8,0c0-8.3,0-16.6,0-24.9c-12.4,0-24.8,0-37.5,0c0,4.3,0,8.3,0,12.3c-4.2,0-8.2,0-12.4,0
		c0-12.5,0-24.8,0-37.3c-4.3,0-8.3,0-12.4,0c0,20.7,0,41.4,0,62.4c8.4,0,16.6,0,25,0c0,4.3,0,8.3,0,12.4c12.4,0,24.8,0,37.4,0
		c0-4.3,0-8.4,0-12.4c-8.2,0-16.4,0-24.8,0C231.4,439.3,231.4,435.3,231.4,430.9z"/>
	<path d="M256.2,443.5C256.2,443.5,256.2,443.5,256.2,443.5C256.3,443.4,256.3,443.4,256.2,443.5
		C256.2,443.4,256.2,443.4,256.2,443.5C256.2,443.4,256.2,443.4,256.2,443.5z"/>
	<circle cx="256.2" cy="431" r="0"/>
	<path d="M256.3,406C256.2,406,256.2,406,256.3,406C256.2,406,256.2,406,256.3,406C256.2,406,256.2,406,256.3,406
		C256.3,406,256.3,406,256.3,406z"/>
	<path d="M181.3,318.7C181.3,318.7,181.4,318.7,181.3,318.7L181.3,318.7C181.3,318.6,181.3,318.6,181.3,318.7z"/>
	<ellipse cx="131.4" cy="406" rx="0" ry="0"/>
	<path d="M156.4,330.9c-4.2,0-8.2,0-12.5,0c0-4.1,0-8.2,0-12.3c-4.1,0-8.2,0-12.6,0c0,4.3,0,8.3,0,12.5c-4.2,0-8.2,0-12.2,0
		c0,8.4,0,16.5,0,24.9c4.2,0,8.2,0,12.3,0c0,8.2,0,16.5,0,25c-4.3,0-8.3,0-12.3,0c0,8.4,0,16.6,0,24.9c4.2,0,8.2,0,12.3,0
		c0-4,0-8.1,0-12.5c4.3,0,8.4,0,12.5,0c0-4.1,0-8.2,0-12.5c4.4,0,8.4,0,12.6,0c0-12.6,0-24.9,0-37.4c4.2,0,8.2,0,12.4,0
		c0-4.2,0-8.2,0-12.5c4.3,0,8.3,0,12.4,0c0-4.3,0-8.3,0-12.4c-8.3,0-16.6,0-24.9,0C156.4,322.7,156.4,326.7,156.4,330.9z M143.8,356
		c-4.1,0-8.2,0-12.3,0c0-4,0-8.1,0-12.3c4.1,0,8.1,0,12.3,0C143.8,347.8,143.8,351.8,143.8,356z"/>
	<circle cx="156.4" cy="318.6" r="0"/>
	<ellipse cx="69" cy="243.8" rx="0" ry="0"/>
	<path d="M81.6,268.7C81.6,268.7,81.6,268.7,81.6,268.7C81.5,268.7,81.5,268.7,81.6,268.7C81.5,268.7,81.6,268.7,81.6,268.7z"/>
	<ellipse cx="94" cy="268.7" rx="0" ry="0"/>
	<path d="M468.4,455.9C468.4,455.9,468.4,455.9,468.4,455.9C468.4,455.9,468.4,455.9,468.4,455.9L468.4,455.9z"/>
	<path d="M456,430.9C455.9,430.9,455.9,430.9,456,430.9L456,430.9C456,431,456,430.9,456,430.9z"/>
	<path d="M468.4,455.9c4.1,0,8.2,0,12.2,0c0-29.3,0-58.3,0-87.2c-4.2,0-8.1,0-12.4,0c0,4.2,0,8.2,0,12.4c-4.2,0-8.2,0-12.4,0
		c0,4.2,0,8.2,0,12.5c-4.3,0-8.3,0-12.3,0c0,4.2,0,8.2,0,12.4c4.1,0,8.2,0,12.4,0c0,8.5,0,16.7,0,24.9c4.1,0,8.2,0,12.5,0
		C468.4,439.5,468.4,447.7,468.4,455.9z"/>
	<ellipse cx="256.2" cy="293.7" rx="0" ry="0"/>
	<path d="M218.9,256.4c0,4,0,8,0,12.2c-4.2,0-8.2,0-12.5,0c0,12.7,0,25.1,0,37.5c8.3,0,16.5,0,25,0c0-4.3,0-8.3,0-12.5
		c8.5,0,16.6,0,24.8,0c0-12.4,0-24.7,0-37.2C243.7,256.4,231.4,256.4,218.9,256.4z M231.5,281c0-3.9,0-7.9,0-12.1c4,0,8,0,12.3,0
		c0,4.1,0,8,0,12.1C239.7,281,235.7,281,231.5,281z"/>
	<path d="M243.6,318.7c-4.2,0-8.2,0-12.2,0c0,16.7,0,33.2,0,49.6c4.2,0,8.2,0,12.4,0c0-4.2,0-8.1,0-12.1c4.2,0,8.2,0,12.4,0
		c0,4.1,0,8.1,0,12.2c4.2,0,8.2,0,12.3,0c0-8.3,0-16.5,0-24.9c-4.1,0-8.1,0-12.2,0c0-4.2,0-8.2,0-12.5c4.2,0,8.2,0,12.2,0
		c0-4.2,0-8.2,0-12.4c-4.1,0-8.2,0-12.4,0c0-4.3,0-8.3,0-12.4c-4.1,0-8.2,0-12.6,0C243.6,310.5,243.6,314.5,243.6,318.7z"/>
	<path d="M156.4,406C156.4,406,156.4,406,156.4,406C156.4,406,156.4,406,156.4,406C156.4,406,156.4,406,156.4,406
		C156.4,406,156.4,406,156.4,406z"/>
	<path d="M131.4,468.4C131.4,468.4,131.4,468.4,131.4,468.4C131.4,468.4,131.4,468.4,131.4,468.4
		C131.5,468.4,131.5,468.4,131.4,468.4C131.4,468.4,131.4,468.4,131.4,468.4z"/>
	<path d="M143.9,418.3c0-4.1,0-8.2,0-12.3c-4.1,0-8.3,0-12.4,0c0,4.1,0,8.2,0,12.6c-4.4,0-8.4,0-12.4,0c0,4.2,0,8.2,0,12.4
		c4.2,0,8.2,0,12.2,0c0,4.3,0,8.3,0,12.5c-4.2,0-8.1,0-12.1,0c0,8.4,0,16.5,0,24.8c4.2,0,8.2,0,12.3,0c0-4,0-8.1,0-12.3
		c4.2,0,8.2,0,12.4,0c0-4.3,0-8.3,0-12.6c4.3,0,8.4,0,12.5,0c0-4.1,0-8.2,0-12.5c4.4,0,8.4,0,12.3,0c0-8.4,0-16.6,0-24.8
		c-4.2,0-8.2,0-12.3,0c0,4,0,8.1,0,12.3C152.3,418.3,148.2,418.3,143.9,418.3z"/>
	<path d="M193.8,381C193.8,381,193.8,381.1,193.8,381C193.8,381.1,193.8,381.1,193.8,381L193.8,381
		C193.8,381.1,193.9,381.1,193.8,381C193.9,381.1,193.9,381,193.8,381C193.9,381,193.8,381,193.8,381z"/>
	<path d="M218.6,356c0-4.3,0-8.3,0-12.3c-12.5,0-24.8,0-37.3,0c0,4.1,0,8.2,0,12.5c-4.3,0-8.3,0-12.2,0c0,12.6,0,24.9,0,37.2
		c4.2,0,8.1,0,12.4,0c0-4.2,0-8.2,0-12.4c4.3,0,8.3,0,12.4,0c0-8.3,0-16.5,0-25C202.3,356,210.5,356,218.6,356z"/>
	<ellipse cx="156.4" cy="443.4" rx="0" ry="0"/>
	<path d="M131.5,468.4c0,4.1,0,8.2,0,12.3c16.8,0,33.3,0,49.7,0c0-4.2,0-8.2,0-12.4c-4.2,0-8.1,0-12.3,0c0-8.4,0-16.5,0-24.8
		c-4.3,0-8.3,0-12.4,0c0,8.2,0,16.4,0,25C148,468.4,139.7,468.4,131.5,468.4z"/>
	<path d="M256.2,306.2L256.2,306.2C256.2,306.1,256.2,306.2,256.2,306.2C256.2,306.2,256.2,306.2,256.2,306.2
		C256.3,306.2,256.3,306.1,256.2,306.2C256.2,306.1,256.2,306.1,256.2,306.2C256.2,306.1,256.2,306.1,256.2,306.2z"/>
	<path d="M256.3,293.7c0,4.1,0,8.3,0,12.4c8.3,0,16.5,0,25,0c0,12.7,0,25,0,37.4c4.3,0,8.3,0,12.4,0c0-16.5,0-33,0-49.8
		C281.1,293.7,268.7,293.7,256.3,293.7z"/>
	<ellipse cx="293.7" cy="343.6" rx="0" ry="0"/>
	<path d="M81.5,293.8C81.5,293.8,81.5,293.8,81.5,293.8C81.5,293.7,81.4,293.8,81.5,293.8C81.4,293.8,81.5,293.8,81.5,293.8z"/>
	<path d="M106.3,331.1c0-4.3,0-8.3,0-12.5c-4.1,0-8.1,0-12.1,0c0-4.2,0-8.2,0-12.5c8.3,0,16.5,0,24.7,0c0-4.2,0-8.2,0-12.4
		c-0.7,0-1.3,0-2,0c-11.8,0-23.6,0.1-35.4,0.1c0,12.4,0.1,24.8,0.1,37.3C89.8,331.1,98.1,331.1,106.3,331.1z"/>
	<path d="M56.5,243.8c0-4.4,0-8.4,0-12.3c-4.3,0-8.3,0-12.3,0c0,8.3,0,16.4,0,24.8c4.1,0,8.2,0,12.4,0c0,4.3,0,8.3,0,12.4
		c4.3,0,8.3,0,12.4,0c0-8.3,0-16.6,0-24.9C64.9,243.8,60.8,243.8,56.5,243.8z"/>
	<path d="M69,268.7C69,268.7,69,268.7,69,268.7C69,268.7,69,268.7,69,268.7C69.1,268.7,69.1,268.7,69,268.7
		C69,268.7,69,268.7,69,268.7z"/>
	<path d="M19.3,256.4c0,8.3,0,16.5,0,24.9c4.2,0,8.2,0,12.5,0c0,4.3,0,8.3,0,12.3c4.2,0,8.2,0,12.3,0c0-8.2,0-16.4,0-24.9
		c-4.2,0-8.2,0-12.5,0c0-4.3,0-8.3,0-12.3C27.3,256.4,23.3,256.4,19.3,256.4z"/>
	<path d="M418.4,143.9C418.4,143.9,418.4,143.9,418.4,143.9C418.5,143.9,418.5,143.9,418.4,143.9
		C418.5,143.9,418.5,143.9,418.4,143.9C418.5,143.9,418.5,143.9,418.4,143.9z"/>
	<path d="M393.7,156.4C393.6,156.4,393.6,156.4,393.7,156.4C393.6,156.4,393.7,156.5,393.7,156.4
		C393.7,156.5,393.7,156.5,393.7,156.4z"/>
	<path d="M406.1,143.9c4.3,0,8.3,0,12.3,0c0-4.1,0-8.3,0-12.4c-4.1,0-8.2,0-12.5,0c0-4.4,0-8.4,0-12.4c-4.2,0-8.2,0-12.4,0
		c0,0.7,0,1.4,0,2c0,11.8,0.1,23.6,0.1,35.4c4.1,0,8.2,0,12.5,0C406.1,152,406.1,148,406.1,143.9z"/>
	<path d="M193.9,293.8c-4.3,0-8.3,0-12.5,0c0,8.3,0,16.5,0,24.8c4.1,0,8.2,0,12.5,0c0,4.3,0,8.4,0,12.3c4.3,0,8.3,0,12.4,0
		c0-8.4,0-16.6,0-24.7c-4,0-8.1,0-12.4,0C193.9,302,193.9,298,193.9,293.8z"/>
	<path d="M181.4,318.7C181.4,318.6,181.4,318.6,181.4,318.7C181.4,318.6,181.3,318.6,181.4,318.7
		C181.3,318.6,181.4,318.7,181.4,318.7z"/>
	<ellipse cx="206.3" cy="306.2" rx="0" ry="0"/>
	<path d="M31.6,368.5c4.1,0,8.2,0,12.6,0c0,4.4,0,8.4,0,12.4c8.4,0,16.5,0,24.7,0c0-4.2,0-8.2,0-12.5c-4.2,0-8.2,0-12.5,0
		c0-4.3,0-8.4,0-12.4c-8.3,0-16.5,0.1-24.8,0.1C31.6,360.2,31.6,364.4,31.6,368.5z"/>
	<path d="M56.4,356C56.5,356,56.5,356,56.4,356C56.5,356,56.4,356,56.4,356C56.4,356,56.4,356,56.4,356z"/>
	<path d="M31.6,368.6C31.6,368.6,31.6,368.5,31.6,368.6C31.6,368.5,31.6,368.5,31.6,368.6L31.6,368.6z"/>
	<circle cx="393.5" cy="206.3" r="0"/>
	<path d="M418.4,206.3c0-4.1,0-8.2,0-12.5c-4.3,0-8.3,0-12.5,0c0-8.4,0-16.6,0-24.8c-4.3,0-8.3,0-12.3,0c0,12.5,0,24.9,0,37.4
		C401.8,206.3,410.1,206.3,418.4,206.3z"/>
	<path d="M56.5,356C56.5,356,56.5,356,56.5,356C56.5,356,56.5,356,56.5,356C56.4,356,56.5,356,56.5,356z"/>
	<path d="M81.5,331.1C81.5,331.1,81.5,331.1,81.5,331.1C81.6,331.1,81.5,331.1,81.5,331.1L81.5,331.1
		C81.6,331.1,81.6,331.1,81.5,331.1C81.5,331.1,81.5,331.1,81.5,331.1C81.5,331.1,81.5,331.1,81.5,331.1z"/>
	<path d="M56.5,356c8.3,0,16.6,0,25,0c0-8.5,0-16.6,0-24.8c-8.3,0-16.5,0-25,0C56.5,339.6,56.5,347.8,56.5,356z"/>
	<path d="M456.1,480.7c8.4,0,16.5,0,24.6,0c0-4.2,0-8.1,0-12.4c-4.2,0-8.2,0-12.4,0c0-4.3,0-8.3,0-12.4c-4.1,0-8.2,0-12.3,0
		C456.1,464.4,456.1,472.6,456.1,480.7z"/>
	<path d="M468.4,455.9C468.4,455.9,468.4,455.9,468.4,455.9C468.4,455.9,468.4,455.9,468.4,455.9
		C468.4,455.9,468.4,455.9,468.4,455.9z"/>
	<path d="M181.3,44C181.3,44,181.4,44.1,181.3,44C181.4,44.1,181.4,44.1,181.3,44C181.4,44,181.3,44,181.3,44z"/>
	<path d="M193.9,31.5c4.2,0,8.2,0,12.2,0c0-4.2,0-8.2,0-12.2c-8.3,0-16.5,0-24.8,0c0,8.4,0,16.6,0,24.8c4.1,0,8.2,0,12.6,0
		C193.9,39.7,193.9,35.7,193.9,31.5z"/>
	<path d="M81.5,293.7C81.5,293.7,81.4,293.7,81.5,293.7C81.4,293.8,81.4,293.8,81.5,293.7C81.4,293.8,81.5,293.7,81.5,293.7z"/>
	<path d="M69.1,281.3c-4.4,0-8.4,0-12.4,0c0,4.2,0,8.2,0,12.4c8.3,0,16.5,0,24.7,0c0-8.3,0.1-16.7,0.1-25c-4.1,0-8.3,0-12.4,0
		C69.1,272.8,69.1,277,69.1,281.3z"/>
	<path d="M81.5,268.7C81.5,268.7,81.5,268.7,81.5,268.7L81.5,268.7C81.5,268.7,81.5,268.7,81.5,268.7z"/>
	<path d="M143.9,306.1C143.9,306.1,143.9,306.2,143.9,306.1C143.9,306.2,143.9,306.2,143.9,306.1C144,306.2,144,306.1,143.9,306.1
		C143.9,306.1,143.9,306.1,143.9,306.1z"/>
	<path d="M156.4,281.2C156.4,281.2,156.4,281.2,156.4,281.2C156.4,281.2,156.4,281.2,156.4,281.2
		C156.4,281.2,156.4,281.2,156.4,281.2C156.4,281.2,156.4,281.2,156.4,281.2z"/>
	<path d="M156.4,293.8c0-4.3,0-8.4,0-12.5c-8.3,0-16.6,0-24.9,0c0,8.3,0,16.5,0,24.9c4.3,0,8.4,0,12.4,0c0-4,0-8.1,0-12.4
		C148.1,293.8,152.1,293.8,156.4,293.8z"/>
	<path d="M281.3,44.1C281.3,44.1,281.3,44.1,281.3,44.1C281.3,44.1,281.3,44.2,281.3,44.1C281.3,44.2,281.3,44.1,281.3,44.1z"/>
	<path d="M318.6,31.8c-12.6,0-25,0-37.3,0c0,4.2,0,8.3,0,12.3c12.4,0,24.8-0.1,37.3-0.1C318.6,39.9,318.6,35.8,318.6,31.8z"/>
	<path d="M318.7,44C318.6,44,318.6,44,318.7,44C318.6,44.1,318.6,44.1,318.7,44L318.7,44z"/>
	<path d="M19.3,231.1c4.2,0,8.1,0,12.3,0c0-0.8,0-1.5,0-2.2c0-11.7-0.1-23.4-0.1-35.1c-4.1,0-8.2,0-12.2,0
		C19.3,206.5,19.3,218.9,19.3,231.1z"/>
	<path d="M31.5,193.8C31.5,193.8,31.5,193.8,31.5,193.8C31.5,193.8,31.5,193.7,31.5,193.8C31.5,193.7,31.5,193.8,31.5,193.8z"/>
	<path d="M43.9,331c0-8.4,0-16.5,0-24.7c-8.3,0-16.4,0-24.6,0c0,4.1,0,8.2,0,12.4c4.2,0,8.2,0,12.4,0c0,4.2,0,8.2,0,12.3
		C35.8,331,39.8,331,43.9,331z"/>
	<path d="M44,193.8C44,193.8,44,193.8,44,193.8C44.1,193.9,44.1,193.9,44,193.8C44.1,193.8,44.1,193.8,44,193.8
		C44.1,193.8,44.1,193.8,44,193.8z"/>
	<path d="M19.3,168.9c0,4.3,0,8.3,0,12.5c4.2,0,8.1,0,12.2,0c0,4.2,0,8.2,0,12.3c4.2,0,8.3,0.1,12.5,0.1c0-8.3,0-16.6,0-24.9
		C35.8,168.9,27.5,168.9,19.3,168.9z"/>
	<path d="M31.5,193.8C31.5,193.8,31.5,193.7,31.5,193.8C31.5,193.7,31.5,193.7,31.5,193.8C31.5,193.7,31.5,193.8,31.5,193.8z"/>
	<path d="M231.3,81.5L231.3,81.5C231.3,81.5,231.3,81.5,231.3,81.5C231.3,81.5,231.3,81.5,231.3,81.5
		C231.2,81.5,231.2,81.5,231.3,81.5C231.3,81.5,231.3,81.5,231.3,81.5C231.3,81.5,231.3,81.5,231.3,81.5z"/>
	<path d="M281.2,69.1C281.2,69,281.2,69,281.2,69.1C281.2,69,281.2,69,281.2,69.1C281.2,69,281.2,69,281.2,69.1
		C281.2,69.1,281.2,69.1,281.2,69.1z"/>
	<path d="M293.6,94c0-4,0-8.1,0-12.5c4.3,0,8.4,0,12.5,0c0-4.1,0-8.2,0-12.4c-8.5,0-16.7,0-24.9,0c0,8.3,0,16.6,0,24.9
		C285.4,94,289.5,94,293.6,94z"/>
	<circle cx="293.7" cy="94" r="0"/>
	<path d="M281.2,94C281.2,94,281.2,94,281.2,94C281.2,94,281.2,94,281.2,94C281.2,94,281.2,94,281.2,94C281.2,94,281.2,94,281.2,94z
		"/>
	<path d="M256.3,56.5C256.2,56.5,256.2,56.5,256.3,56.5C256.2,56.5,256.2,56.6,256.3,56.5C256.2,56.6,256.2,56.6,256.3,56.5
		C256.3,56.6,256.3,56.5,256.3,56.5z"/>
	<path d="M268.8,69C268.7,69,268.7,69,268.8,69C268.7,69,268.7,69,268.8,69C268.7,69.1,268.7,69.1,268.8,69
		C268.8,69,268.8,69,268.8,69z"/>
	<path d="M268.8,69c4.1,0,8.3,0,12.4,0c0-8.3,0.1-16.5,0.1-24.8c-8.4,0-16.7,0-25.1,0c0,4.1,0.1,8.2,0.1,12.3c4,0,8.1,0,12.5,0
		C268.8,60.8,268.8,64.9,268.8,69z"/>
	<path d="M281.3,44.1C281.3,44.1,281.3,44.2,281.3,44.1C281.3,44.2,281.3,44.2,281.3,44.1C281.3,44.2,281.3,44.1,281.3,44.1z"/>
	<path d="M256.1,44.2C256.1,44.2,256.2,44.2,256.1,44.2C256.2,44.2,256.2,44.2,256.1,44.2C256.2,44.1,256.1,44.2,256.1,44.2z"/>
	<path d="M81.6,380.9c8.3,0,16.5,0,24.7,0c0-4.2,0-8.2,0-12.2c-8.3,0-16.4,0-24.7,0C81.6,372.9,81.6,376.9,81.6,380.9z"/>
	<ellipse cx="368.6" cy="168.9" rx="0" ry="0"/>
	<path d="M381,193.7c0-8.2,0-16.5,0-24.8c-4.1,0-8.3,0-12.4,0c0,8.2,0,16.4,0,24.8C372.7,193.7,376.7,193.7,381,193.7z"/>
	<circle cx="119" cy="131.4" r="0"/>
	<path d="M118.9,119c-8.3,0-16.5,0-24.9,0c0,4.3,0,8.4,0,12.4c8.3,0,16.6,0,24.9,0C118.9,127.3,118.9,123.1,118.9,119z"/>
	<path d="M94,131.4C94,131.4,94,131.4,94,131.4C94,131.4,94,131.4,94,131.4C94,131.5,94,131.5,94,131.4C94,131.4,94,131.4,94,131.4z
		"/>
	<path d="M243.7,31.6C243.7,31.6,243.7,31.6,243.7,31.6L243.7,31.6C243.8,31.6,243.7,31.6,243.7,31.6z"/>
	<path d="M219,19.3c0,4.2,0,8.2,0,12.3c8.4,0,16.6,0,24.7,0c0-4.1,0-8.2,0-12.3C235.3,19.3,227.1,19.3,219,19.3z"/>
	<path d="M443.4,256.3C443.4,256.3,443.4,256.3,443.4,256.3C443.5,256.2,443.5,256.2,443.4,256.3
		C443.4,256.2,443.4,256.2,443.4,256.3C443.4,256.2,443.4,256.2,443.4,256.3z"/>
	<path d="M431,268.5c4.3,0,8.3,0,12.4,0c0-4.2,0-8.2,0-12.3c-4.1,0-8.3,0-12.4,0C431,260.4,431,264.5,431,268.5z"/>
	<ellipse cx="143.9" cy="318.6" rx="0" ry="0"/>
	<path d="M156.4,306.2c-4.2,0-8.3,0-12.4,0c0,4.1,0,8.3,0,12.4c4.1,0,8.3,0,12.4,0C156.4,314.6,156.4,310.5,156.4,306.2z"/>
	<path d="M443.4,231.2c0-4.1,0-8.2,0-12.4c-4.3,0-8.4,0-12.4,0c0,4,0,8.1,0,12.4C435.2,231.2,439.3,231.2,443.4,231.2z"/>
	<path d="M431,218.8C431,218.8,431,218.8,431,218.8C431,218.8,430.9,218.8,431,218.8C430.9,218.8,430.9,218.8,431,218.8
		C430.9,218.8,431,218.8,431,218.8z"/>
	<path d="M31.6,356C31.6,356.1,31.6,356.1,31.6,356C31.6,356.1,31.6,356.1,31.6,356L31.6,356C31.6,356.1,31.6,356.1,31.6,356
		C31.6,356.1,31.6,356.1,31.6,356C31.6,356,31.6,356,31.6,356z"/>
	<path d="M19.3,343.8c0,4.2,0,8.2,0,12.3c4.2,0,8.2,0,12.3,0c0-4.1,0-8.2,0-12.3C27.3,343.8,23.3,343.8,19.3,343.8z"/>
	<path d="M94.2,355.9c4.2,0,8.1,0,12.2,0c0-4.1,0-8,0-12.2c-4.2,0-8.2,0-12.2,0C94.2,348,94.2,352,94.2,355.9z"/>
	<path d="M306,343.6c-4.1,0-8.2,0-12.3,0c0,4.1,0,8.3,0,12.4c4,0,8.1,0,12.3,0C306,351.9,306,347.9,306,343.6z"/>
	<ellipse cx="293.7" cy="356.1" rx="0" ry="0"/>
	<path d="M318.6,94c0-4.1,0-8.2,0-12.4c-4.3,0-8.4,0-12.4,0c0,4.1,0,8.3,0,12.4C310.3,94,314.5,94,318.6,94z"/>
	<path d="M318.7,94C318.6,94,318.6,94,318.7,94C318.6,94,318.6,94,318.7,94C318.6,94,318.7,94,318.7,94z"/>
	<path d="M306.2,94C306.2,94,306.1,94,306.2,94C306.1,94,306.1,94,306.2,94C306.1,94,306.2,94,306.2,94C306.2,94,306.2,94,306.2,94z
		"/>
	<path d="M306.2,81.5C306.2,81.5,306.2,81.5,306.2,81.5C306.2,81.5,306.1,81.5,306.2,81.5C306.1,81.5,306.1,81.5,306.2,81.5
		C306.1,81.5,306.2,81.5,306.2,81.5z"/>
	<path d="M455.9,343.6C455.9,343.6,455.9,343.6,455.9,343.6C456,343.6,455.9,343.6,455.9,343.6L455.9,343.6
		C456,343.6,456,343.6,455.9,343.6C455.9,343.6,455.9,343.6,455.9,343.6C455.9,343.6,455.9,343.6,455.9,343.6z"/>
	<path d="M443.6,355.9c4.2,0,8.2,0,12.3,0c0-4.2,0-8.2,0-12.3c-4.1,0-8.2,0-12.3,0C443.6,347.9,443.6,351.9,443.6,355.9z"/>
	<path d="M181.4,94C181.4,94,181.3,94,181.4,94C181.3,94,181.3,94,181.4,94C181.3,94,181.4,94,181.4,94C181.4,94,181.4,94,181.4,94z
		"/>
	<path d="M31.6,368.6C31.6,368.6,31.6,368.5,31.6,368.6C31.6,368.5,31.6,368.6,31.6,368.6C31.6,368.6,31.6,368.6,31.6,368.6z"/>
	<path d="M19.3,380.9c4.2,0,8.2,0,12.3,0c0-4.2,0-8.2,0-12.3c-4.1,0-8.2,0-12.3,0C19.3,372.9,19.3,376.9,19.3,380.9z"/>
	<path d="M430.9,218.8c0-4.1,0-8.2,0-12.4c-4.3,0-8.4,0-12.4,0c0,4.1,0,8.3,0,12.4C422.6,218.8,426.8,218.8,430.9,218.8z"/>
	<path d="M418.5,206.3C418.5,206.3,418.5,206.3,418.5,206.3C418.5,206.3,418.5,206.3,418.5,206.3
		C418.4,206.3,418.4,206.3,418.5,206.3C418.5,206.3,418.5,206.3,418.5,206.3z"/>
	<path d="M218.9,381.2c0,4.1,0,8.2,0,12.3c4.1,0,8.1,0,12.2,0c0-4.3,0-8.3,0-12.3C226.9,381.2,223,381.2,218.9,381.2z"/>
	<path d="M206.3,69.2c-4.3,0-8.3,0-12.4,0c0,4.2,0,8.2,0,12.3c4.1,0,8.3,0,12.4,0C206.3,77.4,206.3,73.3,206.3,69.2z"/>
	<path d="M206.3,81.5L206.3,81.5C206.3,81.6,206.3,81.6,206.3,81.5C206.4,81.5,206.4,81.5,206.3,81.5
		C206.3,81.5,206.3,81.5,206.3,81.5C206.3,81.5,206.3,81.5,206.3,81.5C206.3,81.5,206.3,81.5,206.3,81.5z"/>
	<path d="M193.9,81.5C193.8,81.5,193.8,81.5,193.9,81.5C193.8,81.5,193.8,81.5,193.9,81.5C193.8,81.5,193.8,81.5,193.9,81.5
		C193.9,81.5,193.9,81.5,193.9,81.5z"/>
	<path d="M144,406C143.9,406,143.9,406,144,406C143.9,406,143.9,406,144,406C143.9,406,143.9,406,144,406C144,406,144,406,144,406z"
		/>
	<path d="M156.4,406c0-4.1,0-8.2,0-12.4c-4.3,0-8.4,0-12.4,0c0,4.1,0,8.3,0,12.4C148.1,406,152.2,406,156.4,406z"/>
	<ellipse cx="143.9" cy="393.5" rx="0" ry="0"/>
	<path d="M330.9,56.4c0-4.2,0-8.2,0-12.3c-4.2,0-8.2,0-12.3,0c0,4.1,0,8.2,0,12.3C322.9,56.4,327,56.4,330.9,56.4z"/>
	<path d="M318.7,44C318.7,44,318.6,44.1,318.7,44C318.6,44.1,318.6,44.1,318.7,44C318.7,44.1,318.7,44.1,318.7,44z"/>
	<path d="M393.6,156.5c-4.1,0-8.3,0-12.5,0c0,4.3,0,8.3,0,12.3c4.1,0,8.3,0,12.4,0C393.5,164.7,393.5,160.6,393.6,156.5z"/>
	<path d="M393.6,156.4C393.6,156.5,393.6,156.5,393.6,156.4C393.6,156.5,393.6,156.5,393.6,156.4
		C393.7,156.5,393.6,156.4,393.6,156.4z"/>
	<path d="M381.1,168.8C381,168.8,381,168.8,381.1,168.8C381,168.9,381,168.9,381.1,168.8C381,168.9,381,168.9,381.1,168.8
		C381.1,168.9,381.1,168.9,381.1,168.8z"/>
	<path d="M393.5,168.9L393.5,168.9C393.5,168.9,393.5,168.9,393.5,168.9C393.6,168.9,393.6,168.9,393.5,168.9
		C393.5,168.8,393.5,168.8,393.5,168.9C393.5,168.9,393.5,168.9,393.5,168.9C393.5,168.9,393.5,168.9,393.5,168.9z"/>
	<path d="M268.7,431C268.7,431,268.7,431,268.7,431C268.8,431,268.8,430.9,268.7,431C268.7,430.9,268.7,430.9,268.7,431
		C268.7,430.9,268.7,431,268.7,431z"/>
	<ellipse cx="268.7" cy="443.4" rx="0" ry="0"/>
	<circle cx="262.5" cy="437.2" r="8.8"/>
	<path d="M243.8,31.6c0,4.1,0,8.2,0,12.5c4.3,0,8.3,0,12.3,0c0-4.2,0-8.3,0.1-12.5C252.1,31.6,247.9,31.6,243.8,31.6z"/>
	<path d="M243.7,31.6C243.7,31.6,243.8,31.6,243.7,31.6C243.8,31.6,243.8,31.6,243.7,31.6C243.8,31.6,243.7,31.6,243.7,31.6z"/>
	<path d="M256.1,44.2C256.1,44.2,256.2,44.1,256.1,44.2C256.2,44.1,256.1,44.1,256.1,44.2C256.1,44.2,256.1,44.2,256.1,44.2z"/>
	<path d="M455.9,443.2c0-4.2,0-8.2,0-12.3c-4.1,0-8.2-0.1-12.3-0.1c0,4.1,0,8.3,0,12.3C447.8,443.2,451.8,443.2,455.9,443.2z"/>
	<path d="M443.5,430.8C443.6,430.8,443.5,430.9,443.5,430.8C443.5,430.9,443.5,430.9,443.5,430.8
		C443.5,430.9,443.5,430.8,443.5,430.8z"/>
	<path d="M455.9,430.9C455.9,430.9,455.9,431,455.9,430.9C455.9,431,455.9,431,455.9,430.9C456,431,455.9,430.9,455.9,430.9z"/>
	<path d="M268.6,19.3c-4.2,0-8.2,0-12.3,0c0,4.2,0,8.2,0,12.3c4.1,0,8.2,0,12.3,0C268.6,27.3,268.6,23.3,268.6,19.3z"/>
	<path d="M256.3,31.6C256.2,31.6,256.2,31.6,256.3,31.6C256.2,31.6,256.2,31.6,256.3,31.6L256.3,31.6
		C256.2,31.6,256.2,31.6,256.3,31.6C256.2,31.6,256.2,31.6,256.3,31.6C256.3,31.6,256.3,31.6,256.3,31.6z"/>
	<path d="M206.5,468.4c4.2,0,8.2,0,12.3,0c0-4.1,0-8.3,0-12.4c-4.1,0-8.2,0-12.3,0C206.5,460.2,206.5,464.2,206.5,468.4z"/>
	<path d="M218.8,455.9C218.8,455.9,218.8,455.9,218.8,455.9C218.8,455.9,218.8,455.9,218.8,455.9L218.8,455.9
		C218.8,455.9,218.8,455.9,218.8,455.9C218.8,455.9,218.8,455.9,218.8,455.9C218.8,455.9,218.8,455.9,218.8,455.9z"/>
	<path d="M231.1,480.7c0-4.2,0-8.2,0-12.3c-4.2,0-8.2,0-12.3,0c0,4.1,0,8.2,0,12.3C223.1,480.7,227.1,480.7,231.1,480.7z"/>
	<path d="M218.8,468.4C218.8,468.4,218.8,468.4,218.8,468.4C218.8,468.4,218.8,468.4,218.8,468.4
		C218.8,468.4,218.8,468.4,218.8,468.4C218.8,468.4,218.8,468.4,218.8,468.4C218.8,468.4,218.8,468.4,218.8,468.4
		C218.8,468.4,218.8,468.4,218.8,468.4z"/>
	<path d="M268.9,256.3c4.2,0,8.2,0,12.2,0c0,4.3,0,8.3,0,12.5c-4.2,0-8.1,0-12.2,0c0,4.1,0,8.1,0,12.2c8.4,0,16.5,0,24.7,0
		c0-12.5,0-24.8,0-37.2c-8.3,0-16.4,0-24.6,0C268.9,248,268.9,252,268.9,256.3z"/>
	<path d="M331,381.1c-4.2,0-8.2,0-12.2,0c0,4.2,0,8.2,0,12.2c8.3,0,16.5,0,24.8,0c0-12.5,0-24.9,0-37.2c-4.1,0-8.2,0-12.6,0
		C331,364.6,331,372.7,331,381.1z"/>
	<path d="M343.6,356.1C343.6,356.1,343.6,356,343.6,356.1C343.6,356.1,343.6,356.1,343.6,356.1C343.6,356.1,343.6,356.1,343.6,356.1
		z"/>
	<path d="M331.2,430.9C331.1,430.9,331.1,430.9,331.2,430.9L331.2,430.9C331.2,431,331.2,430.9,331.2,430.9z"/>
	<path d="M343.4,406.2c-4.2,0-8.2,0-12.3,0c0,8.4,0,16.6,0,24.7c4.1,0,8.2,0,12.3,0C343.4,422.5,343.4,414.3,343.4,406.2z"/>
	<path d="M318.6,318.6C318.6,318.6,318.6,318.6,318.6,318.6C318.6,318.7,318.6,318.7,318.6,318.6L318.6,318.6
		C318.6,318.7,318.7,318.7,318.6,318.6C318.7,318.6,318.7,318.6,318.6,318.6C318.7,318.6,318.6,318.6,318.6,318.6z"/>
	<path d="M306.3,306.3c0,4.2,0,8.2,0,12.3c4.2,0,8.2,0,12.3,0c0-4.1,0-8.2,0-12.3C314.3,306.3,310.3,306.3,306.3,306.3z"/>
	<path d="M243.6,231.1c0-4.2,0-8.2,0-12.3c-4.2,0-8.2,0-12.3,0c0,4.1,0,8.2,0,12.3C235.6,231.1,239.6,231.1,243.6,231.1z"/>
	<path d="M231.3,218.8C231.3,218.8,231.3,218.8,231.3,218.8C231.3,218.8,231.3,218.8,231.3,218.8L231.3,218.8
		C231.3,218.8,231.3,218.8,231.3,218.8C231.2,218.8,231.2,218.8,231.3,218.8C231.3,218.8,231.3,218.8,231.3,218.8z"/>
	<path d="M318.8,431c0,4.3,0,8.3,0,12.5c4.2,0,8.2,0,12.2,0c0-4.2,0.1-8.3,0.1-12.5C327,431,322.9,431,318.8,431z"/>
	<path d="M331,443.6C331,443.6,331.1,443.5,331,443.6C331.1,443.5,331,443.5,331,443.6C331,443.5,331,443.5,331,443.6z"/>
	<path d="M331.1,430.9C331.1,430.9,331.1,431,331.1,430.9C331.1,431,331.1,431,331.1,430.9C331.2,431,331.1,430.9,331.1,430.9z"/>
	<path d="M119,181.3C119,181.3,118.9,181.3,119,181.3C118.9,181.3,118.9,181.4,119,181.3C118.9,181.4,119,181.4,119,181.3
		C119,181.4,119,181.3,119,181.3z"/>
	<path d="M168.9,131.5C168.9,131.5,168.8,131.4,168.9,131.5C168.8,131.4,168.8,131.4,168.9,131.5
		C168.9,131.5,168.9,131.5,168.9,131.5z"/>
	<path d="M156.6,143.7c4.2,0,8.2,0,12.3,0c0-4.2,0-8.2,0-12.3c-4.1,0-8.2,0-12.3,0C156.6,135.7,156.6,139.8,156.6,143.7z"/>
	<path d="M355.9,243.6c0-4.2,0-8.2,0-12.3c-4.2,0-8.2,0-12.3,0c0,4.1,0,8.2,0,12.3C347.9,243.6,351.9,243.6,355.9,243.6z"/>
	<path d="M343.6,231.3C343.6,231.3,343.6,231.3,343.6,231.3C343.6,231.2,343.6,231.3,343.6,231.3L343.6,231.3
		C343.6,231.2,343.6,231.2,343.6,231.3C343.6,231.3,343.6,231.3,343.6,231.3C343.6,231.3,343.6,231.3,343.6,231.3z"/>
	<path d="M405.9,393.6c-4.1,0-8,0-12.2,0c0,4.2,0,8.2,0,12.2c4.2,0,8.2,0,12.2,0C405.9,401.6,405.9,397.7,405.9,393.6z"/>
	<path d="M118.9,193.8C118.9,193.8,118.9,193.8,118.9,193.8C118.9,193.9,119,193.9,118.9,193.8C119,193.8,119,193.8,118.9,193.8
		C119,193.8,118.9,193.8,118.9,193.8z"/>
	<path d="M80.5,44.3c-12.2,0-24.3,0-36.3,0c0,12.1,0,24.1,0,36.2c12.1,0,24.2,0,36.3,0C80.5,68.3,80.5,56.3,80.5,44.3z"/>
	<path d="M418.6,80.4c12.2,0,24.2,0,36.2,0c0-12.2,0-24.2,0-36.2c-12.2,0-24.1,0-36.2,0C418.6,56.3,418.6,68.2,418.6,80.4z"/>
	<path d="M80.4,418.7c-12.2,0-24.2,0-36.2,0c0,12.2,0,24.1,0,36.2c12.1,0,24,0,36.2,0C80.4,442.6,80.4,430.6,80.4,418.7z"/>
</g>
<g>
	
		<image style="overflow:visible;opacity:0.75;" width="137" height="138" xlink:href="9DEDD3DAD5A88BC5.png"  transform="matrix(1 0 0 1 184 182)">
	</image>
	<g>
		<path class="st0" d="M283.3,309.2h-64.1c-15,0-27.1-12.1-27.1-27.1v-64.1c0-15,12.1-27.1,27.1-27.1h64.1c15,0,27.1,12.1,27.1,27.1
			v64.1C310.4,297,298.2,309.2,283.3,309.2z"/>
	</g>
</g>
<g>
	<g>
		<g>
			<path class="st1" d="M264.1,251.6c0,0,0,2.5,0,2.5c0,0.5-0.1,0.9-0.4,1.3c-0.2,0.3-0.4,0.5-0.7,0.8c-0.2,0.1-0.3,0.1-0.5,0.2v1.7
				c1.3-0.1,2.4-0.9,3-2c0,0,0,0,0,0c0-0.1,0.1-0.1,0.1-0.2c0.2-0.5,0.3-1.1,0.3-1.7c0,0,0,0,0,0c0,0,0,0,0,0v-2.5H264.1z"/>
			<rect x="270.1" y="251.6" class="st1" width="1.8" height="6.5"/>
			<path class="st1" d="M269.7,248.5c-0.2-0.1-0.4-0.2-0.5-0.3h4.6V242h-11.7v6.3h4.5c-0.1,0.1-0.3,0.1-0.5,0.3
				c-1.5,0.8-3,1.4-4.5,1.7v1.8c1.4-0.3,2.6-0.7,3.7-1.2c1.1-0.5,1.8-1,2.6-1.5c0,0,0,0,0,0v0c0,0,0,0,0,0c0,0,0,0,0,0v0
				c0,0,0,0,0,0c0.8,0.5,1.5,1,2.6,1.5c1.1,0.5,2.3,0.9,3.7,1.2v-1.8C272.6,249.9,271.2,249.3,269.7,248.5z M268.8,243.5h3.2v0.9
				h-3.2V243.5z M268.8,245.8h3.2v0.9h-3.2V245.8z M263.8,243.5h3.2v0.9h-3.2V243.5z M263.8,246.8v-0.9h3.2v0.9H263.8z"/>
		</g>
		<g>
			<rect x="247.3" y="242" class="st1" width="10.9" height="1.5"/>
			<path class="st1" d="M259,250.1v-1.5h-12.6v1.5h2.7l-1.7,7.3c-0.1,0.3,0.2,0.6,0.5,0.6h10.1c0.3,0,0.6-0.3,0.5-0.7l-1.1-3.1h-1.7
				h-0.1l0.8,2.2h-6.9l1.5-6.4H259z"/>
		</g>
		<g>
			<path class="st1" d="M276.8,242V258h1.6v-14.6h0h9.3c0,0,0,10.9,0,10.9c0,0.4-0.1,0.8-0.4,1.2c-0.2,0.3-0.4,0.5-0.7,0.7
				c-0.1,0.1-0.3,0.2-0.5,0.3v1.5c0.5-0.1,1-0.2,1.4-0.5c0.5-0.3,1-0.8,1.3-1.3c0,0,0.1-0.2,0.1-0.2c0.2-0.5,0.3-1,0.3-1.6
				c0,0,0,0,0,0c0,0,0,0,0,0V242H276.8z"/>
			<path class="st1" d="M282.8,244.9h-1.5c-0.3,1-0.4,1.7-0.5,1.9c-0.1-0.3-0.2-0.9-0.5-1.9h-1.5c0.1,0.2,0.9,3.3,1.3,5.2
				c0,0,0,0,0,0h0c0,0,0,0,0,0c0,0,0,0,0,0h0c0,0,0,0,0,0c-0.4,1.9-1.2,5-1.3,5.2h1.5c0.3-1,0.4-1.7,0.5-1.9
				c0.1,0.3,0.2,0.9,0.5,1.9h1.5c-0.1-0.2-0.9-3.3-1.3-5.2c0,0,0,0,0,0h0c0,0,0,0,0,0c0,0,0,0,0,0h0c0,0,0,0,0,0
				C282,248.2,282.8,245.1,282.8,244.9z"/>
			<path class="st1" d="M287.2,255.4c-0.1-0.2-0.9-3.3-1.3-5.2c0,0,0,0,0,0h0c0,0,0,0,0,0c0,0,0,0,0,0h0c0,0,0,0,0,0
				c0.4-1.9,1.2-5,1.3-5.2h-1.5c-0.3,1-0.4,1.7-0.5,1.9c-0.1-0.3-0.2-0.9-0.5-1.9h-1.5c0.1,0.2,0.9,3.3,1.3,5.2c0,0,0,0,0,0h0
				c0,0,0,0,0,0c0,0,0,0,0,0h0c0,0,0,0,0,0c-0.4,1.9-1.2,5-1.3,5.2h1.5c0.3-1,0.4-1.7,0.5-1.9c0.1,0.3,0.2,0.9,0.5,1.9H287.2z"/>
		</g>
		<g>
			<rect x="292.2" y="256.5" class="st1" width="4.3" height="1.5"/>
			<path class="st1" d="M297,251.2v6.8h7v-6.8H297z M302.1,256.5h-3.4v-3.7h3.4V256.5z"/>
			<path class="st1" d="M296.4,255.5V254h-2.1c1-3.1,1.7-5.4,2.3-7.6H295l-0.3,1h-0.7l1.6-5.4h-1.7l-2,6.9l2.3,0
				c-0.6,2.2-1.4,4.5-2.1,6.6H296.4z"/>
			<path class="st1" d="M303.2,245.8c0.4-0.7,0.7-1.4,0.9-2c0.2-0.6,0.3-1,0.3-1.3h-5.2l0.2-0.5h-1.9l-0.4,1.4l-0.6,2
				c0.3,0.3,0.9,0.8,1.5,1.4c0.5,0.4,0.9,0.8,1.1,1c-0.8,0.5-1.7,0.8-2.6,1v1.7c0.1,0,0.5-0.1,0.5-0.1c1.4-0.3,2.6-0.9,3.6-1.6
				c0.2,0.1,0.5,0.3,0.8,0.5c0.9,0.5,1.8,0.9,2.7,1.1c0.2,0.1,0.3,0.1,0.4,0.1v-1.7c-0.9-0.2-1.7-0.6-2.6-1.1
				C302.4,247,302.9,246.5,303.2,245.8z M300.5,246.6l-0.1-0.1c-0.6-0.5-1.1-1-1.5-1.4c-0.1-0.1-0.1-0.2-0.2-0.2l0.3-0.8h0.2h3.3
				c-0.1,0.3-0.3,0.7-0.5,1C301.4,245.6,301,246.1,300.5,246.6z"/>
		</g>
	</g>
	<path class="st1" d="M231.8,238.8c-2.1-0.1-4.1,0.3-5.8,1.2c-1.4,0.7-2.6,1.7-3.5,2.8c-0.3,0.3-0.6,0.7-0.8,1.1
		c-0.2,0.3-0.3,0.5-0.5,0.7l-6.9,9.7c-1.2,1.6-3,2.7-5,2.8c-0.1,0-0.1,0-0.2,0c-1.9,0-3.7-0.7-5.1-2c-1.7-1.7-2.5-4.1-2-6.5
		c0.2-1,0.6-1.9,1.2-2.7c1.4-1.9,3.5-3,5.8-3c1.6,0,3.2,0.5,4.4,1.6c0.9,0.7,2.1,0.6,2.9-0.2c0.8-0.9,0.7-2.2-0.2-3
		c-2-1.6-4.5-2.5-7.1-2.5c-3.4,0-6.7,1.5-8.8,4.3c-1.2,1.6-2.1,3.5-2.3,5.5c-0.5,3.6,0.8,7.1,3.3,9.6c2.1,2,4.9,3.2,7.8,3.2
		c0.1,0,0.2,0,0.2,0c0.1,0,0.2,0,0.3,0c3.2-0.2,6.2-1.8,8.1-4.5l2.6-3.7c1.3,4.7,5.7,8.2,10.8,8.2c6.3,0,11.4-5.2,11.2-11.6
		C242.2,243.9,237.6,239.1,231.8,238.8z M231.1,257.1c-3.9,0-7.1-3.2-7.1-7.1c0-1.3,0.3-2.5,0.9-3.5l0.8-1.2
		c1.3-1.5,3.2-2.4,5.4-2.4c3.9,0,7.1,3.2,7.1,7.1C238.2,253.9,235,257.1,231.1,257.1z"/>
</g>
</svg>
