<?xml version="1.0" encoding="utf-8"?>
<!-- Generator: Adobe Illustrator 25.3.0, SVG Export Plug-In . SVG Version: 6.00 Build 0)  -->
<svg version="1.1" id="图层_1" xmlns="http://www.w3.org/2000/svg" xmlns:xlink="http://www.w3.org/1999/xlink" x="0px" y="0px"
	 viewBox="0 0 1024 1024" style="enable-background:new 0 0 1024 1024;" xml:space="preserve">
<style type="text/css">
	.st0{fill:#FF7BAC;}
	.st1{fill:#FFFFFF;}
	.st2{opacity:0.4;fill:#FFFFFF;enable-background:new    ;}
</style>
<g>
	<path class="st0" d="M64,512c0,247.42,200.58,448,448,448s448-200.58,448-448S759.42,64,512,64S64,264.58,64,512z"/>
	<path class="st1" d="M765.82,526.06c-16.93-21.5-38.18-35.04-63.88-40.75c3.51-10.47,5.27-21.25,5.27-32.35
		c0-24.63-8.15-45.57-24.45-62.81c-16.3-17.18-36.11-25.83-59.36-25.83c-16.86,0-32.28,4.95-46.26,14.79
		c-12.22-22.13-29.09-39.99-50.65-53.53c-21.5-13.54-44.95-20.31-70.27-20.31c-25.33,0-48.71,6.64-70.27,19.87
		c-21.57,13.29-38.55,31.28-51.09,54.04c-12.47,22.82-18.74,47.45-18.74,73.91v7.4c-24.45,9.21-44.51,25.26-60.24,48.02
		c-15.73,22.75-23.57,48.58-23.57,77.54c0,2.9,0.09,5.78,0.25,8.63c15.39-3.05,31.64-4.69,48.44-4.69
		c96.93,0,175.51,54.44,175.51,121.58c0,2.5-0.12,4.98-0.34,7.44h223.22c20.37,0,39.12-5.2,56.29-15.67
		c17.18-10.47,30.72-24.76,40.62-42.94c9.9-18.12,14.86-37.99,14.86-59.55C791.15,572.57,782.68,547.62,765.82,526.06L765.82,526.06
		z M585.85,566.68l-92.53,97.92c-2.32,2.44-5.52,3.7-9.59,3.7c-4.07,0-7.27-1.25-9.59-3.7l-92.53-97.92
		c-4.07-4.26-4.95-9.53-2.63-15.67c2.32-6.14,6.71-9.21,13.1-9.21h56.73V438.36c0-4.26,1.32-7.84,3.95-10.59
		c2.63-2.76,5.95-4.14,10.03-4.14h41.94c4.08,0,7.4,1.38,10.03,4.14c2.63,2.76,3.95,6.27,3.95,10.59v103.43h56.73
		c6.39,0,10.78,3.07,13.1,9.21S589.99,562.42,585.85,566.68L585.85,566.68z"/>
	<path class="st2" d="M280.99,589.99c-16.8,0-33.05,1.64-48.44,4.69c1.21,20.72,6.82,40.03,16.8,57.88
		c11.35,20.31,26.64,36.42,45.82,48.46c19.24,11.97,40.18,17.99,62.87,17.99h98.12c0.21-2.46,0.34-4.94,0.34-7.44
		C456.5,644.42,377.92,589.99,280.99,589.99z"/>
</g>
</svg>
