<?xml version="1.0" encoding="utf-8"?>
<!-- Generator: Adobe Illustrator 25.4.1, SVG Export Plug-In . SVG Version: 6.00 Build 0)  -->
<svg version="1.1" id="图层_1" xmlns="http://www.w3.org/2000/svg" xmlns:xlink="http://www.w3.org/1999/xlink" x="0px" y="0px"
	 viewBox="0 0 1024 755" style="enable-background:new 0 0 1024 755;" xml:space="preserve">
<style type="text/css">
	.st0{fill:#FFFFFF;}
</style>
<g id="路径_1987_00000124860950415082348150000010933816690154754435_">
	<path class="st0" d="M74.8,755.3c-42.2-0.3-76-34.7-75.7-76.7V77.2C-1.2,35.4,32.6,1.1,74.6,0.7h896.8C987.5,1,1002,8.9,1010.7,22
		c14.5,21.9,8.5,51.5-13.3,66L526,400.5c-8.9,5.9-20.4,6-29.4,0.2L142.2,173.5c-12.5-8-16.2-24.7-8.1-37.2
		c8-12.5,24.7-16.2,37.2-8.1l339.6,217.7L950.3,54.6H74.8C62.8,54.7,52.9,64.8,53,77v601.8c-0.1,12.4,9.8,22.5,22,22.6h872.4
		c12-0.1,21.9-10.1,21.8-22.4V261.9c0-14.9,12.1-26.9,26.9-26.9s26.9,12.1,26.9,26.9v416.9c0.3,41.7-33.5,76.1-75.5,76.5H74.8z"/>
</g>
</svg>
