<?xml version="1.0" encoding="utf-8"?>
<!-- Generator: Adobe Illustrator 25.4.1, SVG Export Plug-In . SVG Version: 6.00 Build 0)  -->
<svg version="1.1" id="图层_1" xmlns="http://www.w3.org/2000/svg" xmlns:xlink="http://www.w3.org/1999/xlink" x="0px" y="0px"
	 viewBox="0 0 1012 1024" style="enable-background:new 0 0 1012 1024;" xml:space="preserve">
<style type="text/css">
	.st0{opacity:0.71;}
	.st1{fill:#FFFFFF;}
</style>
<g id="组_111" transform="translate(655.321 -48.66)" class="st0">
	<g id="路径_12103">
		<path class="st1" d="M356.5,399.2h-62.3v-32.1h62.3V399.2z M295.6,397.8h59.5v-29.3h-59.5V397.8L295.6,397.8z M211.3,187.8
			l-24.8-20.4l46.3-56.3l24.8,20.4L211.3,187.8z M188.5,167.2l22.6,18.6l44.5-54.2L233,113L188.5,167.2z M-28.5,128.4l-15.3-73.3
			l31.4-6.5l15.3,73.3L-28.5,128.4z M-42.1,56.2l14.7,70.6l28.7-6l-14.7-70.6L-42.1,56.2z"/>
	</g>
	<g id="路径_12104">
		<path class="st1" d="M-0.9,939.2h-255.8V802h-132.2c-31.4-0.1-56.9-25.7-56.9-57.1V596.7h-59.5l65.4-104l0.7-5.1
			c18-131.1,64.7-218.6,138.8-260.2c53.8-30.3,142.9-26.9,172.2-25.7c5.3,0.2,9.5,0.4,10.1,0.2c0,0-0.1,0-0.2,0.1l1,1
			c-0.5,0.5-1.4,0.5-11,0.1c-29.2-1.1-118-4.5-171.5,25.6c-73.7,41.3-120.2,128.5-138.1,259.2l-0.8,5.4l-0.1,0.1l-64.1,101.9h58.3
			v149.6c0,30.6,24.8,55.6,55.4,55.7h133.6v137.2h253V734.2h1.4L-0.9,939.2L-0.9,939.2z"/>
	</g>
	<g id="路径_12105">
		<path class="st1" d="M-9.2,916.7h-237.2V784.7h-128.1c-30.1,0-54.7-24.6-54.8-54.8V587.1h-57.4l0.5-0.7l62.6-99.1l0.7-4.9
			c17.4-126.1,62.5-210.3,134.1-250.3c52.1-29.1,135.6-23.4,163.1-21.5l2,0.1l-0.1,0.9l-2-0.1c-27.4-1.9-110.7-7.6-162.6,21.4
			c-71.3,39.8-116.3,123.8-133.7,249.6l-0.8,5.2l-62.2,98.4h56.6v143.7c0,29.6,24.2,53.8,53.8,53.8h129v132.1h235.3V736.9h0.9
			L-9.2,916.7L-9.2,916.7z"/>
	</g>
	<g id="路径_12106">
		<path class="st1" d="M21.5,971.9h-326.3V841.3h-79.7c-55.4,0-100.4-45.2-100.4-100.8v-94.5h-94.4l0.5-0.7l101.3-161.1
			c19.9-137.3,72-230.5,155-276.9c78.3-43.8,158.4-31.6,219.4-16.1l-0.2,0.9c-60.8-15.5-140.7-27.6-218.7,16
			c-82.7,46.3-134.7,139.2-154.6,276.3l-0.1,0.2L-577.6,645h93.7v95.5c0,55.1,44.6,99.9,99.5,99.9h80.7v130.6H20.6V734.7h0.9V971.9z
			"/>
	</g>
	<g id="路径_12107">
		<path class="st1" d="M21.8,992.2h-335V858.3h-81.5c-56.9,0-103.2-46.5-103.2-103.6V658h-97l0.7-1.1l103.8-165.1
			c20.4-140.8,73.9-236.4,159.1-284c80.9-45.2,171.2-35.7,232.7-19.8l-0.4,1.4c-61.3-15.9-151.2-25.4-231.7,19.6
			c-84.8,47.4-138,142.7-158.4,283.1l0,0.1l-103.3,164.3h95.9v98.1c0,56.4,45.6,102.2,101.8,102.2h82.9v133.9H20.3v-229h1.4V992.2z"
			/>
	</g>
	<g id="路径_12108">
		<path class="st1" d="M30.4,1003.7h-344.2V865.9h-84.1c-58.4,0-105.9-47.7-105.9-106.3v-99.7h-99.6l0.5-0.7l106.8-169.9
			c21-144.8,76-243,163.5-292c93.8-52.4,191.7-25.3,238.8-12.2l-0.3,0.9c-46.9-13-144.6-40.1-238.1,12.2
			c-87.3,48.8-142.1,146.9-163.1,291.4l-0.1,0.2L-601.7,659h98.8v100.7c0,58.1,47.1,105.4,104.9,105.4h85.1v137.7H29.4V735.2h0.9
			C30.4,735.2,30.4,1003.7,30.4,1003.7z"/>
	</g>
	<g id="路径_12109">
		<path class="st1" d="M30.6,1019h-350.8V878.8h-85.4c-59.6,0-108-48.7-108-108.5V669h-101.6l0.7-1.1L-505.8,495
			c21.4-147.5,77.4-247.5,166.6-297.4c40.3-22.5,86.6-33.6,137.9-33.1c34.9,0.4,71.7,6.1,112.6,17.4l-0.4,1.3
			c-40.8-11.3-77.5-17-112.2-17.4c-51-0.5-97.1,10.5-137.2,32.9c-88.8,49.6-144.6,149.4-165.9,296.5l0,0.1l-0.1,0.1l-108.2,172
			h100.4v102.7c0,59,47.8,107.1,106.6,107.1h86.8v140.2H29.2V777.7h1.4L30.6,1019L30.6,1019z"/>
	</g>
	<g id="路径_12110">
		<path class="st1" d="M30.4,1031.9h-355.8V889.5h-87c-60.3,0-109.4-49.3-109.4-109.9V676.5h-102.9l0.5-0.7l110.5-175.6
			c21.7-149.7,78.5-251.2,169-301.8c94.3-52.7,202.6-34.5,258.7-19l-0.3,0.9c-56-15.5-164-33.7-258,18.9
			c-90.2,50.4-146.9,151.8-168.6,301.2l-0.1,0.2l-110.1,175h102.2v104c0,60.1,48.7,108.9,108.5,108.9h87.9v142.3H29.4V787.2h0.9
			C30.4,787.2,30.4,1031.9,30.4,1031.9z"/>
	</g>
	<g id="路径_12111">
		<path class="st1" d="M30.4,1051.8h-363.9V906.2h-89c-61.7,0-111.9-50.4-111.9-112.4V688.3h-105.3l0.5-0.7l113-179.7
			c22.2-153.1,80.4-257,172.9-308.7c42.2-23.6,92.4-36.1,149.3-37.2c55.5-1.1,100.9,9.1,123.1,15.2l-0.3,0.9
			c-22.1-6.1-67.5-16.2-122.8-15.2c-56.7,1.1-106.8,13.6-148.8,37.1c-92.3,51.6-150.3,155.3-172.5,308.1l-0.1,0.2l-112.6,179h104.5
			v106.4c0,61.5,49.8,111.5,111,111.5h89.9v145.6H29.4V801.5h0.9C30.4,801.5,30.4,1051.8,30.4,1051.8z"/>
	</g>
	<g id="路径_12112">
		<path class="st1" d="M36.1,1072.5h-375.8V922.4h-91.6c-63.8,0-115.7-52.1-115.7-116.1V697.7h-108.8l0.7-1.1l116.5-185.2
			c22.9-157.9,82.9-265.1,178.4-318.5c90.8-50.7,206.6-43.5,284.6-19.8l-0.4,1.3c-77.8-23.6-193.1-30.9-283.5,19.7
			c-95.2,53.2-155,160-177.8,317.6l0,0.1l-0.1,0.1l-115.9,184.3h107.6v109.9c0,63.3,51.3,114.7,114.3,114.7h93v150.2h373V733.9h1.4
			V1072.5z"/>
	</g>
	<g id="路径_12113">
		<path class="st1" d="M19.4,946.3h-310.7V822h-75.9c-52.7,0-95.6-43.1-95.6-96.1v-90h-89.9l0.5-0.7l96.4-153.4
			c18.9-130.8,68.6-219.5,147.6-263.7c31.3-17.5,66.8-27.6,105.5-30.1c29.3-1.9,60.5,0.6,92.9,7.4l-0.2,0.9
			c-32.3-6.8-63.5-9.2-92.7-7.4c-38.6,2.5-73.9,12.5-105.1,29.9C-386.6,263-436.1,351.5-454.9,482l-0.1,0.2L-551,635h89.2v90.9
			c0,52.4,42.5,95.1,94.7,95.1h76.8v124.4H18.5V734.2h0.9V946.3z"/>
	</g>
	<g id="路径_12115">
		<path class="st1" d="M145.3,732.5h-207c-12.1,0-21.9-9.8-21.9-21.9v-133c-34.4-20.7-62.9-50.2-82.6-85.2
			c-19.7-35.1-29.9-75-29.6-115.3c1-126,104.3-229.3,230.3-230.2c0.6,0,1.1,0,1.7,0c61.7,0,119.7,23.9,163.5,67.4
			c44.2,43.9,68.5,102.4,68.5,164.6l0,0c0,76.7-37.7,148.3-101.1,191.5v140.2C167.2,722.6,157.4,732.5,145.3,732.5z M36.2,148.2
			c-0.6,0-1.1,0-1.7,0c-125.3,0.9-228,103.5-228.9,228.8c-0.3,40,9.8,79.7,29.4,114.6c19.6,34.9,48.1,64.3,82.4,84.9l0.3,0.2v133.8
			c0,11.3,9.2,20.5,20.5,20.5h207c11.3,0,20.5-9.2,20.5-20.5V569.7l0.3-0.2c63.1-43,100.8-114.2,100.8-190.6l0,0
			c0-61.9-24.2-120-68.1-163.6C155.2,172,97.5,148.2,36.2,148.2z"/>
	</g>
	<g id="路径_12116">
		<path class="st1" d="M141.1,721.1L141.1,721.1h-199c-11.6,0-21.1-9.4-21.1-21.1V572.2c-33-19.9-60.5-48.2-79.3-81.9
			c-18.9-33.8-28.8-72.1-28.4-110.8c0.9-121.2,100.3-220.4,221.4-221.3c0.5,0,1.1,0,1.6,0c123,0,223,100.1,223,223l0,0
			c0,73.7-36.3,142.5-97.1,184.1V700c0,5.6-2.2,10.9-6.2,14.9C152,718.9,146.7,721.1,141.1,721.1z M36.2,159.6c-0.5,0-1.1,0-1.6,0
			c-120.4,0.8-219.1,99.5-220,219.9c-0.3,38.5,9.5,76.6,28.3,110.1c18.8,33.6,46.2,61.8,79.2,81.6l0.3,0.2V700
			c0,10.8,8.8,19.7,19.7,19.7h199l0,0c5.2,0,10.2-2,13.9-5.8c3.7-3.7,5.8-8.7,5.8-13.9V564.6l0.3-0.2
			c60.7-41.3,96.9-109.8,96.8-183.2l0,0C257.8,259,158.4,159.6,36.2,159.6z"/>
	</g>
	<g id="路径_12117">
		<path class="st1" d="M131.8,701.8L131.8,701.8H-57.4c-5.3,0-10.3-2.1-14-5.8c-3.7-3.7-5.8-8.7-5.8-14V560.4
			c-31.4-18.9-57.5-45.8-75.4-77.8c-18-32.1-27.3-68.5-27-105.2c0.9-115.1,95.2-209.3,210.3-210.1h1.5c116.8,0,211.8,95,211.8,211.8
			l0,0c0,70.1-34.5,135.4-92.3,174.9V682c0,5.3-2.1,10.3-5.8,14C142.1,699.8,137.1,701.8,131.8,701.8z M32.1,168.1h-1.5
			c-114.5,0.8-208.5,94.7-209.3,209.2c-0.3,36.6,9,72.8,26.9,104.8s43.9,58.8,75.3,77.6l0.2,0.1V682c0,5,2,9.8,5.5,13.4
			s8.3,5.5,13.4,5.5h189.1l0,0c5,0,9.8-2,13.4-5.5s5.5-8.3,5.5-13.4V553.4l0.2-0.1c57.7-39.3,92.2-104.4,92.1-174.3l0,0
			C243,262.7,148.4,168.1,32.1,168.1z"/>
	</g>
	<g id="路径_12118">
		<path class="st1" d="M136.7,710.3L136.7,710.3H-55.4c-11.1,0-20.1-9-20.1-20.1V566.6c-31.9-19.2-58.4-46.6-76.6-79.1
			c-18.3-32.6-27.8-69.6-27.4-106.9c0.9-116.9,96.7-212.6,213.6-213.5h1.6c118.6,0,215.1,96.5,215.1,215.2l0,0
			c0,71.2-35,137.6-93.8,177.7v130.2C156.9,701.3,147.8,710.3,136.7,710.3z M35.5,168.1h-1.6c-116.4,0.8-211.8,96.2-212.7,212.5
			c-0.3,37.2,9.1,74,27.3,106.4s44.6,59.7,76.5,78.9l0.2,0.1v124.1c0,10.6,8.6,19.2,19.2,19.2h192.1l0,0c10.6,0,19.2-8.6,19.2-19.2
			V559.5l0.2-0.1c58.6-39.9,93.6-106.1,93.6-177l0,0C249.7,264.2,153.6,168.1,35.5,168.1z"/>
	</g>
	<g id="路径_12119">
		<path class="st1" d="M126.1,689.4H-55.5c-10.6,0-19.3-8.7-19.3-19.3V553.4c-30.2-18.2-55.2-44-72.4-74.8
			c-17.3-30.9-26.3-65.9-26-101.2c0.8-110.7,91.6-201.3,202.2-202.1h1.5c112.3,0,203.7,91.4,203.7,203.7l0,0
			c0,67.3-33.1,130.2-88.7,168.1v123C145.4,680.7,136.8,689.4,126.1,689.4z M30.4,176.7H29c-109.9,0.8-200,90.8-200.8,200.7
			c-0.3,35.1,8.6,69.9,25.8,100.5s42.2,56.4,72.3,74.5l0.3,0.2v117.5c0,9.9,8,17.9,17.9,17.9h181.7c9.9,0,17.9-8,17.9-17.9V546.4
			l0.3-0.2c55.4-37.7,88.4-100.2,88.4-167.2l0,0C232.7,267.5,142,176.7,30.4,176.7z"/>
	</g>
	<g id="路径_12120">
		<path class="st1" d="M120.5,670.3h-175c-10.1,0-18.4-8.3-18.4-18.4V539.4c-29.1-17.5-53.2-42.4-69.8-72
			c-16.6-29.7-25.3-63.4-25-97.4c0.8-106.5,88.1-193.7,194.6-194.5h1.4c108.1,0,196,87.9,196,196l0,0c0,64.8-31.9,125.3-85.4,161.8
			v118.5C138.8,662,130.6,670.3,120.5,670.3z M28.3,176.5h-1.4C-79.1,177.2-166,264-166.8,370c-0.3,33.9,8.3,67.4,24.9,96.9
			s40.7,54.4,69.7,71.8l0.2,0.1v113c0,9.6,7.8,17.4,17.4,17.4h175c9.6,0,17.4-7.8,17.4-17.4v-119l0.2-0.1
			c53.4-36.3,85.3-96.6,85.2-161.2l0,0C223.3,264,135.8,176.5,28.3,176.5z"/>
	</g>
	<g id="路径_12121">
		<path class="st1" d="M125.3,678.7C125.3,678.7,125.3,678.7,125.3,678.7h-178c-5,0-9.7-2-13.2-5.5c-3.5-3.5-5.5-8.2-5.5-13.2V545.6
			c-29.6-17.8-54.1-43.1-71-73.2c-16.9-30.2-25.7-64.4-25.4-99c0.8-108.3,89.6-197,197.9-197.7h1.4c53.2,0,103.3,20.7,140.9,58.4
			c37.6,37.6,58.4,87.7,58.4,140.9l0,0c0,65.9-32.4,127.4-86.9,164.6V660c0,5-1.9,9.7-5.5,13.2C135,676.7,130.3,678.7,125.3,678.7z
			 M31.6,176.5h-1.4c-107.8,0.8-196.1,89-196.9,196.8c-0.3,34.4,8.5,68.5,25.3,98.6c16.8,30,41.3,55.3,70.9,73l0.2,0.1V660
			c0,4.7,1.8,9.2,5.2,12.6c3.4,3.4,7.8,5.2,12.6,5.2h178l0,0c4.7,0,9.2-1.8,12.6-5.2c3.4-3.4,5.2-7.8,5.2-12.6v-121l0.2-0.1
			c54.3-37,86.7-98.2,86.7-163.9l0,0c0-53-20.6-102.8-58.1-140.3C134.4,197.1,84.6,176.5,31.6,176.5z"/>
	</g>
	<g id="路径_12122">
		<path class="st1" d="M112.4,653.1H-52.9c-9.7,0-17.6-7.9-17.6-17.6V529.4c-55.8-33.7-90.1-95-89.5-160.1
			c0.8-100.7,83.3-183.2,184-183.9h1.3c49.5,0,96.1,19.3,131.1,54.3s54.3,81.6,54.3,131.1l0,0c0,61.3-30.1,118.4-80.7,153v111.8
			C130,645.2,122.1,653.1,112.4,653.1z M25.3,186.7H24c-99.9,0.7-181.9,82.6-182.6,182.5C-159.1,434-125,495-69.4,528.4l0.3,0.2
			v106.9c0,8.9,7.3,16.2,16.2,16.2h165.3c8.9,0,16.2-7.3,16.2-16.2V522.9l0.3-0.2c50.4-34.3,80.4-91.1,80.4-152l0,0
			c0-49.1-19.1-95.3-53.9-130.1C120.7,205.9,74.5,186.7,25.3,186.7z"/>
	</g>
	<g id="路径_12123">
		<path class="st1" d="M109.9,648.9H-53.8c-9.6,0-17.5-7.8-17.5-17.5V526.3c-55.3-33.4-89.3-94.1-88.7-158.7
			c0.8-99.8,82.6-181.5,182.3-182.2h1.3c101.3,0,183.7,82.4,183.7,183.7l0,0c0,60.7-29.8,117.3-79.9,151.6v110.8
			C127.4,641,119.6,648.9,109.9,648.9z M23.7,186.7h-1.3c-99,0.7-180.2,81.8-181,180.8c-0.5,64.2,33.3,124.6,88.4,157.7l0.3,0.2
			v105.9c0,8.9,7.2,16.1,16.1,16.1h163.8c8.9,0,16.1-7.2,16.1-16.1V519.9l0.3-0.2c49.9-34,79.7-90.3,79.6-150.6l0,0
			C205.9,268.5,124.2,186.8,23.7,186.7z"/>
	</g>
	<g id="路径_12124">
		<path class="st1" d="M105.5,638.5H-50.8c-9.1,0-16.5-7.4-16.5-16.5V521.6c-52.7-31.8-85.2-89.7-84.6-151.3
			c0.7-95.1,78.7-173,173.8-173.7h1.3c96.5,0,175,78.5,175.1,175.1l0,0c0,57.9-28.5,111.9-76.3,144.5V622
			C121.9,631.1,114.6,638.5,105.5,638.5z M23.2,197.6h-1.2c-94.6,0.7-172.1,78.2-172.9,172.7c-0.5,61.3,31.8,119,84.4,150.6l0.2,0.1
			v101c0,8.6,7,15.5,15.5,15.5h156.3c8.6,0,15.5-7,15.5-15.5V515.7l0.2-0.1c47.7-32.4,76.1-86.2,76.1-143.9l0,0
			C197.3,275.7,119.2,197.6,23.2,197.6z"/>
	</g>
	<g id="路径_12125">
		<path class="st1" d="M99.2,628.9H-47.1c-4.1,0-8-1.6-10.9-4.5c-2.9-2.9-4.5-6.8-4.5-10.9v-94.1c-49.4-29.8-79.8-84.1-79.3-141.7
			c0.7-89.1,73.7-162.1,162.8-162.7h1.2c43.8,0,85,17.1,116,48c31,31,48,72.2,48,116l0,0c0,54.2-26.7,104.8-71.4,135.4v99.1
			C114.7,622,107.8,628.9,99.2,628.9z M22.1,215.9H21c-88.6,0.6-161.2,73.2-161.9,161.8c-0.5,57.4,29.8,111.5,79.1,141.1l0.2,0.1
			v94.6c0,8,6.5,14.5,14.5,14.5H99.2c8,0,14.5-6.5,14.5-14.5v-99.6l0.2-0.1c44.6-30.4,71.3-80.8,71.2-134.8l0,0
			c0-43.6-17-84.5-47.8-115.3C106.6,232.8,65.7,215.9,22.1,215.9z"/>
	</g>
</g>
</svg>
