<?xml version="1.0" encoding="utf-8"?>
<!-- Generator: Adobe Illustrator 25.4.1, SVG Export Plug-In . SVG Version: 6.00 Build 0)  -->
<svg version="1.1" id="图层_1" xmlns="http://www.w3.org/2000/svg" xmlns:xlink="http://www.w3.org/1999/xlink" x="0px" y="0px"
	 viewBox="0 0 1024 840" style="enable-background:new 0 0 1024 840;" xml:space="preserve">
<style type="text/css">
	.st0{opacity:0.709;}
	.st1{fill:#FFFFFF;}
</style>
<g id="组_26_00000159449473145289183120000010563371173198634664_" transform="translate(1600.346 -125.249)" class="st0">
	<g id="路径_11_00000067956671017528439830000009779008734665902484_">
		<path class="st1" d="M-1224.8,743.9c-30.4,0-59.3-4.7-82.9-14.5c-27.4-11.5-54.6-32.2-78.7-60c-22.3-25.8-40.7-56-53.3-87.6
			c-17.9-44.7-21.4-85.9-9.5-113c12.4-28.2,33.3-47.4,62.2-57c25.8-8.6,57.4-9.5,93.9-2.5c58.4,11.1,126.9,42.5,183,83.9
			c56.3,41.5,90.6,86.1,91.9,119.3c1.3,33.5-16.2,63.8-50.5,87.6C-1109.4,728.3-1169.5,743.9-1224.8,743.9z M-1448.9,469l0.3,0.1
			c-11.8,26.9-8.3,67.9,9.5,112.5c12.6,31.4,31,61.7,53.2,87.4c24,27.7,51.1,48.4,78.4,59.8c23.5,9.8,52.4,14.5,82.6,14.5
			c55.2,0,115.2-15.6,155.8-43.7c34.1-23.7,51.5-53.8,50.2-87c-1.3-32.9-35.5-77.3-91.6-118.7c-56.1-41.4-124.4-72.8-182.8-83.8
			c-36.4-6.9-67.9-6.1-93.6,2.5c-28.7,9.6-49.5,28.6-61.8,56.6L-1448.9,469z"/>
	</g>
	<g id="路径_12_00000169520835261816298290000013547525145061898141_">
		<path class="st1" d="M-1215.7,767.8c-33.1,0-63.5-5.3-88-15.7c-29.2-12.4-58.2-34.7-83.7-64.7c-23.7-27.7-43.5-60.6-57.3-95
			c-20.6-51.4-24.6-98.7-11.1-130c13.7-31.7,36.8-53.3,68.5-64.2c28.4-9.7,63-10.8,102.8-3.2c63.4,12.1,137.4,46.7,198,92.4
			c60.7,45.8,97.6,95.2,98.7,132.1c1.2,38.5-19.1,73.1-58.8,100.3c-33.8,23.2-79.4,39.2-128.4,45.3
			C-1188.8,766.9-1202.5,767.8-1215.7,767.8z M-1454.8,462.9c-13.4,31-9.4,78.1,11.1,129.2c13.7,34.3,33.5,67,57.1,94.7
			c25.5,29.8,54.3,52.1,83.3,64.4c34.1,14.4,79.7,19.1,128.3,13c48.8-6,94.3-22.1,127.9-45.1c39.3-26.9,59.5-61.3,58.3-99.4
			c-1.1-36.6-37.9-85.6-98.3-131.3c-60.4-45.6-134.3-80.1-197.6-92.2c-39.7-7.6-74.1-6.5-102.3,3.2
			C-1418.4,410.1-1441.2,431.5-1454.8,462.9L-1454.8,462.9z"/>
	</g>
	<g id="路径_13_00000127763599611617619550000016061940839747396528_">
		<path class="st1" d="M-1205.9,803.5c-34.7,0-66.5-5.7-92-16.7c-53.1-22.9-104.9-78.4-138.3-148.3c-32.2-67.4-41.2-135.2-23.5-177
			l0.8,0.3l-0.8-0.3c15.4-36.2,40.9-61,75.9-73.6c31.2-11.3,69.1-12.7,112.7-4.3c68.6,13.3,148.2,51.5,212.9,102.2
			c64.9,50.9,104.2,106.1,105,147.6c0.6,31.8-11.2,78-70.9,118.1c-37.3,25-86.2,42.5-137.9,49.1
			C-1177,802.5-1191.7,803.5-1205.9,803.5z M-1323.9,379.9c-21.9,0-41.7,3.2-59.4,9.6c-34.5,12.5-59.7,36.9-74.9,72.7
			c-17.6,41.4-8.6,108.6,23.4,175.6c33.3,69.6,84.7,124.7,137.4,147.5c25.9,11.2,57.6,16.5,91.3,16.5c62.5,0,131.4-18.3,180.9-51.6
			c59.1-39.7,70.7-85.4,70.1-116.7c-0.8-41-39.8-95.6-104.4-146.2c-64.5-50.6-143.9-88.7-212.2-101.9
			C-1290,381.7-1307.5,379.9-1323.9,379.9z"/>
	</g>
	<g id="路径_14_00000183936849215423573050000012690605974035868590_">
		<path class="st1" d="M-1230.2,714.2c-29.8,0-57.6-4.7-79.4-13.6c-26-10.7-51.8-29.9-74.5-55.7c-20.8-23.6-38.5-52.1-49.8-80.3
			c-14.9-37.4-17.7-71.8-7.7-94.3l0.3,0.1l-0.3-0.1c11-24.5,29.7-41.1,55.8-49.3c23.3-7.4,51.9-8,85-1.8
			c53.7,10,116.9,38.2,169.1,75.4c52.3,37.2,84.3,76.9,85.8,106.1c1.4,28.1-12.9,53.6-41.4,73.8c-27.5,19.5-66.3,32.9-109.4,37.8
			C-1207.9,713.6-1219.2,714.2-1230.2,714.2z M-1343.2,415.7c-15.6,0-29.8,2-42.4,6c-25.9,8.2-44.5,24.7-55.4,49
			c-10,22.3-7.2,56.5,7.7,93.7c11.3,28.2,28.9,56.6,49.6,80.1c22.7,25.7,48.4,44.9,74.3,55.5c29.7,12.2,70.8,16.4,112.7,11.6
			c42.9-4.9,81.7-18.3,109-37.7c28.3-20,42.5-45.3,41.1-73.2c-1.5-29.1-33.5-68.5-85.5-105.6c-52.1-37.1-115.2-65.2-168.8-75.2
			C-1315.9,417.1-1330,415.7-1343.2,415.7z"/>
	</g>
	<g id="路径_15_00000121971671259861105570000002825012727242815670_">
		<path class="st1" d="M-1222.2,735.1c-29,0-56.8-4.5-79.4-13.9c-50.9-21.2-100.3-76.2-125.9-140.2c-16.7-41.7-19.9-80-8.8-105.2
			c11.7-26.5,31.4-44.5,58.8-53.5c24.4-8,54.4-8.8,88.9-2.3c55.5,10.5,120.5,40.1,174,79.3c53.5,39.2,86.3,81.3,87.5,112.5
			c1.3,31.2-14.9,59.5-46.9,81.7C-1112.5,720.3-1169.5,735.1-1222.2,735.1z M-1435.7,476c-11,25-7.8,63.2,8.8,104.7
			c25.5,63.8,74.8,118.7,125.6,139.8c63.5,26.5,167.4,13.8,226.9-27.6c31.7-22.1,47.8-50.1,46.6-81.1c-1.3-31-33.9-72.9-87.2-112
			c-53.4-39.1-118.3-68.7-173.7-79.2c-34.4-6.5-64.2-5.8-88.6,2.3C-1404.5,431.9-1424.1,449.7-1435.7,476L-1435.7,476z"/>
	</g>
	<g id="路径_16_00000107588475640720461290000011173007864983666560_">
		<path class="st1" d="M-1226.9,726.9c-28.4,0-55.6-4.4-77.8-13.6c-26-10.8-52-30.5-75.1-57.1c-21.1-24.3-39.2-53.8-50.9-83
			c-15.8-39.5-18.9-75.7-8.5-99.3c11.3-25.5,30.5-42.8,57.1-51.5c23.8-7.7,52.9-8.4,86.7-2c54.5,10.3,118.5,39.3,171.3,77.7
			c52.9,38.4,85.2,79.4,86.5,109.7c1.3,30-14.3,57.2-44.9,78.7C-1119.9,712.5-1175.4,726.9-1226.9,726.9z M-1438.8,474l0.3,0.1
			c-10.4,23.4-7.3,59.5,8.5,98.8c11.7,29.1,29.7,58.5,50.8,82.8c23,26.4,48.9,46.1,74.8,56.9c62.3,25.9,163.7,13.6,221.5-26.8
			c30.5-21.3,45.9-48.3,44.7-78.1c-1.3-30.1-33.5-70.9-86.2-109.2c-52.7-38.3-116.7-67.3-171.1-77.5c-33.6-6.3-62.6-5.7-86.3,2
			c-26.4,8.6-45.5,25.8-56.7,51.1L-1438.8,474z"/>
	</g>
	<g id="路径_17_00000091710113235471159590000013714856111814414992_">
		<path class="st1" d="M-1207.9,777.8c-34.4,0-65.8-5.5-91.2-16.2c-30.3-12.8-60.3-35.9-86.8-66.8c-24.6-28.7-45.1-62.5-59.2-97.9
			c-20.9-52.2-25-100.2-11.2-131.9l0.5,0.2l-0.5-0.2c14.1-32.4,37.8-54.4,70.4-65.5c29.2-9.9,64.7-11,105.8-3.2
			c65.4,12.5,141.8,48,204.3,94.9c62.7,47,100.8,97.7,102.1,135.4c1.3,39.1-19.3,74.3-59.5,101.9c-34.7,23.9-81.8,40.4-132.5,46.7
			C-1180.1,776.9-1194.2,777.8-1207.9,777.8z M-1331.2,392.1c-20.1,0-38.3,2.8-54.5,8.3c-32.3,11-55.8,32.9-69.8,65
			c-13.7,31.4-9.6,79.2,11.2,131.1c14.1,35.3,34.5,69.1,59.1,97.7c26.4,30.8,56.3,53.8,86.4,66.5c35.3,14.9,82.5,19.7,132.9,13.5
			c50.6-6.2,97.5-22.7,132.1-46.5c39.9-27.4,60.3-62.4,59-101c-1.2-37.5-39.2-87.8-101.7-134.6c-62.4-46.9-138.7-82.3-203.9-94.7
			C-1298.4,393.8-1315.3,392.1-1331.2,392.1z"/>
	</g>
	<g id="路径_18_00000088846607502409823720000003616747414423408551_">
		<path class="st1" d="M-1203.9,789.5c-35,0-67-5.6-92.9-16.6c-30.8-13-61.4-36.6-88.4-68.2c-25-29.3-45.9-63.9-60.4-100.1
			c-21.6-54-25.9-103.9-11.6-136.7l0.6,0.3l-0.6-0.3c14.5-33.4,38.8-56.1,72.3-67.6c29.9-10.3,66.4-11.4,108.4-3.3
			c66.9,12.8,144.9,49.2,208.8,97.3c64,48.3,102.9,100.3,104.2,139.2c1.3,40.5-20.1,77-61.8,105.6c-35.6,24.4-83.7,41.4-135.4,47.8
			C-1175.5,788.6-1190,789.5-1203.9,789.5z M-1328.6,393c-20.6,0-39.3,2.9-55.9,8.6c-33.1,11.3-57.1,33.9-71.5,66.9
			c-14.1,32.5-9.8,82,11.7,135.7c14.5,36.1,35.3,70.6,60.2,99.7c26.9,31.4,57.2,54.9,87.9,67.8c36,15.2,84,20.1,135.3,13.7
			c51.5-6.4,99.4-23.3,134.8-47.5c41.3-28.3,62.4-64.4,61.2-104.4c-1.2-38.4-39.9-90.1-103.6-138.1
			c-63.7-48.1-141.5-84.4-208.2-97.1C-1295.2,394.8-1312.5,393-1328.6,393z"/>
	</g>
	<g id="路径_19_00000021077277377375198810000011215793256547150258_">
		<path class="st1" d="M-1199.1,803.4c-36.7,0-70.2-6-97.3-17.7c-56.2-24.2-110.8-82.8-146.2-156.8c-34.1-71.2-43.6-142.8-24.8-187
			c16.2-38.2,43.2-64.4,80.1-77.7c33-11.9,73-13.4,119.1-4.5c72.5,14,156.7,54.4,225.2,108.1c68.6,53.8,110.1,112.1,111,155.8
			c0.7,33.5-11.8,82.3-74.9,124.7c-39.4,26.5-91.1,44.9-145.8,51.9C-1168.6,802.4-1184.1,803.4-1199.1,803.4z M-1466.9,442.2
			l0.5,0.2c-18.6,43.9-9.1,115.2,24.8,186.1c35.3,73.7,89.7,132.1,145.7,156.3c78.3,33.8,207.7,17.1,288.5-37.2
			c62.7-42.1,75-90.6,74.4-123.8c-0.8-43.5-42.2-101.4-110.6-155.1c-68.4-53.6-152.4-93.9-224.7-107.9c-45.9-8.9-85.7-7.4-118.5,4.5
			c-36.6,13.2-63.4,39.2-79.5,77.1L-1466.9,442.2z"/>
	</g>
	<g id="路径_20_00000173858664104621621800000006199464216106109354_">
		<path class="st1" d="M-1199.6,803.1c-37.5,0-71.7-6.1-99.3-18.1c-57.6-24.9-113.6-85.3-149.7-161.5
			c-34.8-73.4-44.5-147.3-25.2-192.8l0,0c16.7-39.5,44.4-66.5,82.4-80.3c33.9-12.3,75-13.9,122.3-4.7
			c74.3,14.4,160.6,56,230.7,111.2c70.3,55.3,112.7,115.3,113.5,160.5c0.6,34.8-12.4,85.4-77.9,129.3c-40.5,27.1-93.5,46-149.3,53.2
			C-1168.3,802.1-1184.3,803.1-1199.6,803.1z M-1473.3,431l0.5,0.2c-19.2,45.3-9.6,118.8,25.2,192c36.1,76,91.9,136.2,149.2,161
			c38.7,16.8,90.7,22,146.2,14.9c55.6-7.2,108.5-26,148.8-53c65.1-43.6,78-93.9,77.4-128.4c-0.8-44.8-43.1-104.5-113.1-159.7
			c-70-55.1-156.1-96.6-230.3-111c-47.1-9.1-88-7.6-121.7,4.7c-37.6,13.7-65.1,40.5-81.7,79.7L-1473.3,431z"/>
	</g>
	<g id="路径_21_00000030469279142395196810000013664602591017660077_">
		<path class="st1" d="M-1194.8,804.3c-37.6,0-72-6.2-99.7-18.3c-58.5-25.5-115.3-87.7-151.9-166.4
			c-35.2-75.7-44.7-152.1-24.8-199.3c17.2-41,45.7-69.1,84.5-83.5c34.7-12.8,76.7-14.6,125-5.2c161.7,31.5,347.6,180.4,348.9,279.5
			c0.5,36.6-13.4,89.9-82.5,135.9c-41.4,27.5-95.2,46.8-151.3,54.1C-1163.1,803.3-1179.2,804.3-1194.8,804.3z M-1470.7,420.5
			l0.5,0.2c-19.7,46.9-10.2,123,24.8,198.5c36.4,78.5,93,140.5,151.3,165.9c39,17,91.3,22.3,147.2,15c56-7.3,109.6-26.5,150.9-53.9
			c68.7-45.7,82.6-98.6,82.1-135c-0.6-46.3-43.4-107.8-114.3-164.5c-70.9-56.7-158.3-99.3-233.8-114c-48.1-9.4-89.9-7.6-124.4,5.2
			c-38.5,14.3-66.8,42.2-83.9,82.9L-1470.7,420.5z"/>
	</g>
	<g id="路径_22_00000170970152292595182310000015666544374325326997_">
		<path class="st1" d="M-1191.4,804.7c-38.9,0-74.3-6.4-102.9-18.8c-31.5-13.7-61.7-36.7-89.9-68.4c-25.8-29-48.8-64.4-66.5-102.4
			c-36.3-77.7-46.1-156-25.8-204.4c17.7-42,46.9-70.7,86.7-85.4c35.6-13.1,78.9-14.9,128.5-5.3c77.9,15.2,168.1,59,241.3,117.3
			c35,27.9,64.3,57.7,84.7,86.3c21.9,30.6,33.2,58.7,33.6,83.4c0.4,27.8-7.3,54.2-22.8,78.5c-14.3,22.4-34.9,42.6-61.3,60.2
			c-42.6,28.4-98,48.1-155.9,55.7C-1158.8,803.6-1175.4,804.7-1191.4,804.7z M-1476.2,410.8l0.3,0.1
			c-20.3,48.2-10.4,126.3,25.8,203.8c17.7,37.9,40.7,73.3,66.4,102.2c28.1,31.6,58.3,54.6,89.7,68.2c40.3,17.5,94.3,23,152.1,15.5
			c57.9-7.5,113.1-27.3,155.6-55.6c26.3-17.5,46.9-37.7,61.1-60c15.5-24.2,23.1-50.5,22.7-78.2c-0.4-24.5-11.6-52.5-33.4-83
			c-20.4-28.5-49.7-58.3-84.6-86.1c-73.1-58.2-163.2-102-241-117.2c-49.5-9.6-92.6-7.9-128.1,5.2c-39.7,14.6-68.7,43.3-86.3,85.1
			L-1476.2,410.8z"/>
	</g>
	<g id="路径_23_00000033345012736412353180000009217128917516174991_">
		<path class="st1" d="M-1187.2,805.4c-40.2,0-77-6.6-106.6-19.5c-32.5-14.1-63.7-37.7-92.8-70.3c-26.6-29.8-50.4-66.1-68.7-105.2
			c-37.5-79.8-47.8-160.2-26.8-209.7c18.2-43,48.2-72.5,89.2-87.5c36.7-13.5,81.2-15.2,132.3-5.3c80.3,15.6,173.4,60.7,249,120.6
			c36.1,28.7,66.4,59.3,87.5,88.7c22.7,31.5,34.3,60.3,34.7,85.6c0.5,28.3-7.3,55.3-23.2,80.1c-14.5,22.8-35.6,43.5-62.5,61.5
			c-43.9,29.3-101,49.7-161,57.5C-1153.5,804.3-1170.6,805.4-1187.2,805.4z M-1481.9,400.9l0.3,0.1
			c-20.9,49.4-10.6,129.6,26.8,209.2c18.3,39,42,75.3,68.6,105c29.1,32.5,60.2,56.1,92.6,70.1c41.7,18.1,97.6,23.8,157.5,16
			c59.9-7.8,117-28.1,160.7-57.4c71.6-47.8,86-103.1,85.4-141.1c-0.4-25.2-12-53.9-34.6-85.2c-21.1-29.3-51.3-59.9-87.4-88.5
			c-75.5-59.9-168.5-104.9-248.8-120.5c-51-9.9-95.4-8.1-132,5.3c-40.9,15-70.7,44.3-88.8,87.1L-1481.9,400.9z"/>
	</g>
	<g id="路径_24_00000145762497501680958980000014941048930354879418_">
		<path class="st1" d="M-1181.9,811.1c-40.9,0-78.2-6.7-108.3-19.8c-33-14.3-64.8-38.4-94.4-71.6c-27.1-30.3-51.2-67.3-69.9-107.1
			c-38.1-81.2-48.6-163.1-27.3-213.6l0.3,0.1l-0.3-0.1c18.5-43.8,49.1-73.8,90.8-89.1c37.3-13.7,82.6-15.5,134.7-5.4
			c81.7,15.9,176.4,61.8,253.3,122.8c36.7,29.2,67.5,60.4,89,90.3c23,32,34.9,61.4,35.3,87.2c0.5,28.9-7.5,56.4-23.6,81.7
			c-14.8,23.3-36.3,44.4-63.7,62.7c-44.6,29.8-102.8,50.5-163.8,58.5C-1147.6,809.9-1165,811.1-1181.9,811.1z M-1318.8,298.8
			c-26.5,0-50.5,3.9-71.9,11.8c-41.6,15.3-72,45.1-90.4,88.8c-21.2,50.3-10.8,132,27.2,213c18.6,39.7,42.8,76.6,69.8,106.9
			c29.6,33.1,61.2,57.1,94.1,71.4c42.4,18.4,99.2,24.2,160.1,16.3c60.9-7.9,118.9-28.6,163.5-58.3c73.1-48.8,87.7-105.1,87.1-143.8
			c-0.4-25.6-12.2-54.8-35.2-86.8c-21.5-29.9-52.2-61-88.9-90.1c-76.8-61-171.4-106.8-253-122.7
			C-1278.4,300.9-1299.2,298.8-1318.8,298.8z"/>
	</g>
	<g id="路径_25_00000047744760476957685590000008515820662743371700_">
		<path class="st1" d="M-1177.3,818.7c-42.3,0-81-6.9-112.2-20.5c-34.1-14.8-66.9-39.5-97.5-73.7c-28-31.2-52.9-69.3-72.2-110.1
			c-18.9-40-31.7-81.2-36.9-119c-5.5-39.5-2.5-74.3,8.6-100.5l0.3,0.1l-0.3-0.1c19-45,50.5-75.7,93.5-91.5
			c38.5-14,85.2-15.9,138.8-5.5c84.3,16.4,182.1,63.6,261.6,126.5c38,30,69.8,62.1,92,92.9c23.8,33,36.1,63.1,36.5,89.6
			c0.5,29.5-7.6,57.7-24.1,83.6c-15.1,23.8-37.1,45.4-65.1,64.2c-46,30.7-106.1,52.2-169.2,60.3
			C-1141.8,817.5-1159.9,818.7-1177.3,818.7z M-1319.8,292.1c-27.2,0-52,4-74,12.1c-42.8,15.7-74.2,46.3-93.1,91.1
			c-21.9,51.7-11,135.6,28.3,219c19.3,40.8,44.2,78.8,72.1,109.9c30.5,34,63.2,58.8,97.2,73.5c43.9,19,102.7,25,165.7,16.8
			c63-8.2,123-29.5,168.9-60.2c74.7-49.9,89.6-107.6,88.9-147.2c-0.4-26.4-12.7-56.4-36.4-89.3c-22.2-30.7-53.9-62.8-91.9-92.8
			c-79.4-62.7-177-110-261.3-126.3C-1278.1,294.3-1299.6,292.1-1319.8,292.1z"/>
	</g>
	<g id="路径_26_00000003068022452375259730000010193657424503030202_">
		<path class="st1" d="M-1144.6,850.9c-46.5,0-89.1-7.6-123.3-22.5c-37.5-16.2-73.5-43.5-107.2-81c-30.7-34.3-58.2-76.1-79.4-121
			c-43.3-91.8-55.3-184.3-31.1-241.3c20.9-49.5,55.6-83.4,102.9-100.7c42.3-15.5,93.6-17.5,152.6-6c92.7,18,200.1,69.9,287.3,138.9
			c41.7,33,76.7,68.3,101.1,102.1c26.2,36.3,39.7,69.5,40.2,98.7c0.5,32.5-8.4,63.5-26.5,92c-16.7,26.2-40.8,50-71.6,70.6
			c-50.5,33.8-116.5,57.3-185.9,66.3C-1105.6,849.6-1125.4,850.9-1144.6,850.9z M-1484.8,385.5l0.8,0.3
			c-24,56.6-12,148.6,31.1,239.9c21.1,44.7,48.5,86.4,79.1,120.5c33.5,37.3,69.3,64.4,106.6,80.5c48.1,20.8,112.6,27.4,181.6,18.4
			c69.1-8.9,134.9-32.4,185.2-66c81.8-54.7,98.1-117.8,97.4-161.1c-0.5-28.8-13.9-61.7-39.9-97.7c-24.3-33.7-59.2-68.8-100.7-101.7
			c-87.1-68.8-194.2-120.6-286.6-138.6c-58.7-11.4-109.7-9.4-151.7,6c-46.9,17.1-81.2,50.7-101.9,99.7L-1484.8,385.5z"/>
	</g>
	<g id="路径_27_00000002373540372347816700000012761267890383904158_">
		<path class="st1" d="M-1141.4,860.3c-48.3,0-92.5-7.9-128-23.3c-38.9-16.9-76.3-45.1-111.2-84.1c-31.9-35.6-60.4-79-82.4-125.6
			c-45-95.3-57.4-191.3-32.3-250.5l0.6,0.3l-0.6-0.3c21.7-51.4,57.7-86.5,106.8-104.5c43.9-16,97.2-18.1,158.4-6.3
			c96.2,18.7,207.8,72.6,298.4,144.2c43.3,34.2,79.6,70.9,104.9,106c27.2,37.6,41.2,72.1,41.7,102.4c0.6,33.7-8.7,65.9-27.5,95.5
			c-17.3,27.2-42.3,51.9-74.4,73.3c-52.5,35.1-121,59.5-193,68.9C-1101,859-1121.6,860.3-1141.4,860.3z M-1303.9,259.8
			c-31,0-59.2,4.6-84.3,13.7c-48.8,17.8-84.4,52.7-106,103.7c-24.9,58.9-12.5,154.4,32.3,249.4c21.9,46.5,50.4,89.8,82.2,125.3
			c34.8,38.8,72,66.9,110.8,83.7c50,21.7,117,28.5,188.8,19.2c71.8-9.3,140.1-33.7,192.4-68.6c85-56.9,102-122.5,101.2-167.6
			c-0.5-30-14.5-64.2-41.5-101.6c-25.3-35-61.5-71.5-104.7-105.7c-90.5-71.5-201.8-125.3-297.8-144
			C-1256.4,262.3-1280.9,259.8-1303.9,259.8z"/>
	</g>
	<g id="路径_28_00000160187611076409091110000015395778206331185843_">
		<path class="st1" d="M-1134,861.8c-49.1,0-93.9-8.1-130.1-23.7c-39.5-17.1-77.5-45.9-113-85.4c-32.4-36.1-61.4-80.3-83.7-127.6
			c-45.7-96.8-58.3-194.3-32.9-254.5c22.1-52.1,58.5-87.8,108.5-106.1c44.6-16.3,98.7-18.4,160.9-6.4
			c97.8,19,211.1,73.8,303.2,146.6c44,34.8,80.9,72,106.6,107.7c27.6,38.2,41.9,73.2,42.4,104c0.6,34.3-8.8,66.9-27.9,96.9
			c-17.6,27.6-43,52.7-75.5,74.4c-53.3,35.6-122.9,60.5-196.1,70C-1092.9,860.4-1113.9,861.8-1134,861.8z M-1493.2,370.8l0.5,0.2
			c-25.3,59.9-12.8,157.1,32.8,253.7c22.3,47.3,51.2,91.3,83.6,127.4c35.4,39.4,73.3,68.1,112.6,85.1c50.8,22,119,29,192,19.5
			c73-9.5,142.5-34.2,195.7-69.8c86.5-57.8,103.7-124.6,103-170.5c-0.5-30.5-14.7-65.3-42.2-103.4c-25.7-35.6-62.5-72.7-106.4-107.5
			c-92-72.7-205.2-127.4-302.8-146.4c-62-12-116-9.9-160.4,6.3c-49.6,18.1-85.9,53.6-107.9,105.5L-1493.2,370.8z"/>
	</g>
	<g id="路径_29_00000150092621678663694730000014073669167082367382_">
		<path class="st1" d="M-1150.5,845c-45.8,0-87.6-7.5-121.3-22.1c-36.8-16-72.3-42.8-105.4-79.6c-30.2-33.7-57.2-74.8-78.1-119
			c-42.6-90.3-54.4-181.2-30.6-237.3c20.6-48.7,54.6-82,101.2-99c41.6-15.2,92.1-17.2,150.1-5.9c91.1,17.7,196.8,68.8,282.7,136.6
			c41,32.4,75.4,67.1,99.4,100.4c25.7,35.7,39.1,68.3,39.5,97c0.5,32-8.2,62.4-26,90.4c-16.4,25.8-40.1,49.1-70.4,69.4
			c-49.7,33.2-114.6,56.4-182.8,65.2C-1112.2,843.7-1131.7,845-1150.5,845z M-1484.6,387.4c-23.6,55.8-11.9,146.3,30.6,236.2
			c20.8,44,47.7,85.1,77.8,118.6c32.9,36.7,68.2,63.4,104.9,79.3c47.3,20.5,110.8,27,178.8,18.2c68-8.8,132.7-31.9,182.3-65
			c80.5-53.9,96.6-116,95.9-158.7c-0.5-28.4-13.7-60.8-39.3-96.2c-23.9-33.1-58.2-67.8-99.1-100.1
			c-85.7-67.7-191.1-118.7-282.1-136.4c-57.8-11.2-108-9.2-149.4,5.9C-1430.4,306.1-1464.1,339.1-1484.6,387.4L-1484.6,387.4z"/>
	</g>
	<g id="路径_30_00000103251179823755359340000005587727085260905133_">
		<path class="st1" d="M-1157.7,838.1c-44.8,0-85.8-7.4-118.8-21.7c-36.1-15.6-70.8-41.9-103.2-78c-29.6-33-56.1-73.3-76.5-116.6
			c-41.8-88.4-53.3-177.5-30-232.5c20.1-47.6,53.5-80.2,99.1-96.9c40.7-14.9,90.2-16.8,147-5.8c89.3,17.3,192.8,67.4,277,133.9
			c40.2,31.8,73.9,65.8,97.4,98.4c25.2,34.9,38.3,66.9,38.7,95c0.7,42.1-15.1,103.5-94.5,156.5c-48.7,32.6-112.3,55.2-179.1,63.9
			C-1120.2,836.9-1139.2,838.1-1157.7,838.1z M-1485.7,389.6l0.5,0.2c-23.1,54.7-11.6,143.4,30,231.6
			c20.4,43.2,46.8,83.4,76.3,116.3c32.3,36,66.9,62.2,102.9,77.7c46.4,20.1,108.7,26.4,175.3,17.8c66.7-8.6,130.1-31.3,178.7-63.7
			c79-52.8,94.7-113.8,94-155.7c-0.5-27.9-13.4-59.6-38.5-94.4c-23.5-32.5-57.1-66.4-97.2-98.2c-84-66.4-187.4-116.4-276.5-133.7
			c-56.6-11-105.9-9.1-146.5,5.8c-45.3,16.6-78.4,49-98.5,96.3L-1485.7,389.6z"/>
	</g>
	<g id="路径_31_00000102540147290732433940000006037935168188381338_">
		<path class="st1" d="M-1131.2,862.1c-50.7,0-97-8.3-134.3-24.5c-40.8-17.7-80.1-47.3-116.7-88.1c-33.5-37.3-63.4-82.8-86.5-131.6
			c-47.2-99.9-60.2-200.4-33.9-262.5l0.5,0.2l-0.5-0.2c22.8-53.8,60.5-90.6,112.1-109.4c46.1-16.8,102-19,166.4-6.5
			c100.9,19.6,218,76.1,313,151.2c45.4,35.9,83.5,74.3,110,111c28.5,39.4,43.2,75.5,43.7,107.2c0.6,35.3-9.1,68.9-28.7,99.8
			c-18.1,28.5-44.3,54.3-77.8,76.7c-55,36.8-127,62.5-202.6,72.3C-1088.6,860.7-1110.3,862.1-1131.2,862.1z M-1301.7,232.7
			c-32.5,0-62.1,4.8-88.4,14.4c-51.3,18.7-88.8,55.3-111.5,108.9c-26.2,61.8-13.2,162,33.9,261.6c23,48.7,52.9,94.2,86.3,131.4
			c36.5,40.7,75.7,70.2,116.3,87.8c52.5,22.7,123,29.9,198.4,20.1c75.5-9.8,147.3-35.4,202.2-72.1C-775.4,725-757.7,656.2-758.5,609
			c-0.5-31.5-15.2-67.3-43.5-106.6c-26.5-36.7-64.5-75-109.8-110.8c-94.9-75-211.8-131.4-312.6-151
			C-1251.7,235.3-1277.6,232.7-1301.7,232.7z"/>
	</g>
	<g id="路径_32_00000128480677750647863420000013411299019659040950_">
		<path class="st1" d="M-1128.3,862.2c-52.3,0-100.1-8.6-138.7-25.2c-42.1-18.2-82.7-48.8-120.5-90.9
			c-34.6-38.5-65.5-85.5-89.3-135.9c-23.3-49.4-39.1-100.2-45.6-146.9c-6.8-48.8-3.1-91.7,10.6-124c23.5-55.5,62.4-93.5,115.7-112.9
			c47.6-17.3,105.3-19.6,171.7-6.7c53.7,10.4,110.4,30.2,168.5,58.8c54.4,26.7,107.9,60.4,154.8,97.4c46.9,37,86.2,76.7,113.6,114.6
			c29.4,40.7,44.6,77.9,45.1,110.6c0.6,36.4-9.4,71.1-29.7,103c-18.7,29.4-45.7,56-80.3,79.2c-56.8,38-131.1,64.5-209.2,74.7
			C-1084.3,860.8-1106.7,862.2-1128.3,862.2z M-1511.4,339.3l0.3,0.1c-13.7,32.2-17.3,75-10.5,123.7c6.5,46.7,22.3,97.4,45.6,146.7
			c23.8,50.4,54.7,97.3,89.2,135.8c37.7,42,78.2,72.6,120.2,90.8c54.3,23.5,127.1,30.9,205.1,20.8c78-10.1,152.2-36.6,208.9-74.5
			c34.6-23.1,61.5-49.7,80.1-79c20.2-31.8,30.2-66.4,29.6-102.6c-0.5-32.6-15.7-69.6-45-110.2c-27.4-37.9-66.7-77.5-113.5-114.5
			c-98.1-77.5-218.8-135.8-323-156c-66.3-12.9-123.9-10.6-171.4,6.7c-53.1,19.3-91.8,57.2-115.3,112.5L-1511.4,339.3z"/>
	</g>
	<g id="路径_33_00000057126009806749883660000009193473989643052980_">
		<path class="st1" d="M-1116.5,874.1c-53.5,0-102.3-8.8-141.6-25.9c-43.5-18.9-85.2-50.6-124.1-94.4c-35.6-40-67.3-88.9-91.8-141.4
			c-24-51.4-40.1-104.4-46.6-153.1c-6.8-50.9-2.9-95.6,11.3-129.4c24.5-58.1,65-98,120.3-118.3c49.4-18.2,109.3-20.6,178.1-7.1
			c229.6,44.9,493.6,255.8,495.5,395.9c0.5,38.4-10.1,75-31.7,108.7c-19.8,31-48.4,59-85,83.4c-58.9,39.2-135.4,66.6-215.4,77.1
			C-1071.1,872.6-1094.2,874.1-1116.5,874.1z M-1509,330.1l0.3,0.1c-14.2,33.7-18.1,78.3-11.3,129c6.5,48.7,22.7,101.5,46.6,152.9
			c24.4,52.4,56.1,101.3,91.7,141.3c38.9,43.7,80.5,75.4,123.9,94.2c55.6,24.1,130.2,31.7,210.2,21.2c79.9-10.5,156.3-37.8,215.2-77
			c36.5-24.3,65-52.3,84.8-83.2c21.5-33.6,32.1-70,31.6-108.3C-718,460.5-981.7,250-1211.1,205.2c-68.7-13.4-128.5-11-177.7,7.1
			c-55.1,20.3-95.5,60-119.9,117.9L-1509,330.1z"/>
	</g>
	<g id="路径_34_00000109732407859434448270000005620827837685405618_">
		<path class="st1" d="M-1112.4,874.5c-55.8,0-106.7-9.2-147.8-27c-45.3-19.7-88.9-52.8-129.4-98.4c-37.1-41.7-70.2-92.7-95.7-147.4
			c-25-53.6-41.8-108.7-48.7-159.5c-7.2-53-3.1-99.6,11.8-134.8c25.6-60.6,67.8-102,125.4-123.2c51.5-18.9,113.9-21.4,185.6-7.4
			c239.5,46.8,514.7,266.6,516.7,412.6c0.5,40-10.5,78-33,113.1c-20.6,32.2-50.4,61.4-88.4,86.8c-61.4,40.9-141.2,69.4-224.7,80.4
			C-1065.1,872.9-1089.2,874.5-1112.4,874.5z M-1521.9,307.7l0.3,0.1c-14.8,35.1-18.9,81.5-11.7,134.4
			c6.8,50.7,23.6,105.8,48.6,159.3c25.5,54.6,58.5,105.5,95.6,147.2c40.5,45.5,84,78.6,129.2,98.2c58,25.2,135.9,33,219.3,22.1
			c83.4-10.9,163.1-39.4,224.4-80.2c38-25.3,67.7-54.4,88.2-86.6c22.4-35,33.4-72.9,32.9-112.7c-0.5-35.3-16.6-75.5-48-119.4
			c-29.3-41-71.3-83.9-121.6-123.9c-50.1-40-107.5-76.3-165.8-105.2c-62.3-30.8-123.2-52.2-180.8-63.4
			c-71.6-14-133.9-11.5-185.3,7.4c-57.4,21.1-99.5,62.4-125,122.8L-1521.9,307.7z"/>
	</g>
	<g id="路径_35_00000041257645718862290490000016028984893250014873_">
		<path class="st1" d="M-1101.3,885.5c-57.2,0-109.4-9.4-151.5-27.7c-46.4-20.2-91.1-54.1-132.7-100.8c-38-42.8-72-95-98.1-151.1
			c-25.6-54.9-42.9-111.4-49.9-163.5c-7.3-54.3-3.2-102.1,12.1-138.1c26.2-62.1,69.4-104.6,128.5-126.3
			c52.8-19.4,116.8-22,190.2-7.6c245.4,47.9,527.6,273.2,529.6,422.9c0.6,41-10.8,80-33.8,115.9c-21.1,33-51.6,63-90.7,89
			c-62.9,41.9-144.7,71.1-230.3,82.4C-1052.9,883.9-1077.5,885.5-1101.3,885.5z M-1521,304.5l0.3,0.1c-15.2,35.9-19.3,83.6-12,137.8
			c7,52,24.2,108.4,49.8,163.3c26.1,56,60,108.2,98,150.9c41.5,46.7,86.1,80.6,132.4,100.7c42,18.2,94.1,27.6,151.2,27.6
			c23.8,0,48.4-1.6,73.5-4.9c85.5-11.2,167.1-40.4,230-82.2c38.9-25.9,69.4-55.8,90.5-88.8c22.9-35.9,34.3-74.7,33.7-115.6
			c-0.5-36.2-17.1-77.4-49.2-122.4c-30-42.1-73.1-86-124.6-127c-51.4-41-110.2-78.2-170-107.8c-63.9-31.6-126.2-53.5-185.3-65
			c-73.4-14.3-137.2-11.8-189.9,7.6c-58.9,21.6-102,64-128.1,125.9L-1521,304.5z"/>
	</g>
	<g id="路径_36_00000114753175886213156790000000322615858956245391_">
		<path class="st1" d="M-1089,898.1c-58.8,0-112.4-9.7-155.7-28.4c-47.7-20.7-93.6-55.6-136.3-103.6
			c-39.1-43.9-73.9-97.6-100.8-155.2c-26.3-56.4-44-114.5-51.3-168c-7.5-55.8-3.2-104.9,12.4-142c26.9-63.8,71.4-107.5,132.1-129.8
			c54.2-19.9,120-22.6,195.5-7.8c252.2,49.3,542.1,280.8,544.2,434.6c0.6,42.1-11.1,82.2-34.8,119.2c-21.7,34-53.1,64.7-93.2,91.4
			c-64.7,43.1-148.7,73.1-236.6,84.6C-1039.2,896.4-1064.5,898.1-1089,898.1z M-1520.1,301l0.5,0.2c-30.9,73.1-16,191.6,38.8,309.1
			c26.8,57.5,61.6,111.1,100.6,155c42.7,47.9,88.4,82.7,136,103.4c61.1,26.5,143,34.8,230.7,23.3c87.8-11.5,171.6-41.5,236.2-84.5
			c40-26.6,71.3-57.3,92.9-91.1c23.5-36.8,35.2-76.7,34.6-118.6c-0.5-37.2-17.5-79.5-50.5-125.7c-30.8-43.2-75.1-88.3-128-130.4
			c-110.6-88.1-247-154.5-364.9-177.5c-75.3-14.7-140.9-12.1-194.9,7.8c-60.4,22.2-104.6,65.7-131.5,129.3L-1520.1,301z"/>
	</g>
	<g id="路径_37_00000141442976759823681370000012227540254436109479_">
		<path class="st1" d="M-1069.3,902c-60.3,0-117.3-9.5-163.9-29.5c-49.2-21.1-96.5-56.3-140.8-104.8
			c-40.4-44.3-76.6-98.3-104.6-156.2c-27.4-56.7-46-115-53.8-168.6c-8.1-56-4-105.1,11.8-142.2c27.1-63.5,72.3-106.9,134.1-128.9
			c55.2-19.7,122.4-22.1,199.7-7.1c121.6,23.6,262.7,91,377.5,180.3c54.9,42.7,100.9,88.3,133,132c34.5,46.8,52.4,89.6,53.2,127.1
			c0.9,41-10.2,80-32.9,116c-20.9,33.1-51.2,63.3-90.2,89.5C-834.3,869.2-957.4,902-1069.3,902z M-1520,301l0.5,0.2
			c-15.7,36.9-19.8,85.8-11.7,141.6c7.8,53.5,26.3,111.7,53.7,168.3c27.9,57.8,64.1,111.7,104.4,155.9
			c44.1,48.3,91.4,83.5,140.4,104.5c132.5,56.8,350.6,28.7,486.1-62.7c103.4-69.7,123.7-149.8,122.6-204.7
			c-0.8-37.3-18.6-79.9-53-126.5c-32.1-43.6-78.1-89.2-132.8-131.8c-114.7-89.2-255.7-156.6-377.1-180.1
			c-77.1-14.9-144.1-12.6-199.2,7.1c-61.6,21.9-106.5,65.1-133.5,128.3L-1520,301z"/>
	</g>
	<g id="路径_38_00000029762155192122688420000004913675451355326643_">
		<path class="st1" d="M-1053.2,917.7c-62.3,0-121.3-9.8-169.3-30.4c-50.8-21.8-99.7-58.2-145.5-108.3
			c-41.8-45.8-79.2-101.6-108.1-161.4c-28.3-58.6-47.6-118.9-55.6-174.3c-8.4-57.9-4.2-108.7,12.2-147l0.6,0.3l-0.6-0.3
			c28.1-65.7,74.7-110.5,138.6-133.3c57.1-20.4,126.5-22.8,206.4-7.3c125.6,24.4,271.5,94,390.1,186.3
			c56.7,44.1,104.2,91.3,137.5,136.4c35.7,48.4,54.1,92.6,54.9,131.4c0.9,42.4-10.5,82.8-34,120c-21.6,34.3-52.9,65.4-93.2,92.6
			C-810.3,883.9-937.6,917.7-1053.2,917.7z M-1271.9,147.1c-39.9,0-76.2,5.8-108.5,17.3c-63.5,22.7-109.9,67.2-137.8,132.5
			c-16.3,38.1-20.4,88.6-12.1,146.2c8,55.3,27.2,115.4,55.5,173.9c28.9,59.7,66.2,115.4,107.9,161.1c45.6,49.9,94.4,86.2,145,107.9
			c136.9,58.7,362.1,29.7,502.1-64.7c106.8-72,127.8-154.7,126.6-211.4c-0.8-38.5-19.2-82.5-54.7-130.6
			c-33.2-45-80.6-92.1-137.2-136.1c-118.5-92.2-264.1-161.8-389.5-186.1C-1209.1,150.4-1241.6,147.1-1271.9,147.1z"/>
	</g>
	<g id="路径_39_00000151523934520596176810000003052189977081014693_">
		<path class="st1" d="M-1056.7,942.6c-65.9,0-126.1-10.7-174.7-31.6c-52.7-22.7-103.4-60.6-150.8-112.8
			c-43.3-47.7-82-105.9-112-168.4c-29.3-61.2-49.2-124-57.4-181.9c-8.6-60.4-4.2-113.4,12.9-153.4l0.3,0.1l-0.3-0.1
			c29.2-68.6,77.7-115.4,144.1-139.3c59.3-21.3,131.5-23.9,214.5-7.8c67.1,13,138,37.6,210.8,73.1c68.1,33.2,135.1,75,193.8,120.9
			c58.8,46,108,95.1,142.4,142.2c36.9,50.4,56,96.5,56.8,136.9c0.9,44.5-11.2,86.9-35.9,126c-22.7,36-55.7,68.6-98,97.1
			c-70.8,47.6-164,80.8-262.3,93.5C-1001.4,940.7-1029.5,942.6-1056.7,942.6z M-1281,137.7c-41.7,0-79.6,6.1-113.4,18.2
			c-66.2,23.8-114.6,70.5-143.7,138.9c-17,39.9-21.4,92.8-12.8,153c8.3,57.8,28.1,120.6,57.4,181.7
			c29.9,62.4,68.6,120.5,111.9,168.2c47.3,52.1,98,90,150.6,112.6c68.5,29.4,160.2,38.7,258.3,26.1c98.3-12.7,191.3-45.8,262-93.4
			c42.3-28.4,75.2-61,97.8-96.9c24.6-39,36.7-81.2,35.8-125.6c-0.8-40.3-19.8-86.3-56.6-136.5c-34.4-47-83.6-96.1-142.3-142
			c-58.6-45.9-125.6-87.7-193.6-120.8c-72.7-35.5-143.6-60-210.6-73.1C-1215.9,141.2-1249.5,137.7-1281,137.7z"/>
	</g>
	<g id="路径_40_00000049180635589412519120000006082540940208237190_">
		<path class="st1" d="M-1067.6,951.8c-67.3,0-128.8-11-178.4-32.3c-53.8-23.1-105.6-61.9-154-115.2
			c-44.2-48.7-83.8-108.2-114.3-171.9c-29.9-62.5-50.2-126.7-58.7-185.7c-8.8-61.6-4.3-115.8,13.1-156.6l0.3,0.1l-0.3-0.1
			c29.8-70,79.4-117.9,147.2-142.2c60.6-21.8,134.3-24.5,219-8c68.5,13.3,141,38.4,215.3,74.7c69.5,33.9,138,76.6,197.9,123.5
			c60,46.9,110.3,97.1,145.4,145.2c37.7,51.5,57.2,98.5,58,139.8c0.9,45.4-11.5,88.7-36.7,128.6c-23.2,36.7-56.9,70.1-100.1,99.2
			c-72.3,48.6-167.4,82.5-267.9,95.5C-1011.1,949.9-1039.8,951.8-1067.6,951.8z M-1296.7,129.8c-42.6,0-81.3,6.2-115.8,18.6
			c-67.6,24.3-117,72-146.8,141.9c-17.3,40.7-21.9,94.7-13.1,156.2c8.4,59,28.7,123.1,58.6,185.5c30.5,63.7,70,123.1,114.2,171.8
			c48.3,53.2,100,91.9,153.8,115c69.9,30.1,163.6,39.5,263.8,26.6c100.3-12.9,195.4-46.8,267.6-95.3c43.2-29,76.8-62.3,99.9-98.9
			c25.1-39.8,37.4-82.9,36.6-128.2c-0.8-41.2-20.3-88.1-57.8-139.4c-35.1-48-85.4-98.1-145.3-145c-59.9-46.8-128.2-89.5-197.7-123.4
			c-74.3-36.2-146.6-61.3-215.1-74.6C-1230.2,133.4-1264.5,129.8-1296.7,129.8z"/>
	</g>
	<g id="路径_41_00000037661007132161089340000017103715037693817001_">
		<path class="st1" d="M-1079.8,965.3c-68.7,0-131.5-11.2-182.2-33c-54.9-23.6-107.9-63.2-157.3-117.6
			c-45.2-49.8-85.6-110.5-116.8-175.6c-30.6-63.8-51.3-129.4-59.9-189.7c-9-63-4.4-118.3,13.4-159.9c30.5-71.5,81-120.4,150.3-145.3
			c61.9-22.2,137.1-25,223.6-8.2c70,13.6,144,39.2,219.8,76.3c71,34.6,140.9,78.2,202.1,126.1c61.3,47.9,112.6,99.2,148.5,148.3
			c38.5,52.6,58.4,100.6,59.2,142.8c0.9,46.4-11.7,90.6-37.5,131.4c-23.7,37.5-58.1,71.6-102.3,101.3
			c-73.8,49.6-171,84.3-273.5,97.5C-1022.1,963.4-1051.5,965.3-1079.8,965.3z M-1582.1,289.6l0.3,0.1
			c-17.7,41.6-22.3,96.7-13.4,159.6c8.6,60.2,29.3,125.8,59.8,189.5c31.2,65.1,71.5,125.7,116.6,175.4
			c49.3,54.4,102.2,93.9,157,117.5c50.5,21.7,113.3,32.9,181.9,32.9c28.3,0,57.6-1.9,87.5-5.7c102.5-13.2,199.5-47.8,273.2-97.4
			c44.1-29.6,78.4-63.6,102.1-101.1c25.7-40.6,38.2-84.7,37.3-131c-0.8-42-20.7-90-59.1-142.4c-35.9-49-87.2-100.2-148.4-148.1
			c-61.2-47.8-131-91.4-201.9-126c-75.8-37-149.7-62.6-219.7-76.2c-86.4-16.8-161.5-14-223.2,8.2c-69.1,24.8-119.5,73.5-149.9,144.9
			L-1582.1,289.6z"/>
	</g>
	<g id="路径_42_00000175301715494782754870000003618847911280355512_">
		<path class="st1" d="M-1203,804c-34.8,0-66.7-5.7-92.3-16.8c-53.7-23.3-105.9-79.7-139.5-151c-32.4-68.7-41.4-137.8-23.3-180.5
			l0.6,0.3l-0.6-0.3c15.7-37,41.6-62.3,77-75.3c31.6-11.6,70.1-13.1,114.2-4.5c148.3,28.8,319.2,164.1,320.7,254
			c0.5,32.7-11.7,80.4-73.3,121.6c-37.8,25.3-87.2,42.9-139.1,49.6C-1173.8,803.1-1188.6,804-1203,804z M-1320,371.8
			c-22.3,0-42.6,3.3-60.6,9.9c-35.1,12.8-60.7,37.9-76.2,74.5c-17.9,42.3-9,111.1,23.3,179.4c33.5,71,85.5,127.2,138.8,150.4
			c36,15.6,84.2,20.5,135.9,13.8c51.7-6.7,100.9-24.2,138.5-49.4c61.1-40.9,73.3-88,72.7-120.4c-0.7-41.9-40-97.6-105.2-149.1
			c-65.1-51.5-145.3-90.2-214.4-103.6C-1285.9,373.6-1303.5,371.8-1320,371.8z"/>
	</g>
	<g id="路径_43_00000127758817725167474430000008366686914066715060_">
		<path class="st1" d="M-1106.9,880c-56.5,0-108-9.3-149.6-27.3c-45.9-19.9-90-53.4-131-99.6c-37.6-42.2-71.1-93.8-96.9-149.2
			c-25.3-54.2-42.3-110.1-49.3-161.4c-7.2-53.6-3.1-100.8,11.9-136.4l0.3,0.1l-0.3-0.1c25.9-61.3,68.6-103.3,126.9-124.7
			c52.1-19.2,115.3-21.7,187.9-7.5c242.4,47.4,521.1,269.8,523.1,417.7c0.6,40.5-10.7,79-33.4,114.5c-20.9,32.6-51,62.2-89.5,87.9
			c-62.1,41.4-142.9,70.3-227.4,81.3C-1059.1,878.4-1083.4,880-1106.9,880z M-1294.3,165.4c-36.9,0-70.5,5.5-100.4,16.5
			c-58.1,21.4-100.7,63.2-126.5,124.3c-15,35.5-19.1,82.6-11.9,136.1c6.9,51.3,23.9,107.1,49.2,161.3c25.8,55.3,59.3,106.9,96.8,149
			c41,46.1,85,79.6,130.8,99.4c58.7,25.5,137.6,33.5,222,22.4c84.4-11.1,165.1-39.9,227.1-81.2c38.5-25.6,68.5-55.1,89.3-87.7
			c22.6-35.4,33.8-73.8,33.3-114.1c-0.5-35.8-16.8-76.4-48.6-120.9c-29.7-41.5-72.2-84.9-123.1-125.4
			c-50.8-40.4-108.8-77.3-167.9-106.5c-63.1-31.2-124.7-52.8-183-64.2C-1237.9,168.4-1267,165.4-1294.3,165.4z"/>
	</g>
	<g id="路径_44_00000106831837242448259890000002210692753356191416_">
		<path class="st1" d="M-1103.7,883.2c-56.9,0-108.8-9.3-150.7-27.5c-46.2-20.1-90.6-53.8-132-100.3
			c-37.8-42.5-71.6-94.5-97.6-150.3c-25.5-54.6-42.6-110.9-49.6-162.6c-7.3-54-3.1-101.5,12-137.4c26.1-61.8,69.1-104,127.8-125.6
			c52.5-19.3,116.1-21.9,189.2-7.6c244.2,47.7,524.8,271.8,526.9,420.7c0.6,40.8-10.8,79.6-33.6,115.3c-21,32.9-51.4,62.6-90.2,88.5
			c-62.6,41.7-144,70.8-229.1,81.9C-1055.5,881.6-1080,883.2-1103.7,883.2z M-1521.2,305.2l0.3,0.1c-15.1,35.8-19.2,83.2-12,137.1
			c7,51.7,24.1,107.8,49.6,162.4c26,55.7,59.7,107.6,97.5,150.1c41.3,46.4,85.6,80.1,131.7,100.1c59.2,25.7,138.5,33.7,223.6,22.6
			c85-11.1,166.3-40.2,228.8-81.8c38.7-25.8,69-55.5,90-88.3c22.8-35.7,34.1-74.3,33.5-114.9c-0.5-36-17-77-48.9-121.8
			c-29.9-41.8-72.7-85.5-124-126.3c-51.1-40.7-109.6-77.8-169.1-107.3c-63.6-31.4-125.6-53.2-184.4-64.7
			c-73-14.3-136.5-11.7-188.9,7.5c-58.5,21.5-101.4,63.7-127.4,125.2L-1521.2,305.2z"/>
	</g>
	<g id="路径_45_00000060709122578675468830000015934196052595000730_">
		<path class="st1" d="M-1095.3,891.6c-58,0-110.9-9.5-153.5-28c-47.1-20.4-92.3-54.8-134.4-102.2c-38.5-43.3-72.9-96.3-99.4-153.1
			c-26-55.7-43.4-112.9-50.5-165.7c-7.4-55-3.2-103.4,12.2-140l0.3,0.1l-0.3-0.1c26.6-62.9,70.4-106,130.2-128
			c53.5-19.7,118.3-22.3,192.8-7.7c248.7,48.6,534.7,276.9,536.7,428.6c0.6,41.5-11,81.1-34.3,117.5c-21.4,33.5-52.3,63.8-91.9,90.1
			c-63.8,42.5-146.6,72.1-233.3,83.5C-1046.2,889.9-1071.1,891.6-1095.3,891.6z M-1520.3,302.9c-15.4,36.4-19.6,84.7-12.2,139.6
			c7.1,52.7,24.6,109.9,50.5,165.5c26.5,56.8,60.8,109.6,99.3,152.9c42.1,47.3,87.2,81.6,134.2,102c60.3,26.2,141.1,34.3,227.7,23
			c86.6-11.3,169.4-40.9,233-83.3c39.5-26.3,70.3-56.5,91.7-90c23.2-36.3,34.7-75.7,34.1-117.1c-0.5-36.7-17.3-78.4-49.9-124
			c-30.4-42.6-74.1-87.1-126.3-128.7c-52.1-41.5-111.7-79.3-172.3-109.3c-64.7-32-127.9-54.2-187.8-65.9
			c-74.3-14.5-139.1-11.9-192.4,7.7C-1450.1,197.3-1493.8,240.2-1520.3,302.9L-1520.3,302.9z"/>
	</g>
</g>
</svg>
