<?xml version="1.0" encoding="utf-8"?>
<!-- Generator: Adobe Illustrator 25.4.1, SVG Export Plug-In . SVG Version: 6.00 Build 0)  -->
<svg version="1.1" id="图层_1" xmlns="http://www.w3.org/2000/svg" xmlns:xlink="http://www.w3.org/1999/xlink" x="0px" y="0px"
	 viewBox="0 0 1024 952" style="enable-background:new 0 0 1024 952;" xml:space="preserve">
<style type="text/css">
	.st0{fill:#FFFFFF;}
</style>
<g id="组_46" transform="translate(-408 -677)">
	<g id="直线_4">
		<path class="st0" d="M1387.4,1395.3c-24.8,0-44.9-20.1-44.9-44.9V955.2c0-24.8,20.1-44.9,44.9-44.9c24.8,0,44.9,20.1,44.9,44.9
			v395.2C1432.4,1375.2,1412.3,1395.3,1387.4,1395.3z"/>
	</g>
	<g id="直线_5">
		<path class="st0" d="M920.4,1521.1c-24.8,0-44.9-20.1-44.9-44.9V829.4c0-24.8,20.1-44.9,44.9-44.9s44.9,20.1,44.9,44.9v646.7
			C965.3,1500.9,945.2,1521.1,920.4,1521.1z"/>
	</g>
	<g id="直线_6">
		<path class="st0" d="M453.3,1628.8c-24.8,0-44.9-20.1-44.9-44.9V721.6c0-24.8,20.1-44.9,44.9-44.9s44.9,20.1,44.9,44.9v862.3
			C498.2,1608.7,478.1,1628.8,453.3,1628.8z"/>
	</g>
</g>
</svg>
