<?xml version="1.0" encoding="utf-8"?>
<!-- Generator: Adobe Illustrator 25.4.1, SVG Export Plug-In . SVG Version: 6.00 Build 0)  -->
<svg version="1.1" id="图层_1" xmlns="http://www.w3.org/2000/svg" xmlns:xlink="http://www.w3.org/1999/xlink" x="0px" y="0px"
	 viewBox="0 0 1024 952" style="enable-background:new 0 0 1024 952;" xml:space="preserve">
<style type="text/css">
	.st0{fill:#FFFFFF;}
</style>
<g id="组_46" transform="translate(-408 -677)">
	<g id="直线_4">
		<path class="st0" d="M453.3,910.2c24.8,0,44.9,20.1,44.9,44.9v395.2c0,24.8-20.1,44.9-44.9,44.9c-24.8,0-44.9-20.1-44.9-44.9
			V955.2C408.4,930.3,428.5,910.2,453.3,910.2z"/>
	</g>
	<g id="直线_5">
		<path class="st0" d="M920.4,784.5c24.8,0,44.9,20.1,44.9,44.9v646.7c0,24.8-20.1,44.9-44.9,44.9c-24.8,0-44.9-20.1-44.9-44.9
			V829.4C875.4,804.6,895.5,784.5,920.4,784.5z"/>
	</g>
	<g id="直线_6">
		<path class="st0" d="M1387.4,676.7c24.8,0,44.9,20.1,44.9,44.9v862.3c0,24.8-20.1,44.9-44.9,44.9c-24.8,0-44.9-20.1-44.9-44.9
			V721.6C1342.5,696.8,1362.6,676.7,1387.4,676.7z"/>
	</g>
</g>
</svg>
