<?xml version="1.0" encoding="utf-8"?>
<!-- Generator: Adobe Illustrator 25.4.0, SVG Export Plug-In . SVG Version: 6.00 Build 0)  -->
<svg version="1.1" id="图层_1" xmlns="http://www.w3.org/2000/svg" xmlns:xlink="http://www.w3.org/1999/xlink" x="0px" y="0px"
	 viewBox="0 0 1024 1024" style="enable-background:new 0 0 1024 1024;" xml:space="preserve">
<style type="text/css">
	.st0{fill:#FFFFFF;}
</style>
<g id="组_101" transform="translate(-6981.192 -78.698)">
	<g id="直线_14">
		<path class="st0" d="M7917.63,614.26h-848.88c-13.01,0-23.56-10.55-23.56-23.56s10.55-23.56,23.56-23.56h848.88
			c13.01,0,23.56,10.55,23.56,23.56S7930.64,614.26,7917.63,614.26z"/>
	</g>
	<g id="直线_15">
		<path class="st0" d="M7917.63,266.99h-848.88c-13.01,0-23.56-10.55-23.56-23.56c0-13.01,10.55-23.56,23.56-23.56h848.88
			c13.01,0,23.56,10.55,23.56,23.56C7941.19,256.44,7930.64,266.99,7917.63,266.99z"/>
	</g>
	<g id="直线_16">
		<path class="st0" d="M7917.63,961.53h-848.88c-13.01,0-23.56-10.55-23.56-23.56s10.55-23.56,23.56-23.56h848.88
			c13.01,0,23.56,10.55,23.56,23.56S7930.64,961.53,7917.63,961.53z"/>
	</g>
</g>
</svg>
